<svg width="14" height="14" viewBox="0 0 14 14" fill="none" xmlns="http://www.w3.org/2000/svg">
<path d="M14 5.54687C13.7656 5.80469 13.5 6.03125 13.2188 6.22656C11.9141 7.10937 10.6016 8 9.32813 8.92187C8.67188 9.40625 7.85938 10 7.00781 10H7H6.99219C6.14063 10 5.32813 9.40625 4.67188 8.92187C3.39844 7.99219 2.08594 7.10937 0.789063 6.22656C0.5 6.03125 0.234375 5.80469 0 5.54687V11.75C0 12.4375 0.5625 13 1.25 13H12.75C13.4375 13 14 12.4375 14 11.75V5.54687ZM14 3.25C14 2.5625 13.4297 2 12.75 2H1.25C0.414063 2 0 2.65625 0 3.42187C0 4.13281 0.789063 5.01562 1.34375 5.39062C2.55469 6.23437 3.78125 7.07812 4.99219 7.92969C5.5 8.28125 6.35938 9 6.99219 9H7H7.00781C7.64063 9 8.5 8.28125 9.00781 7.92969C10.2188 7.07812 11.4453 6.23437 12.6641 5.39062C13.3516 4.91406 14 4.125 14 3.25Z" fill="white"/>
</svg>
