<svg width="87" height="47" viewBox="0 0 87 47" fill="none" xmlns="http://www.w3.org/2000/svg">
<path fill-rule="evenodd" clip-rule="evenodd" d="M5.24706 29.8589C5.94468 29.8534 6.63601 29.9906 7.27821 30.262C8.52097 30.7914 9.51108 31.7774 10.0428 33.0149C10.3172 33.6548 10.4558 34.3442 10.4499 35.0399V40.2423H5.24706C4.55264 40.2466 3.86467 40.1094 3.22544 39.8392C1.95941 39.3103 0.951092 38.3096 0.41564 37.0507C0.00750966 36.1016 -0.103329 35.0519 0.0976363 34.039C0.298601 33.0261 0.802004 32.0973 1.54194 31.3741C2.02164 30.9014 2.58732 30.524 3.20877 30.262C3.84834 29.9929 4.53608 29.8557 5.23039 29.8589H5.24706ZM8.37117 38.177V35.0399C8.37184 34.6294 8.29098 34.2228 8.13324 33.8435C7.97549 33.4643 7.74399 33.1198 7.45203 32.83C7.1658 32.5446 6.82706 32.3168 6.45432 32.1589C6.06833 31.9982 5.6535 31.9175 5.23515 31.9218C4.61393 31.9159 4.005 32.0943 3.48595 32.4342C2.96689 32.7742 2.56121 33.2603 2.32059 33.8306C2.1579 34.2146 2.07683 34.628 2.08247 35.0447C2.07675 35.663 2.2566 36.2689 2.59897 36.7847C2.94134 37.3005 3.43062 37.7028 4.00408 37.9399C4.39807 38.1017 4.8209 38.1824 5.24706 38.177H8.37117ZM17.3125 29.8518V31.91H16.2672C15.8488 31.9054 15.4339 31.9861 15.048 32.1471C14.6768 32.3092 14.3405 32.5411 14.0574 32.83C13.7694 33.1147 13.5404 33.4531 13.3836 33.8259C13.2209 34.2099 13.1398 34.6232 13.1454 35.0399V40.2423H11.0405V35.0399C11.0316 34.3449 11.167 33.6555 11.4381 33.0149C11.7034 32.4005 12.0859 31.8433 12.5644 31.3741C13.045 30.9024 13.6104 30.5251 14.2313 30.262C14.8708 29.9929 15.5586 29.8557 16.2529 29.8589L17.3125 29.8518ZM19.4556 31.3764C19.9478 30.8813 20.5371 30.4923 21.1867 30.2335C22.4457 29.7246 23.8543 29.7246 25.1133 30.2335C25.7622 30.4923 26.3506 30.8814 26.842 31.3764L27.5564 32.0878L26.1276 33.5437L25.3847 32.8324C25.0874 32.5323 24.7317 32.2959 24.3394 32.1376C23.5797 31.8308 22.7298 31.8308 21.9701 32.1376C21.5776 32.2956 21.2218 32.532 20.9248 32.8324C20.6211 33.1172 20.3831 33.4643 20.2271 33.8496C19.9158 34.6096 19.9158 35.4608 20.2271 36.2208C20.3857 36.6116 20.6232 36.9659 20.9248 37.2617C21.2132 37.5593 21.5597 37.7948 21.943 37.9539C22.3264 38.1129 22.7383 38.1921 23.1536 38.1865C23.5683 38.1855 23.979 38.105 24.3632 37.9494C24.7501 37.794 25.0986 37.557 25.3847 37.2546L26.1276 36.5433L27.5564 37.9992L26.842 38.7105C26.3506 39.2056 25.7622 39.5946 25.1133 39.8534C23.8543 40.3624 22.4457 40.3624 21.1867 39.8534C20.5371 39.5947 19.9478 39.2057 19.4556 38.7105C18.962 38.2239 18.5745 37.6411 18.3174 36.9985C17.8221 35.7418 17.8221 34.3451 18.3174 33.0884C18.5745 32.4459 18.962 31.8631 19.4556 31.3764ZM33.6022 29.8518C34.2998 29.8461 34.9912 29.9833 35.6333 30.2549C36.254 30.5183 36.8194 30.8956 37.3002 31.367C37.7787 31.8362 38.1612 32.3934 38.4265 33.0078C38.7009 33.6477 38.8395 34.3371 38.8336 35.0328V40.2352H36.7668V35.0399C36.7674 34.6294 36.6866 34.2228 36.5288 33.8435C36.3711 33.4643 36.1396 33.1198 35.8476 32.83C35.5583 32.5428 35.2153 32.3148 34.838 32.1589C34.4477 31.9989 34.0291 31.9182 33.6069 31.9218C33.1886 31.9173 32.7737 31.998 32.3878 32.1589C31.6375 32.4768 31.0401 33.0717 30.7209 33.8188C30.5593 34.2031 30.4783 34.6162 30.4828 35.0328V40.2352H28.3922V25.6951H30.459V30.9117C30.8957 30.571 31.3867 30.3057 31.9115 30.1268C32.4536 29.9438 33.0227 29.8532 33.595 29.8589L33.6022 29.8518Z" fill="white"/>
<path fill-rule="evenodd" clip-rule="evenodd" d="M58.2379 29.8776V35.0587C58.2411 35.7501 58.1034 36.435 57.8331 37.0718C57.2995 38.324 56.3004 39.3223 55.0448 39.858C54.3435 40.1508 53.5866 40.288 52.8267 40.2601C52.0668 40.2323 51.3221 40.04 50.6443 39.6967C49.9283 39.3311 49.3078 38.8042 48.8322 38.1578C48.3583 38.8011 47.7424 39.3276 47.0321 39.6967C46.2975 40.0786 45.4794 40.2733 44.6509 40.2635C43.9573 40.2674 43.2701 40.1302 42.6317 39.8604C41.371 39.3288 40.3675 38.3296 39.8338 37.0742C39.5616 36.4378 39.423 35.7527 39.4266 35.0611V29.8776H41.5173V35.0587C41.5163 35.8943 41.8456 36.6967 42.434 37.2924C42.7222 37.5765 43.0614 37.8042 43.4341 37.9634C43.82 38.1244 44.2349 38.2051 44.6533 38.2005C45.0687 38.2028 45.4805 38.1233 45.8651 37.9666C46.2496 37.8099 46.5992 37.5792 46.894 37.2876C47.1833 36.9994 47.4123 36.6568 47.5678 36.2799C47.7288 35.8912 47.8098 35.4743 47.806 35.054V29.8776H49.8728V35.0587C49.869 35.8948 50.1987 36.6983 50.7896 37.2924C51.0765 37.577 51.415 37.8047 51.7873 37.9634C52.174 38.1244 52.5897 38.205 53.0088 38.2005C53.4243 38.2027 53.8361 38.1228 54.2203 37.9654C54.6045 37.8081 54.9536 37.5763 55.2473 37.2837C55.5409 36.991 55.7734 36.6433 55.9311 36.2605C56.0889 35.8778 56.1688 35.4677 56.1663 35.054V29.8776H58.2379ZM64.1909 29.8563C64.8893 29.8506 65.5814 29.9878 66.2244 30.2594C67.4659 30.7907 68.4554 31.7761 68.989 33.0124C69.2626 33.6524 69.4004 34.3418 69.3938 35.0374V40.2397H64.1837C63.4876 40.2453 62.7979 40.1081 62.1573 39.8366C60.8958 39.3044 59.8915 38.3044 59.3571 37.0481C58.9494 36.0988 58.8394 35.0489 59.0417 34.0363C59.244 33.0236 59.749 32.0955 60.4905 31.3739C60.9702 30.9012 61.5359 30.5238 62.1573 30.2618C62.796 29.9925 63.483 29.8553 64.1766 29.8587L64.1909 29.8563ZM67.3197 38.1768V35.0397C67.3243 34.6231 67.2433 34.21 67.0816 33.8257C66.7618 33.079 66.1646 32.4843 65.4148 32.1658C65.0279 32.0053 64.6124 31.9246 64.1933 31.9287C63.7711 31.9251 63.3525 32.0058 62.9622 32.1658C62.5849 32.3218 62.2419 32.5497 61.9526 32.8369C61.6662 33.123 61.4374 33.461 61.2787 33.8328C61.1171 34.2171 61.036 34.6302 61.0406 35.0468C61.0383 35.4605 61.1182 35.8706 61.2755 36.2535C61.4328 36.6364 61.6645 36.9846 61.9573 37.2781C62.2467 37.5653 62.5896 37.7933 62.9669 37.9492C63.3573 38.1093 63.7759 38.1899 64.198 38.1863L67.3197 38.1768ZM76.2635 29.8516V31.9098H75.2181C74.7998 31.9052 74.3849 31.9859 73.999 32.1469C73.2487 32.4647 72.6513 33.0596 72.3321 33.8067C72.1705 34.191 72.0895 34.6041 72.094 35.0208V40.2231H69.9914V35.0397C69.9856 34.344 70.1242 33.6546 70.3986 33.0147C70.663 32.3999 71.0456 31.8425 71.5249 31.3739C72.0051 30.9017 72.5706 30.5244 73.1917 30.2618C73.8313 29.9927 74.5191 29.8555 75.2134 29.8587L76.2635 29.8516ZM85.0429 36.581L86.5073 38.0393L85.793 38.7506C85.3092 39.235 84.7341 39.6194 84.1007 39.8817C83.4673 40.1439 82.7881 40.279 82.1021 40.279C81.4161 40.279 80.7369 40.1439 80.1035 39.8817C79.4701 39.6194 78.895 39.235 78.4113 38.7506C77.9146 38.2619 77.5268 37.6746 77.2731 37.0268C77.0286 36.4041 76.9027 35.7415 76.9016 35.0729C76.9018 34.4081 77.0278 33.7493 77.2731 33.1309C77.5289 32.4877 77.9166 31.9047 78.4113 31.4189C78.9028 30.9224 79.4922 30.5324 80.1424 30.2736C81.4005 29.7646 82.8085 29.7646 84.0666 30.2736C84.7168 30.5324 85.3062 30.9224 85.7977 31.4189L86.5121 32.1303L80.7306 37.9065C81.3171 38.1994 81.9819 38.2991 82.629 38.1913C83.2761 38.0834 83.8721 37.7736 84.3309 37.3066L85.0453 36.5952L85.0429 36.581ZM79.8638 32.8582C79.3944 33.3148 79.0829 33.9082 78.9742 34.5526C78.8654 35.197 78.9652 35.8592 79.259 36.4435L80.1067 35.5993L81.314 34.3948C81.741 33.9727 82.1513 33.568 82.545 33.1807C82.9387 32.7934 83.2451 32.4931 83.4642 32.2797C82.8869 31.988 82.2327 31.8828 81.5926 31.9785C80.9331 32.0739 80.3247 32.3861 79.8638 32.8653V32.8582Z" fill="#A6CE39"/>
<path fill-rule="evenodd" clip-rule="evenodd" d="M12.4192 42.8814H11.6287V46.0161H11.2858V42.8814H10.5V42.5589H12.4192V42.8814ZM14.7195 44.8518V44.6669C14.7184 44.5061 14.6855 44.347 14.6226 44.1989C14.5596 44.0508 14.4679 43.9165 14.3528 43.8038C14.1215 43.5525 13.8014 43.4003 13.4598 43.3793C13.2757 43.3678 13.0912 43.3965 12.9193 43.4632C12.7474 43.53 12.5922 43.6332 12.4645 43.7658C12.3339 43.8905 12.23 44.0401 12.159 44.2057C12.088 44.3714 12.0514 44.5496 12.0514 44.7297C12.0514 44.9098 12.088 45.0881 12.159 45.2537C12.23 45.4194 12.3339 45.569 12.4645 45.6936C12.585 45.8183 12.7302 45.9168 12.8908 45.9829C13.0515 46.049 13.2241 46.0813 13.3979 46.0778C13.6713 46.0799 13.9385 45.997 14.1623 45.8406C14.3905 45.6785 14.5614 45.4486 14.6504 45.1838H14.2956C14.2255 45.355 14.1044 45.5007 13.9486 45.6012C13.7927 45.7017 13.6097 45.7522 13.4241 45.7458C13.1751 45.7557 12.9316 45.671 12.7431 45.5087C12.5541 45.3467 12.4355 45.118 12.4121 44.8708L14.7195 44.8518ZM14.3813 44.5365C14.3413 44.3081 14.2212 44.1013 14.0425 43.9528C13.8637 43.8043 13.6378 43.7238 13.405 43.7255C13.169 43.7201 12.9387 43.7988 12.7558 43.9475C12.5728 44.0962 12.4493 44.3051 12.4073 44.5365H14.3813ZM17.7912 45.2597L17.7555 45.3356C17.6421 45.5676 17.4627 45.7613 17.2395 45.8925C17.0164 46.0236 16.7594 46.0864 16.5006 46.073C16.139 46.0753 15.7913 45.9346 15.5338 45.6818C15.405 45.5593 15.3025 45.4121 15.2324 45.2491C15.1624 45.0861 15.1263 44.9106 15.1263 44.7333C15.1263 44.556 15.1624 44.3805 15.2324 44.2175C15.3025 44.0544 15.405 43.9073 15.5338 43.7848C15.7584 43.5617 16.0524 43.4209 16.3677 43.3856C16.6829 43.3503 17.0009 43.4225 17.2697 43.5904C17.4779 43.7122 17.644 43.8941 17.7459 44.112L17.7959 44.2235H17.3911C17.3134 44.0886 17.2058 43.9732 17.0764 43.8862C16.947 43.7991 16.7993 43.7427 16.6447 43.7211C16.4901 43.6996 16.3325 43.7136 16.1841 43.7621C16.0357 43.8105 15.9005 43.8921 15.7886 44.0006C15.6871 44.0908 15.6054 44.2011 15.5489 44.3243C15.4923 44.4476 15.4621 44.5812 15.4601 44.7167C15.4581 44.8523 15.4843 44.9867 15.5372 45.1116C15.59 45.2365 15.6684 45.3491 15.7672 45.4423C15.8617 45.5389 15.9751 45.615 16.1005 45.666C16.2259 45.717 16.3604 45.7418 16.4958 45.7387C16.6746 45.7461 16.8521 45.7062 17.0103 45.6228C17.1685 45.5395 17.3015 45.4158 17.3959 45.2644L17.7912 45.2597ZM20.3343 46.0161H19.9914V44.5222C19.9889 44.3118 19.9028 44.1108 19.752 43.9633C19.6012 43.8158 19.3979 43.7337 19.1866 43.735C18.9803 43.7338 18.7815 43.8119 18.6317 43.9532C18.5578 44.0226 18.4996 44.107 18.461 44.2006C18.4224 44.2942 18.4043 44.395 18.4079 44.4962V46.0161H18.0626V42.5494H18.4079V43.8156C18.4946 43.6956 18.6076 43.5969 18.7384 43.527C18.8693 43.4572 19.0144 43.418 19.1627 43.4125C19.3149 43.4027 19.4675 43.4256 19.6101 43.4796C19.7526 43.5336 19.8818 43.6175 19.989 43.7255C20.1013 43.8329 20.19 43.9623 20.2494 44.1056C20.3088 44.2488 20.3377 44.4028 20.3343 44.5578V46.0161ZM23.0322 46.0161H22.6893V44.5175C22.6893 44.3068 22.6052 44.1048 22.4556 43.9558C22.306 43.8068 22.1031 43.7232 21.8916 43.7232C21.68 43.7232 21.4771 43.8068 21.3275 43.9558C21.1779 44.1048 21.0939 44.3068 21.0939 44.5175V46.0161H20.751V44.5531C20.7467 44.4004 20.7734 44.2484 20.8294 44.1062C20.8855 43.964 20.9697 43.8345 21.0772 43.7255C21.2945 43.5129 21.587 43.3938 21.8916 43.3938C22.1962 43.3938 22.4886 43.5129 22.7059 43.7255C22.8134 43.8345 22.8977 43.964 22.9537 44.1062C23.0098 44.2484 23.0365 44.4004 23.0322 44.5531V46.0161ZM26.1277 44.7333C26.1289 44.9103 26.0939 45.0857 26.0247 45.2488C25.9555 45.4119 25.8536 45.5592 25.7253 45.6818C25.6028 45.8092 25.4546 45.9094 25.2904 45.9756C25.1262 46.0418 24.9498 46.0726 24.7728 46.0659C24.6015 46.0649 24.4322 46.0286 24.2756 45.9592C24.1191 45.8898 23.9786 45.7889 23.8632 45.6628C23.7421 45.5398 23.6467 45.3941 23.5825 45.2342C23.5183 45.0742 23.4867 44.9031 23.4893 44.7309C23.487 44.5513 23.5214 44.373 23.5906 44.2071C23.6598 44.0411 23.7623 43.891 23.8918 43.7658C24.0138 43.6378 24.1619 43.5372 24.3262 43.471C24.4905 43.4047 24.6671 43.3743 24.8442 43.3817C25.0164 43.3854 25.186 43.4239 25.3428 43.4948C25.4995 43.5657 25.6402 43.6676 25.7562 43.7943C25.8771 43.9174 25.9724 44.0631 26.0366 44.2231C26.1007 44.383 26.1325 44.554 26.1301 44.7262L26.1277 44.7333ZM25.7848 44.7072C25.781 44.4471 25.677 44.1984 25.4943 44.0124C25.409 43.9194 25.3048 43.8456 25.1886 43.7957C25.0724 43.7458 24.9469 43.7211 24.8204 43.7232C24.69 43.7192 24.5603 43.7427 24.4396 43.7921C24.319 43.8416 24.2102 43.9159 24.1204 44.0101C24.0252 44.1025 23.95 44.2132 23.8992 44.3355C23.8485 44.4578 23.8232 44.5891 23.8251 44.7214C23.8172 44.9841 23.9129 45.2395 24.0918 45.4328C24.1777 45.5283 24.2826 45.605 24.3998 45.658C24.5171 45.7111 24.6441 45.7393 24.7728 45.741C24.9064 45.7483 25.0399 45.7256 25.1635 45.6747C25.2871 45.6239 25.3977 45.5461 25.4872 45.447C25.5835 45.3498 25.659 45.2341 25.7089 45.1069C25.7588 44.9797 25.7822 44.8437 25.7777 44.7072H25.7848ZM26.9159 46.0161H26.573V42.5494H26.9159V46.0161ZM30.0471 44.7333C30.0479 44.9105 30.0124 45.086 29.9428 45.249C29.8732 45.4121 29.771 45.5593 29.6423 45.6818C29.5199 45.8092 29.3717 45.9094 29.2075 45.9756C29.0433 46.0418 28.8669 46.0726 28.6899 46.0659C28.5185 46.0649 28.3492 46.0286 28.1927 45.9592C28.0361 45.8898 27.8957 45.7889 27.7802 45.6628C27.6591 45.5398 27.5637 45.3941 27.4995 45.2342C27.4353 45.0742 27.4037 44.9031 27.4064 44.7309C27.4046 44.5513 27.4393 44.3732 27.5085 44.2074C27.5776 44.0415 27.6798 43.8913 27.8088 43.7658C27.9311 43.6381 28.0793 43.5378 28.2435 43.4716C28.4077 43.4054 28.5842 43.3747 28.7613 43.3817C28.9334 43.3854 29.103 43.4239 29.2598 43.4948C29.4166 43.5657 29.5572 43.6676 29.6733 43.7943C29.7945 43.9173 29.8902 44.063 29.9547 44.2229C30.0193 44.3828 30.0515 44.5538 30.0495 44.7262L30.0471 44.7333ZM29.7019 44.7072C29.6992 44.4468 29.5951 44.1977 29.4114 44.0124C29.3264 43.9196 29.2226 43.8458 29.1068 43.796C28.9911 43.7461 28.866 43.7213 28.7399 43.7232C28.6071 43.7171 28.4746 43.7397 28.3513 43.7892C28.2281 43.8387 28.1169 43.914 28.0255 44.0101C27.9308 44.1028 27.8559 44.2136 27.8051 44.3358C27.7544 44.458 27.7289 44.5892 27.7302 44.7214C27.7219 44.9847 27.8187 45.2404 27.9993 45.4328C28.0832 45.5296 28.1865 45.6078 28.3025 45.6626C28.4186 45.7173 28.5448 45.7472 28.6732 45.7505C28.8087 45.7596 28.9445 45.7378 29.0703 45.6869C29.1962 45.6359 29.3087 45.5572 29.3994 45.4565C29.4958 45.3593 29.5712 45.2436 29.6212 45.1164C29.6711 44.9892 29.6945 44.8532 29.6899 44.7167L29.7019 44.7072ZM33.1355 44.7072V45.8928C33.137 46.0487 33.1016 46.2027 33.0321 46.3424C32.9625 46.482 32.8609 46.6034 32.7355 46.6966C32.4932 46.8885 32.1938 46.9948 31.8843 46.9986C31.5748 47.0025 31.2728 46.9038 31.0258 46.718C30.8188 46.5547 30.6702 46.3294 30.6019 46.0754H30.9353C30.9945 46.2621 31.1153 46.4234 31.2782 46.533C31.4468 46.656 31.6502 46.7224 31.8592 46.7227C32.1041 46.7224 32.3395 46.6281 32.5164 46.4595C32.604 46.3823 32.6739 46.2874 32.7216 46.181C32.7692 46.0747 32.7934 45.9594 32.7926 45.843V45.6059C32.6751 45.744 32.5293 45.8556 32.3651 45.9333C32.2009 46.0109 32.0219 46.0529 31.8402 46.0564C31.663 46.064 31.4863 46.0337 31.322 45.9674C31.1577 45.9011 31.0096 45.8005 30.8877 45.6723C30.6354 45.4223 30.4912 45.084 30.4859 44.7296C30.4805 44.3752 30.6145 44.0328 30.8591 43.7753C31.0447 43.5882 31.282 43.4604 31.5409 43.4083C31.7997 43.3561 32.0683 43.3819 32.3123 43.4824C32.5563 43.5829 32.7647 43.7536 32.9109 43.9726C33.0572 44.1916 33.1345 44.449 33.1331 44.7119L33.1355 44.7072ZM32.7926 44.7309C32.7989 44.5948 32.7765 44.4588 32.7269 44.3318C32.6773 44.2048 32.6015 44.0896 32.5045 43.9935C32.4137 43.8926 32.3013 43.8134 32.1755 43.7617C32.0498 43.71 31.914 43.6871 31.7782 43.6947C31.6496 43.6992 31.5234 43.7301 31.4074 43.7856C31.2914 43.8411 31.1882 43.92 31.1044 44.0172C30.9244 44.2101 30.8271 44.4653 30.8329 44.7285C30.832 44.8609 30.858 44.9922 30.9091 45.1144C30.9602 45.2366 31.0355 45.3473 31.1306 45.4399C31.2209 45.533 31.3294 45.6067 31.4494 45.6564C31.5693 45.7062 31.6983 45.7309 31.8283 45.7292C31.9551 45.731 32.0808 45.7062 32.1973 45.6563C32.3139 45.6065 32.4185 45.5327 32.5045 45.4399C32.6871 45.2541 32.7904 45.0051 32.7926 44.7451V44.7309ZM33.9356 43.1422H33.5927V42.5447H33.9356V43.1564V43.1422ZM33.9356 46.0114H33.5927V43.4528H33.9356V46.0161V46.0114ZM37.0716 44.8471H34.7738C34.7953 45.0943 34.9133 45.3233 35.1024 45.485C35.2919 45.6472 35.5361 45.7319 35.7858 45.7221C35.9712 45.7278 36.154 45.6771 36.3097 45.5766C36.4654 45.4762 36.5867 45.3309 36.6573 45.1601H37.0216C36.9335 45.4214 36.7657 45.6489 36.5416 45.8108C36.3175 45.9728 36.0483 46.0611 35.7715 46.0635C35.5973 46.0671 35.4243 46.0349 35.2633 45.9688C35.1023 45.9027 34.9567 45.8042 34.8357 45.6794C34.7054 45.5546 34.6017 45.4049 34.531 45.2393C34.4601 45.0737 34.4237 44.8955 34.4237 44.7155C34.4237 44.5355 34.4601 44.3573 34.531 44.1917C34.6017 44.0261 34.7054 43.8764 34.8357 43.7516C34.9634 43.619 35.1186 43.5157 35.2905 43.449C35.4624 43.3822 35.6469 43.3536 35.831 43.3651C36.1726 43.3861 36.4927 43.5383 36.724 43.7896C36.8391 43.9023 36.9308 44.0366 36.9938 44.1847C37.0567 44.3328 37.0896 44.4918 37.0907 44.6527V44.8376L37.0716 44.8471ZM36.7335 44.5317C36.691 44.304 36.5707 44.0979 36.393 43.9484C36.2585 43.8361 36.0968 43.7608 35.924 43.7301C35.7512 43.6994 35.5733 43.7143 35.4081 43.7733C35.2429 43.8323 35.0961 43.9333 34.9823 44.0664C34.8685 44.1995 34.7917 44.3599 34.7595 44.5317H36.7335ZM38.9694 45.2431C38.9791 45.355 38.9626 45.4676 38.9213 45.572C38.88 45.6765 38.8149 45.7701 38.7313 45.8454C38.6505 45.9272 38.553 45.9907 38.4453 46.0316C38.3377 46.0725 38.2224 46.0899 38.1074 46.0825C38.0038 46.0769 37.9022 46.051 37.8087 46.0062C37.7151 45.9615 37.6313 45.8988 37.5621 45.8217C37.4182 45.6681 37.3396 45.465 37.3431 45.255H37.7002V45.3427C37.7047 45.3952 37.7198 45.4463 37.7448 45.4928C37.7698 45.5393 37.8041 45.5802 37.8455 45.613C37.8842 45.6561 37.9315 45.6906 37.9844 45.7142C38.0373 45.7379 38.0947 45.7503 38.1527 45.7505C38.2158 45.7521 38.2786 45.7412 38.3375 45.7184C38.3964 45.6956 38.4501 45.6614 38.4956 45.6177C38.573 45.5348 38.6149 45.4251 38.6122 45.3119C38.6128 45.2047 38.5754 45.1007 38.5066 45.0183C38.4378 44.9359 38.3419 44.8803 38.236 44.8613L37.936 44.7665C37.7919 44.731 37.6642 44.6479 37.5738 44.5307C37.4834 44.4136 37.4356 44.2693 37.4383 44.1215C37.4322 44.0273 37.4472 43.9329 37.4822 43.8451C37.5172 43.7574 37.5714 43.6785 37.6407 43.6141C37.7768 43.4716 37.9626 43.3867 38.1598 43.377C38.3387 43.3699 38.5138 43.43 38.6503 43.5453C38.7201 43.5996 38.7775 43.668 38.8186 43.7461C38.8596 43.8242 38.8835 43.9102 38.8885 43.9982V44.0741H38.5265V44.0148C38.5271 43.9715 38.517 43.9288 38.4971 43.8903C38.4772 43.8518 38.448 43.8189 38.4122 43.7943C38.3355 43.7387 38.2427 43.7096 38.1479 43.7113C38.0533 43.7119 37.9627 43.7493 37.8955 43.8156C37.8624 43.846 37.8357 43.8826 37.8169 43.9233C37.7981 43.964 37.7876 44.008 37.786 44.0528C37.7749 44.2361 37.8844 44.3665 38.1146 44.444L38.4122 44.5436C38.5659 44.5829 38.7028 44.6706 38.8024 44.7937C38.9019 44.9167 38.9588 45.0686 38.9647 45.2265L38.9694 45.2431ZM42.0054 46.009H41.6792V42.547H42.0221V46.009H42.0054ZM44.7605 46.009H44.4176V44.5104C44.4188 44.3535 44.3729 44.1999 44.2858 44.0692C44.1987 43.9385 44.0744 43.8367 43.9288 43.7768C43.7832 43.7169 43.623 43.7017 43.4687 43.7332C43.3144 43.7646 43.173 43.8412 43.0627 43.9532C42.9865 44.0246 42.9259 44.111 42.885 44.2069C42.844 44.3028 42.8234 44.4062 42.8246 44.5104V46.009H42.4793V44.546C42.475 44.3933 42.5016 44.2413 42.5577 44.0991C42.6138 43.9569 42.698 43.8274 42.8055 43.7184C43.0232 43.5057 43.316 43.3865 43.6211 43.3865C43.9261 43.3865 44.2189 43.5057 44.4366 43.7184C44.5438 43.8275 44.6277 43.9571 44.6833 44.0993C44.739 44.2415 44.7652 44.3934 44.7605 44.546V46.009ZM46.1582 46.0612C45.532 46.0612 45.2057 45.7979 45.2057 45.2668V42.5542H45.5486V43.4481H46.1463V43.7682H45.5486V45.2146C45.5486 45.5964 45.7486 45.7861 46.1463 45.7861V46.0683L46.1582 46.0612ZM48.8442 44.8447H46.5321C46.5554 45.092 46.674 45.3206 46.863 45.4826C47.0516 45.6449 47.295 45.7297 47.5441 45.7197C47.7296 45.7261 47.9127 45.6756 48.0685 45.5751C48.2244 45.4746 48.3455 45.329 48.4156 45.1577H48.7823C48.6932 45.4225 48.5224 45.6524 48.2941 45.8146C48.071 45.9705 47.8047 46.0534 47.5321 46.0517C47.358 46.0553 47.185 46.023 47.024 45.9569C46.8629 45.8908 46.7173 45.7923 46.5963 45.6675C46.4664 45.5481 46.3626 45.4033 46.2913 45.2422C46.22 45.081 46.1828 44.907 46.182 44.7309C46.1753 44.5464 46.2081 44.3625 46.2783 44.1916C46.3485 44.0207 46.4545 43.8667 46.5892 43.7398C46.717 43.6073 46.8723 43.5041 47.0441 43.4374C47.216 43.3706 47.4004 43.3419 47.5845 43.3533C47.9268 43.3744 48.2476 43.5265 48.4799 43.7777C48.711 44.0062 48.8419 44.3165 48.8442 44.6408V44.8258V44.8447ZM48.5061 44.5294C48.4661 44.3014 48.3464 44.0949 48.1681 43.9464C47.9898 43.798 47.7645 43.7172 47.5321 43.7184C47.296 43.7122 47.0653 43.7904 46.8821 43.9389C46.6992 44.0886 46.5753 44.2976 46.5321 44.5294H48.5061ZM50.261 43.7374C50.1201 43.7376 49.983 43.7833 49.8705 43.8678C49.7925 43.9273 49.7242 43.9985 49.6681 44.0788C49.6057 44.2013 49.5762 44.3377 49.5823 44.4748V46.009H49.2276V43.4528H49.549V43.8156C49.6197 43.6785 49.7322 43.5672 49.8705 43.4979C49.9916 43.4302 50.1293 43.3974 50.2681 43.403V43.7445L50.261 43.7374ZM52.6684 46.009H52.3255V44.5104C52.3218 44.3015 52.2368 44.1022 52.0885 43.9544C51.9401 43.8067 51.7399 43.7221 51.5302 43.7184C51.4253 43.7181 51.3214 43.7389 51.2248 43.7797C51.1282 43.8204 51.0409 43.8803 50.9682 43.9555C50.8924 44.0273 50.8322 44.1138 50.7913 44.2096C50.7503 44.3055 50.7295 44.4086 50.7301 44.5128V46.0114H50.3943V44.5483C50.3916 44.3959 50.4197 44.2445 50.477 44.1032C50.5343 43.9618 50.6195 43.8334 50.7277 43.7255C50.945 43.5129 51.2374 43.3938 51.5421 43.3938C51.8467 43.3938 52.1391 43.5129 52.3564 43.7255C52.4639 43.8345 52.5482 43.964 52.6042 44.1062C52.6603 44.2484 52.6869 44.4004 52.6826 44.5531V46.0161L52.6684 46.009ZM55.7639 44.7214V46.009H55.421V45.6083C55.3037 45.7473 55.1581 45.86 54.9938 45.9389C54.8295 46.0178 54.6502 46.061 54.4679 46.0657C54.2856 46.0704 54.1043 46.0365 53.9361 45.9662C53.7679 45.8959 53.6166 45.7909 53.4922 45.6581C53.3711 45.5351 53.2757 45.3894 53.2115 45.2294C53.1474 45.0695 53.1157 44.8984 53.1184 44.7262C53.116 44.5465 53.1505 44.3683 53.2197 44.2023C53.2889 44.0364 53.3913 43.8862 53.5208 43.7611C53.643 43.6336 53.7913 43.5338 53.9557 43.4683C54.12 43.4029 54.2965 43.3733 54.4733 43.3817C54.6468 43.3856 54.8177 43.4242 54.976 43.495C55.1343 43.5659 55.2767 43.6677 55.3948 43.7943C55.5162 43.9154 55.6109 44.0605 55.6728 44.2201C55.7347 44.3798 55.7625 44.5505 55.7544 44.7214H55.7639ZM55.421 44.6977C55.4199 44.4371 55.3155 44.1874 55.1305 44.003C55.0448 43.9106 54.9404 43.8373 54.8243 43.7879C54.7082 43.7385 54.5829 43.714 54.4566 43.716C54.3264 43.7137 54.1971 43.7379 54.0767 43.7873C53.9563 43.8366 53.8474 43.91 53.7566 44.003C53.661 44.095 53.5854 44.2057 53.5346 44.3281C53.4838 44.4504 53.4589 44.5819 53.4613 44.7143C53.4567 44.8447 53.4781 44.9747 53.5243 45.0968C53.5704 45.219 53.6405 45.3307 53.7304 45.4257C53.8144 45.5227 53.9176 45.6014 54.0336 45.6568C54.1495 45.7123 54.2757 45.7434 54.4042 45.7482C54.5399 45.756 54.6755 45.7335 54.8012 45.6822C54.9269 45.6309 55.0395 45.5522 55.1305 45.4518C55.2273 45.3549 55.3031 45.2392 55.353 45.1119C55.403 44.9847 55.4261 44.8485 55.421 44.7119V44.6977ZM57.1617 46.0612C56.5354 46.0612 56.2211 45.7979 56.2211 45.2668V42.5542H56.564V43.4481H57.1617V43.7682H56.564V45.2146C56.564 45.5964 56.764 45.7861 57.1617 45.7861V46.0683V46.0612ZM57.9117 43.1564H57.5688V42.5589H57.9117V43.1564ZM57.9117 46.0256H57.5688V43.4528H57.9117V46.0161V46.0256ZM61.0287 44.7428C61.0299 44.9198 60.9948 45.0952 60.9257 45.2583C60.8565 45.4214 60.7546 45.5687 60.6263 45.6912C60.5037 45.8186 60.3555 45.9186 60.1913 45.9849C60.0272 46.0511 59.8508 46.0819 59.6738 46.0754C59.5024 46.0744 59.3332 46.0381 59.1766 45.9687C59.02 45.8993 58.8796 45.7984 58.7642 45.6723C58.6431 45.5493 58.5476 45.4036 58.4835 45.2437C58.4193 45.0837 58.3876 44.9126 58.3903 44.7404C58.388 44.5607 58.4224 44.3825 58.4916 44.2165C58.5608 44.0506 58.6633 43.9005 58.7928 43.7753C58.9147 43.6473 59.0629 43.5467 59.2272 43.4804C59.3915 43.4142 59.5681 43.3837 59.7452 43.3912C59.9174 43.3949 60.087 43.4334 60.2437 43.5043C60.4005 43.5752 60.5412 43.6771 60.6572 43.8038C60.7781 43.9269 60.8734 44.0726 60.9376 44.2326C61.0017 44.3925 61.0335 44.5635 61.0311 44.7357L61.0287 44.7428ZM60.6858 44.7167C60.682 44.4566 60.578 44.2079 60.3953 44.0219C60.31 43.9289 60.2058 43.855 60.0896 43.8052C59.9734 43.7553 59.8479 43.7306 59.7214 43.7326C59.591 43.7287 59.4613 43.7522 59.3406 43.8016C59.22 43.8511 59.1112 43.9253 59.0214 44.0196C58.9262 44.112 58.851 44.2227 58.8002 44.345C58.7494 44.4673 58.7242 44.5986 58.7261 44.7309C58.7182 44.9936 58.8139 45.249 58.9928 45.4423C59.0773 45.5389 59.1811 45.617 59.2975 45.6717C59.4139 45.7264 59.5404 45.7565 59.669 45.76C59.8026 45.7673 59.9361 45.7446 60.0597 45.6937C60.1833 45.6428 60.2939 45.565 60.3834 45.466C60.4797 45.3688 60.5552 45.2531 60.6051 45.1259C60.6551 44.9987 60.6785 44.8627 60.6739 44.7262L60.6858 44.7167ZM63.7456 46.0256H63.4003V44.527C63.4015 44.4228 63.3809 44.3194 63.3399 44.2235C63.2989 44.1276 63.2384 44.0412 63.1622 43.9698C63.0908 43.8948 63.0047 43.8351 62.9093 43.7943C62.8139 43.7536 62.7112 43.7326 62.6074 43.7326C62.3968 43.7351 62.1954 43.8192 62.0461 43.967C61.8967 44.1149 61.811 44.3149 61.8073 44.5246V46.0232H61.4644V44.5602C61.4597 44.4076 61.4859 44.2557 61.5416 44.1135C61.5972 43.9713 61.6811 43.8418 61.7883 43.7326C62.006 43.5199 62.2988 43.4007 62.6038 43.4007C62.9089 43.4007 63.2017 43.5199 63.4194 43.7326C63.5269 43.8416 63.6111 43.9711 63.6672 44.1133C63.7232 44.2555 63.7499 44.4075 63.7456 44.5602V46.0232V46.0256ZM66.8412 44.738V46.0256H66.4983V45.6249C66.3807 45.764 66.2349 45.8767 66.0704 45.9556C65.9059 46.0345 65.7265 46.0777 65.5439 46.0824C65.3614 46.0871 65.18 46.0532 65.0116 45.9829C64.8432 45.9126 64.6917 45.8076 64.5671 45.6746C64.4467 45.5513 64.352 45.4054 64.2882 45.2455C64.2245 45.0856 64.193 44.9148 64.1957 44.7428C64.1934 44.5633 64.2277 44.3853 64.2964 44.2194C64.3652 44.0536 64.467 43.9033 64.5957 43.7777C64.7181 43.6505 64.8664 43.5508 65.0307 43.4854C65.195 43.4199 65.3714 43.3903 65.5482 43.3983C65.7218 43.4017 65.8929 43.44 66.0513 43.5109C66.2096 43.5818 66.3519 43.6838 66.4697 43.8109C66.5915 43.9318 66.6866 44.0768 66.7489 44.2364C66.8112 44.3961 66.8394 44.5669 66.8316 44.738H66.8412ZM66.4983 44.7143C66.498 44.4502 66.3927 44.197 66.2054 44.0101C66.1195 43.918 66.0151 43.8449 65.899 43.7954C65.7829 43.746 65.6577 43.7214 65.5315 43.7232C65.4009 43.7205 65.2712 43.7445 65.1503 43.7939C65.0295 43.8433 64.9201 43.9168 64.8291 44.0101C64.7338 44.1022 64.6586 44.213 64.6082 44.3354C64.5578 44.4578 64.5333 44.5892 64.5362 44.7214C64.531 44.8519 64.5522 44.9821 64.5984 45.1042C64.6446 45.2264 64.7149 45.3381 64.8052 45.4328C64.8918 45.5287 64.9975 45.6057 65.1156 45.6588C65.2336 45.7118 65.3615 45.7399 65.491 45.741C65.6267 45.7491 65.7624 45.7267 65.8881 45.6753C66.0138 45.624 66.1263 45.5452 66.2173 45.4446C66.3145 45.348 66.3907 45.2324 66.4411 45.1051C66.4915 44.9778 66.515 44.8416 66.5102 44.7048L66.4983 44.7143ZM67.6412 46.0256H67.3007V42.5494H67.6341V46.0161L67.6412 46.0256ZM72.2845 46.0256H71.2868C71.0501 46.0351 70.8184 45.9565 70.6368 45.8051C70.55 45.7244 70.4823 45.6256 70.4387 45.5156C70.395 45.4057 70.3765 45.2875 70.3843 45.1696V42.5613H70.7296V45.2194C70.7332 45.287 70.7501 45.3533 70.7796 45.4143C70.809 45.4754 70.8503 45.53 70.9011 45.5751C71.0114 45.658 71.1493 45.6962 71.2868 45.6818H72.2869V46.0161L72.2845 46.0256ZM73.437 46.0778C72.8108 46.0778 72.4988 45.8145 72.4988 45.2834V42.5542H72.8417V43.4481H73.437V43.7682H72.8417V45.2146C72.8417 45.5964 73.0394 45.7861 73.437 45.7861V46.0683V46.0778ZM75.9944 44.757V42.5755H75.6515V43.8678C75.5349 43.7282 75.3895 43.6153 75.2251 43.5368C75.0608 43.4582 74.8813 43.4158 74.6991 43.4125C74.522 43.4052 74.3454 43.4357 74.1811 43.502C74.0168 43.5682 73.8687 43.6687 73.7466 43.7967C73.6177 43.9221 73.5157 44.0723 73.4469 44.2383C73.3782 44.4042 73.344 44.5823 73.3465 44.7617C73.344 44.9334 73.3755 45.1039 73.4392 45.2634C73.503 45.4229 73.5977 45.5683 73.718 45.6912C73.903 45.8794 74.1402 46.0082 74.3992 46.0611C74.6582 46.114 74.9272 46.0886 75.1716 45.9882C75.416 45.8878 75.6247 45.7169 75.7709 45.4976C75.9171 45.2782 75.9941 45.0203 75.992 44.757H75.9944ZM75.6515 44.7309C75.6577 44.8674 75.6353 45.0037 75.5857 45.131C75.5361 45.2584 75.4604 45.3741 75.3634 45.4707C75.2727 45.5714 75.1601 45.6502 75.0343 45.7011C74.9085 45.752 74.7727 45.7738 74.6371 45.7648C74.5086 45.7613 74.3822 45.731 74.2661 45.6759C74.15 45.6208 74.0469 45.542 73.9633 45.4446C73.7831 45.2518 73.6857 44.9966 73.6918 44.7333C73.6902 44.601 73.7156 44.4698 73.7663 44.3475C73.8171 44.2253 73.8922 44.1145 73.9871 44.0219C74.0779 43.929 74.1869 43.8556 74.3073 43.8062C74.4277 43.7569 74.557 43.7326 74.6871 43.735C74.814 43.7332 74.9397 43.758 75.0562 43.8079C75.1728 43.8577 75.2774 43.9315 75.3634 44.0243C75.5469 44.2107 75.6509 44.4605 75.6539 44.7214L75.6515 44.7309Z" fill="white"/>
<path fill-rule="evenodd" clip-rule="evenodd" d="M55.3852 0.58178C57.2667 0.56603 59.1312 0.937367 60.8619 1.67253C64.2186 3.09635 66.8926 5.75737 68.3245 9.0991C69.0628 10.8225 69.4357 12.6792 69.4199 14.5528V28.5974H55.3852C53.5127 28.6076 51.6578 28.2364 49.9347 27.5066C46.5342 26.0717 43.829 23.3737 42.3934 19.9852C41.6598 18.2695 41.2862 16.4224 41.2957 14.5576C41.2807 12.6838 41.6544 10.8271 42.3934 9.10384C43.1065 7.44353 44.1387 5.93804 45.4318 4.67208C46.7295 3.39856 48.2573 2.38083 49.9347 1.67253C51.6578 0.942751 53.5127 0.571566 55.3852 0.58178ZM63.8431 23.0441V14.5576C63.8513 13.4328 63.6276 12.3183 63.1859 11.283C62.3247 9.25862 60.7065 7.64722 58.6736 6.78956C57.6339 6.34974 56.5147 6.127 55.3852 6.13511C53.711 6.12318 52.0708 6.6059 50.6721 7.5222C49.2735 8.43851 48.179 9.74727 47.5273 11.283C47.0837 12.3178 46.8592 13.4325 46.8677 14.5576C46.862 15.6736 47.0786 16.7797 47.5048 17.8119C47.9311 18.8441 48.5586 19.7819 49.3511 20.571C50.1436 21.3602 51.0854 21.9851 52.1219 22.4096C53.1584 22.8341 54.2692 23.0497 55.3899 23.0441H63.8431Z" fill="white"/>
<path fill-rule="evenodd" clip-rule="evenodd" d="M55.3733 5.90264C56.5413 5.89288 57.6988 6.12293 58.7736 6.57843C60.8512 7.46577 62.5068 9.1144 63.3979 11.1833C63.8553 12.2536 64.0863 13.4062 64.0765 14.5693V23.2764H55.3733C54.2116 23.2818 53.061 23.051 51.992 22.5982C49.8814 21.7107 48.2018 20.0382 47.3106 17.9364C46.6282 16.3482 46.443 14.592 46.779 12.8972C47.115 11.2025 47.9568 9.64818 49.1941 8.43745C50.0014 7.64848 50.9505 7.01783 51.992 6.57843C53.0612 6.12638 54.2117 5.89642 55.3733 5.90264ZM60.6119 19.831V14.5693C60.6168 13.8714 60.4782 13.1798 60.2047 12.5372C59.6671 11.2844 58.6649 10.2864 57.4068 9.75108C56.7615 9.47869 56.067 9.3407 55.3661 9.34561C54.3275 9.33818 53.31 9.63738 52.442 10.2054C51.5741 10.7735 50.8946 11.5849 50.4895 12.5372C50.2159 13.1798 50.0774 13.8714 50.0823 14.5693C50.0782 15.2615 50.212 15.9475 50.4761 16.5877C50.7402 17.228 51.1293 17.8096 51.6207 18.299C52.1122 18.7884 52.6963 19.1759 53.3392 19.4388C53.9822 19.7018 54.6711 19.8351 55.3661 19.831H60.6119Z" fill="#A6CE39"/>
<path fill-rule="evenodd" clip-rule="evenodd" d="M54.4614 12.4232C54.0342 12.5826 53.6641 12.8645 53.3977 13.2333C53.1314 13.6021 52.9808 14.0413 52.965 14.4953C52.9492 14.9493 53.0689 15.3977 53.309 15.784C53.549 16.1703 53.8987 16.477 54.3138 16.6655C54.7289 16.8539 55.1907 16.9156 55.641 16.8428C56.0913 16.7699 56.5098 16.5658 56.8436 16.2562C57.1774 15.9466 57.4116 15.5454 57.5165 15.1033C57.6214 14.6612 57.5924 14.1981 57.4331 13.7724C57.2186 13.2012 56.7851 12.7381 56.2278 12.4851C55.6705 12.2321 55.0351 12.2098 54.4614 12.4232Z" fill="url(#paint0_radial_669_617)"/>
<path fill-rule="evenodd" clip-rule="evenodd" d="M71.1272 0.0955831C70.9868 0.14764 70.8651 0.239969 70.7775 0.360896C70.6899 0.481823 70.6402 0.625915 70.6348 0.774952C70.6294 0.923989 70.6685 1.07128 70.7471 1.19819C70.8258 1.3251 70.9404 1.42594 71.0766 1.48795C71.2128 1.54997 71.3644 1.57037 71.5123 1.54658C71.6601 1.52278 71.7976 1.45587 71.9072 1.3543C72.0169 1.25272 72.0938 1.12105 72.1283 0.975924C72.1628 0.830802 72.1534 0.67875 72.1011 0.538996C72.0305 0.351988 71.8884 0.200397 71.7059 0.117321C71.5235 0.0342443 71.3154 0.0264297 71.1272 0.0955831Z" fill="url(#paint1_radial_669_617)"/>
<path fill-rule="evenodd" clip-rule="evenodd" d="M68.2293 0.0387256C68.1168 0.0804714 68.0192 0.154507 67.949 0.251472C67.8787 0.348437 67.8388 0.463976 67.8345 0.58348C67.8302 0.702985 67.8615 0.821087 67.9246 0.922855C67.9876 1.02462 68.0796 1.10549 68.1888 1.15522C68.298 1.20495 68.4196 1.22132 68.5381 1.20226C68.6567 1.1832 68.7669 1.12956 68.8548 1.04812C68.9427 0.966689 69.0045 0.861118 69.0322 0.744758C69.0598 0.628397 69.0523 0.506474 69.0104 0.394404C68.9828 0.319784 68.9407 0.251335 68.8864 0.193007C68.8322 0.134678 68.7669 0.0876239 68.6943 0.054558C68.6216 0.0214922 68.5432 0.00306926 68.4634 0.000351898C68.3836 -0.00236547 68.304 0.0106765 68.2293 0.0387256Z" fill="url(#paint2_radial_669_617)"/>
<path fill-rule="evenodd" clip-rule="evenodd" d="M72.5821 2.43124C72.4003 2.49877 72.2427 2.61846 72.1293 2.77519C72.0158 2.93192 71.9515 3.11864 71.9446 3.31174C71.9377 3.50484 71.9884 3.69564 72.0904 3.86002C72.1924 4.0244 72.341 4.15498 72.5175 4.23523C72.694 4.31549 72.8905 4.34182 73.082 4.3109C73.2735 4.27998 73.4516 4.19319 73.5936 4.06151C73.7356 3.92984 73.8352 3.75918 73.8798 3.57114C73.9244 3.38309 73.912 3.1861 73.8442 3.00506C73.7532 2.76232 73.5692 2.5655 73.3325 2.45789C73.0958 2.35027 72.8259 2.34069 72.5821 2.43124Z" fill="url(#paint3_radial_669_617)"/>
<path fill-rule="evenodd" clip-rule="evenodd" d="M70.5843 5.39039C70.3381 5.48205 70.1248 5.64435 69.9712 5.85676C69.8177 6.06918 69.7309 6.32216 69.7218 6.58372C69.7126 6.84527 69.7816 7.10365 69.9199 7.32617C70.0583 7.5487 70.2598 7.72537 70.4989 7.83384C70.7381 7.94231 71.0042 7.97772 71.2636 7.93557C71.523 7.89342 71.764 7.77562 71.9562 7.59707C72.1483 7.41851 72.283 7.18722 72.3431 6.93245C72.4032 6.67768 72.3861 6.41087 72.294 6.16577C72.2331 6.0029 72.1405 5.8536 72.0215 5.72644C71.9026 5.59927 71.7596 5.49673 71.6008 5.42469C71.4419 5.35266 71.2704 5.31255 71.096 5.30667C70.9215 5.30078 70.7477 5.32923 70.5843 5.39039Z" fill="url(#paint4_radial_669_617)"/>
<path fill-rule="evenodd" clip-rule="evenodd" d="M66.6053 8.47063C66.3324 8.57317 66.0961 8.75392 65.9263 8.99006C65.7564 9.2262 65.6606 9.50715 65.651 9.79746C65.6413 10.0878 65.7182 10.3744 65.872 10.6212C66.0258 10.868 66.2496 11.064 66.5151 11.1842C66.7806 11.3045 67.0759 11.3438 67.3638 11.2971C67.6517 11.2504 67.9192 11.1199 68.1327 10.9219C68.3461 10.7239 68.4959 10.4674 68.5631 10.1848C68.6303 9.90214 68.6119 9.606 68.5102 9.33374C68.4425 9.15223 68.3394 8.98584 68.2068 8.84413C68.0743 8.70242 67.9149 8.58818 67.7379 8.50798C67.5609 8.42778 67.3697 8.38319 67.1753 8.37678C66.981 8.37037 66.7873 8.40227 66.6053 8.47063Z" fill="url(#paint5_radial_669_617)"/>
<path fill-rule="evenodd" clip-rule="evenodd" d="M61.8073 11.1168C61.5188 11.2235 61.2687 11.4131 61.0885 11.6615C60.9083 11.9099 60.8062 12.2059 60.7951 12.5121C60.784 12.8183 60.8643 13.121 61.026 13.3817C61.1876 13.6424 61.4233 13.8495 61.7033 13.9767C61.9832 14.104 62.2947 14.1457 62.5984 14.0965C62.9022 14.0473 63.1844 13.9095 63.4094 13.7006C63.6345 13.4916 63.7922 13.2208 63.8626 12.9226C63.933 12.6243 63.913 12.3119 63.8051 12.025C63.6606 11.641 63.3692 11.3298 62.9947 11.1596C62.6202 10.9894 62.1931 10.974 61.8073 11.1168Z" fill="url(#paint6_radial_669_617)"/>
<path fill-rule="evenodd" clip-rule="evenodd" d="M47.0821 15.326C46.7767 15.4394 46.5119 15.6405 46.3213 15.9038C46.1307 16.1671 46.0227 16.4808 46.0112 16.8052C45.9996 17.1296 46.0849 17.4501 46.2563 17.7262C46.4277 18.0023 46.6775 18.2215 46.974 18.3563C47.2706 18.491 47.6006 18.5351 47.9223 18.483C48.2441 18.4309 48.5431 18.285 48.7815 18.0636C49.0199 17.8423 49.1871 17.5555 49.2618 17.2396C49.3365 16.9236 49.3155 16.5927 49.2013 16.2887C49.0473 15.8821 48.738 15.5527 48.341 15.3723C47.9439 15.1919 47.4914 15.1753 47.0821 15.326Z" fill="url(#paint7_radial_669_617)"/>
<path fill-rule="evenodd" clip-rule="evenodd" d="M42.084 15.7575C41.8296 15.8525 41.6092 16.0205 41.4507 16.2402C41.2921 16.4599 41.2026 16.7215 41.1933 16.9919C41.184 17.2623 41.2555 17.5294 41.3987 17.7594C41.5418 17.9893 41.7502 18.1719 41.9975 18.2839C42.2448 18.3959 42.52 18.4324 42.7881 18.3888C43.0562 18.3451 43.3054 18.2233 43.504 18.0387C43.7026 17.8541 43.8418 17.6149 43.9039 17.3516C43.9661 17.0882 43.9485 16.8123 43.8532 16.5589C43.7902 16.3904 43.6944 16.2359 43.5713 16.1044C43.4482 15.9728 43.3002 15.8667 43.1358 15.7923C42.9714 15.7178 42.7939 15.6764 42.6134 15.6704C42.4329 15.6645 42.253 15.694 42.084 15.7575Z" fill="url(#paint8_radial_669_617)"/>
<path fill-rule="evenodd" clip-rule="evenodd" d="M37.1287 14.4651C36.874 14.5597 36.6532 14.7274 36.4943 14.9471C36.3354 15.1667 36.2455 15.4283 36.236 15.6988C36.2264 15.9694 36.2977 16.2366 36.4407 16.4668C36.5837 16.697 36.7921 16.8798 37.0395 16.992C37.2869 17.1042 37.5621 17.1408 37.8304 17.0972C38.0987 17.0536 38.3479 16.9317 38.5466 16.747C38.7453 16.5623 38.8846 16.323 38.9467 16.0595C39.0088 15.7959 38.991 15.52 38.8955 15.2665C38.7672 14.9275 38.5093 14.6529 38.1782 14.5027C37.8471 14.3525 37.4698 14.339 37.1287 14.4651Z" fill="url(#paint9_radial_669_617)"/>
<path fill-rule="evenodd" clip-rule="evenodd" d="M34.5356 12.1152C34.3453 12.1857 34.1803 12.3108 34.0614 12.4748C33.9425 12.6387 33.8752 12.8341 33.8679 13.0361C33.8605 13.2382 33.9136 13.4379 34.0202 13.6099C34.1269 13.782 34.2824 13.9186 34.4671 14.0026C34.6518 14.0866 34.8574 14.1142 35.0579 14.0818C35.2583 14.0494 35.4446 13.9586 35.5931 13.8207C35.7417 13.6829 35.8458 13.5042 35.8924 13.3074C35.939 13.1106 35.9259 12.9045 35.8548 12.7151C35.7595 12.4615 35.5671 12.2559 35.3198 12.1434C35.0725 12.0309 34.7904 12.0208 34.5356 12.1152Z" fill="url(#paint10_radial_669_617)"/>
<path fill-rule="evenodd" clip-rule="evenodd" d="M36.9168 9.40033C36.7584 9.45849 36.6209 9.56218 36.5218 9.69825C36.4226 9.83432 36.3663 9.99663 36.3599 10.1646C36.3535 10.3326 36.3973 10.4987 36.4858 10.6419C36.5743 10.785 36.7035 10.8988 36.8571 10.9687C37.0106 11.0387 37.1815 11.0616 37.3481 11.0347C37.5148 11.0078 37.6696 10.9323 37.7931 10.8176C37.9166 10.703 38.0031 10.5544 38.0416 10.3907C38.0802 10.227 38.0691 10.0557 38.0097 9.89828C37.9305 9.68835 37.7712 9.51815 37.5664 9.42486C37.3616 9.33156 37.1281 9.32274 36.9168 9.40033Z" fill="url(#paint11_radial_669_617)"/>
<path fill-rule="evenodd" clip-rule="evenodd" d="M39.9052 7.76636C39.7934 7.80776 39.6965 7.88127 39.6267 7.97756C39.557 8.07386 39.5174 8.18861 39.5132 8.30728C39.509 8.42595 39.5402 8.54321 39.6029 8.6442C39.6656 8.74519 39.7571 8.82537 39.8656 8.87459C39.9741 8.9238 40.0949 8.93983 40.2125 8.92066C40.3302 8.90148 40.4396 8.84795 40.5267 8.76686C40.6138 8.68577 40.6748 8.58075 40.7019 8.46512C40.729 8.34948 40.7211 8.22843 40.6791 8.11729C40.6515 8.04355 40.6097 7.97595 40.5558 7.91837C40.502 7.86079 40.4372 7.81436 40.3653 7.78176C40.2934 7.74915 40.2158 7.73101 40.1368 7.72836C40.0578 7.72572 39.9791 7.73863 39.9052 7.76636Z" fill="url(#paint12_radial_669_617)"/>
<defs>
<radialGradient id="paint0_radial_669_617" cx="0" cy="0" r="1" gradientUnits="userSpaceOnUse" gradientTransform="translate(54.6923 14.351) scale(2.30975 2.30005)">
<stop stop-color="#299CD7"/>
<stop offset="0.13" stop-color="#2788C9"/>
<stop offset="0.36" stop-color="#2368B2"/>
<stop offset="0.59" stop-color="#2151A2"/>
<stop offset="0.81" stop-color="#204498"/>
<stop offset="1" stop-color="#1F3F95"/>
</radialGradient>
<radialGradient id="paint1_radial_669_617" cx="0" cy="0" r="1" gradientUnits="userSpaceOnUse" gradientTransform="translate(71.201 0.728691) scale(0.757217 0.754039)">
<stop stop-color="#299CD7"/>
<stop offset="0.13" stop-color="#2788C9"/>
<stop offset="0.36" stop-color="#2368B2"/>
<stop offset="0.59" stop-color="#2151A2"/>
<stop offset="0.81" stop-color="#204498"/>
<stop offset="1" stop-color="#1F3F95"/>
</radialGradient>
<radialGradient id="paint2_radial_669_617" cx="0" cy="0" r="1" gradientUnits="userSpaceOnUse" gradientTransform="translate(68.2889 0.54616) scale(0.607203 0.604654)">
<stop stop-color="#299CD7"/>
<stop offset="0.13" stop-color="#2788C9"/>
<stop offset="0.36" stop-color="#2368B2"/>
<stop offset="0.59" stop-color="#2151A2"/>
<stop offset="0.81" stop-color="#204498"/>
<stop offset="1" stop-color="#1F3F95"/>
</radialGradient>
<radialGradient id="paint3_radial_669_617" cx="0" cy="0" r="1" gradientUnits="userSpaceOnUse" gradientTransform="translate(72.6798 3.25167) scale(0.981047 0.97693)">
<stop stop-color="#299CD7"/>
<stop offset="0.13" stop-color="#2788C9"/>
<stop offset="0.36" stop-color="#2368B2"/>
<stop offset="0.59" stop-color="#2151A2"/>
<stop offset="0.81" stop-color="#204498"/>
<stop offset="1" stop-color="#1F3F95"/>
</radialGradient>
<radialGradient id="paint4_radial_669_617" cx="0" cy="0" r="1" gradientUnits="userSpaceOnUse" gradientTransform="translate(70.7176 6.50011) scale(1.3287 1.32312)">
<stop stop-color="#299CD7"/>
<stop offset="0.13" stop-color="#2788C9"/>
<stop offset="0.36" stop-color="#2368B2"/>
<stop offset="0.59" stop-color="#2151A2"/>
<stop offset="0.81" stop-color="#204498"/>
<stop offset="1" stop-color="#1F3F95"/>
</radialGradient>
<radialGradient id="paint5_radial_669_617" cx="0" cy="0" r="1" gradientUnits="userSpaceOnUse" gradientTransform="translate(66.7529 9.70365) scale(1.47633 1.47014)">
<stop stop-color="#299CD7"/>
<stop offset="0.13" stop-color="#2788C9"/>
<stop offset="0.36" stop-color="#2368B2"/>
<stop offset="0.59" stop-color="#2151A2"/>
<stop offset="0.81" stop-color="#204498"/>
<stop offset="1" stop-color="#1F3F95"/>
</radialGradient>
<radialGradient id="paint6_radial_669_617" cx="0" cy="0" r="1" gradientUnits="userSpaceOnUse" gradientTransform="translate(61.962 12.4138) scale(1.55491 1.54839)">
<stop stop-color="#299CD7"/>
<stop offset="0.13" stop-color="#2788C9"/>
<stop offset="0.36" stop-color="#2368B2"/>
<stop offset="0.59" stop-color="#2151A2"/>
<stop offset="0.81" stop-color="#204498"/>
<stop offset="1" stop-color="#1F3F95"/>
</radialGradient>
<radialGradient id="paint7_radial_669_617" cx="0" cy="0" r="1" gradientUnits="userSpaceOnUse" gradientTransform="translate(47.2464 16.7013) scale(1.64778 1.64086)">
<stop stop-color="#299CD7"/>
<stop offset="0.13" stop-color="#2788C9"/>
<stop offset="0.36" stop-color="#2368B2"/>
<stop offset="0.59" stop-color="#2151A2"/>
<stop offset="0.81" stop-color="#204498"/>
<stop offset="1" stop-color="#1F3F95"/>
</radialGradient>
<radialGradient id="paint8_radial_669_617" cx="0" cy="0" r="1" gradientUnits="userSpaceOnUse" gradientTransform="translate(42.2221 16.9028) scale(1.37394 1.36818)">
<stop stop-color="#299CD7"/>
<stop offset="0.13" stop-color="#2788C9"/>
<stop offset="0.36" stop-color="#2368B2"/>
<stop offset="0.59" stop-color="#2151A2"/>
<stop offset="0.81" stop-color="#204498"/>
<stop offset="1" stop-color="#1F3F95"/>
</radialGradient>
<radialGradient id="paint9_radial_669_617" cx="0" cy="0" r="1" gradientUnits="userSpaceOnUse" gradientTransform="translate(37.2644 15.608) scale(1.37394 1.36818)">
<stop stop-color="#299CD7"/>
<stop offset="0.13" stop-color="#2788C9"/>
<stop offset="0.36" stop-color="#2368B2"/>
<stop offset="0.59" stop-color="#2151A2"/>
<stop offset="0.81" stop-color="#204498"/>
<stop offset="1" stop-color="#1F3F95"/>
</radialGradient>
<radialGradient id="paint10_radial_669_617" cx="0" cy="0" r="1" gradientUnits="userSpaceOnUse" gradientTransform="translate(34.6285 12.9712) scale(1.02629 1.02198)">
<stop stop-color="#299CD7"/>
<stop offset="0.13" stop-color="#2788C9"/>
<stop offset="0.36" stop-color="#2368B2"/>
<stop offset="0.59" stop-color="#2151A2"/>
<stop offset="0.81" stop-color="#204498"/>
<stop offset="1" stop-color="#1F3F95"/>
</radialGradient>
<radialGradient id="paint11_radial_669_617" cx="0" cy="0" r="1" gradientUnits="userSpaceOnUse" gradientTransform="translate(36.9882 10.1117) scale(0.850083 0.846515)">
<stop stop-color="#299CD7"/>
<stop offset="0.13" stop-color="#2788C9"/>
<stop offset="0.36" stop-color="#2368B2"/>
<stop offset="0.59" stop-color="#2151A2"/>
<stop offset="0.81" stop-color="#204498"/>
<stop offset="1" stop-color="#1F3F95"/>
</radialGradient>
<radialGradient id="paint12_radial_669_617" cx="0" cy="0" r="1" gradientUnits="userSpaceOnUse" gradientTransform="translate(39.9647 8.26905) scale(0.60244 0.599911)">
<stop stop-color="#299CD7"/>
<stop offset="0.13" stop-color="#2788C9"/>
<stop offset="0.36" stop-color="#2368B2"/>
<stop offset="0.59" stop-color="#2151A2"/>
<stop offset="0.81" stop-color="#204498"/>
<stop offset="1" stop-color="#1F3F95"/>
</radialGradient>
</defs>
</svg>
