<svg width="269" height="200" viewBox="0 0 269 200" fill="none" xmlns="http://www.w3.org/2000/svg">
<path d="M268.377 175.76H0V175.894H268.377V175.76Z" fill="#F6FFDF"/>
<path d="M69.9766 180.87H28.1581V181.004H69.9766V180.87Z" fill="#F6FFDF"/>
<path d="M241.486 184.955H221.143V185.089H241.486V184.955Z" fill="#F6FFDF"/>
<path d="M80.8137 185.857H70.5134V185.991H80.8137V185.857Z" fill="#F6FFDF"/>
<path d="M131.698 179.416H108.516V179.55H131.698V179.416Z" fill="#F6FFDF"/>
<path d="M139.873 179.416H136.475V179.55H139.873V179.416Z" fill="#F6FFDF"/>
<path d="M199.077 182.684H175.878V182.819H199.077V182.684Z" fill="#F6FFDF"/>
<path d="M127.211 151.821H23.5689C22.757 151.82 21.9788 151.496 21.4052 150.921C20.8316 150.347 20.5094 149.568 20.5094 148.756V3.06487C20.5094 2.25294 20.8316 1.47419 21.4052 0.899574C21.9788 0.324954 22.757 0.00142193 23.5689 0L127.211 0C128.024 0 128.803 0.322905 129.378 0.897679C129.953 1.47245 130.276 2.25201 130.276 3.06487V148.756C130.276 149.159 130.196 149.557 130.042 149.929C129.888 150.301 129.663 150.639 129.378 150.923C129.093 151.208 128.756 151.434 128.384 151.588C128.012 151.742 127.613 151.821 127.211 151.821ZM23.5689 0.134189C22.7926 0.13561 22.0485 0.445005 21.5001 0.99446C20.9516 1.54391 20.6436 2.28853 20.6436 3.06487V148.756C20.6436 149.532 20.9516 150.277 21.5001 150.827C22.0485 151.376 22.7926 151.685 23.5689 151.687H127.211C127.988 151.685 128.732 151.376 129.282 150.827C129.831 150.278 130.14 149.533 130.141 148.756V3.06487C130.14 2.28804 129.831 1.54343 129.282 0.994132C128.732 0.44483 127.988 0.135607 127.211 0.134189H23.5689Z" fill="#F6FFDF"/>
<path d="M243.316 151.821H139.669C138.856 151.82 138.078 151.496 137.503 150.922C136.929 150.347 136.605 149.569 136.604 148.756V3.06487C136.605 2.25245 136.929 1.47371 137.503 0.899246C138.078 0.324779 138.856 0.00141907 139.669 0L243.316 0C244.127 0.00284062 244.904 0.326999 245.476 0.901465C246.049 1.47593 246.37 2.25387 246.37 3.06487V148.756C246.37 149.567 246.049 150.345 245.476 150.919C244.904 151.494 244.127 151.818 243.316 151.821ZM139.669 0.134189C138.892 0.135607 138.147 0.44483 137.598 0.994132C137.049 1.54343 136.74 2.28804 136.738 3.06487V148.756C136.74 149.533 137.049 150.278 137.598 150.827C138.147 151.376 138.892 151.685 139.669 151.687H243.316C244.093 151.685 244.838 151.376 245.387 150.827C245.936 150.278 246.245 149.533 246.247 148.756V3.06487C246.245 2.28804 245.936 1.54343 245.387 0.994132C244.838 0.44483 244.093 0.135607 243.316 0.134189H139.669Z" fill="#F6FFDF"/>
<path d="M71.3187 163.49H44.9426C44.3738 163.489 43.8243 163.284 43.3946 162.911C42.9648 162.539 42.6836 162.024 42.6024 161.461L36.0003 116.336C35.9509 115.999 35.9747 115.656 36.0699 115.33C36.1652 115.003 36.3298 114.701 36.5524 114.444C36.775 114.186 37.0504 113.98 37.3599 113.839C37.6694 113.698 38.0057 113.625 38.3459 113.625H64.7166C65.2849 113.625 65.8344 113.829 66.2642 114.201C66.6941 114.572 66.9755 115.087 67.0569 115.649L73.659 160.774C73.7091 161.11 73.6861 161.454 73.5915 161.781C73.497 162.108 73.3331 162.41 73.1109 162.668C72.8888 162.926 72.6138 163.133 72.3045 163.274C71.9952 163.416 71.659 163.49 71.3187 163.49Z" fill="#C7E083"/>
<path d="M48.0824 163.49H35.6459C35.0768 163.49 34.5267 163.285 34.0967 162.913C33.6667 162.54 33.3858 162.024 33.3056 161.461L26.7035 116.336C26.6542 116 26.6779 115.657 26.7728 115.331C26.8678 115.005 27.0318 114.703 27.2538 114.446C27.4759 114.188 27.7506 113.982 28.0595 113.841C28.3683 113.699 28.704 113.626 29.0438 113.625H41.4804C42.0493 113.625 42.5994 113.829 43.0302 114.2C43.4609 114.572 43.7434 115.086 43.826 115.649L50.4227 160.774C50.4729 161.11 50.4499 161.454 50.3553 161.781C50.2607 162.108 50.0968 162.41 49.8747 162.668C49.6526 162.926 49.3775 163.133 49.0682 163.274C48.7589 163.416 48.4227 163.49 48.0824 163.49Z" fill="#FAFAFA"/>
<path d="M205.48 102.187H77.2927C74.0346 102.187 71.1737 104.63 70.8946 107.641L67.6741 142.482C67.395 145.493 69.8211 147.935 73.0416 147.935H201.219C204.477 147.935 207.338 145.493 207.617 142.482L210.837 107.641C211.148 104.63 208.738 102.187 205.48 102.187Z" fill="#E0E0E0"/>
<path d="M196.779 102.187H68.6025C65.3444 102.187 62.4835 104.63 62.2044 107.641L58.9839 142.482C58.7048 145.493 61.1309 147.935 64.3514 147.935H192.528C195.786 147.935 198.653 145.493 198.926 142.482L202.147 107.641C202.448 104.63 200.038 102.187 196.779 102.187Z" fill="#F6FFDF"/>
<path d="M108.419 159.631V147.221C108.419 145.09 106.691 143.362 104.56 143.362H56.2786C54.1472 143.362 52.4194 145.09 52.4194 147.221V159.631C52.4194 161.762 54.1472 163.49 56.2786 163.49H104.56C106.691 163.49 108.419 161.762 108.419 159.631Z" fill="#C7E083"/>
<path d="M185.642 159.958V146.894C185.642 144.943 184.061 143.362 182.11 143.362H125.762C123.811 143.362 122.23 144.943 122.23 146.894V159.958C122.23 161.909 123.811 163.49 125.762 163.49H182.11C184.061 163.49 185.642 161.909 185.642 159.958Z" fill="#E0E0E0"/>
<path d="M171.837 159.953V146.888C171.837 144.938 170.255 143.356 168.305 143.356H111.956C110.006 143.356 108.424 144.938 108.424 146.888V159.953C108.424 161.903 110.006 163.485 111.956 163.485H168.305C170.255 163.485 171.837 161.903 171.837 159.953Z" fill="#C7E083"/>
<path d="M205.131 163.49H185.513C185.183 163.497 184.855 163.424 184.559 163.278C184.262 163.131 184.005 162.916 183.809 162.65C183.613 162.384 183.484 162.075 183.432 161.748C183.38 161.422 183.407 161.088 183.511 160.774L195.856 115.649C196.018 115.078 196.357 114.574 196.826 114.21C197.294 113.846 197.867 113.641 198.46 113.626H218.078C218.408 113.619 218.734 113.692 219.03 113.838C219.326 113.984 219.583 114.198 219.778 114.464C219.974 114.73 220.103 115.038 220.154 115.364C220.206 115.69 220.179 116.023 220.075 116.336L207.729 161.461C207.57 162.033 207.232 162.538 206.764 162.903C206.297 163.268 205.724 163.474 205.131 163.49Z" fill="#F6FFDF"/>
<path d="M188.648 163.49H176.211C175.881 163.497 175.554 163.424 175.257 163.278C174.961 163.132 174.704 162.917 174.508 162.65C174.312 162.384 174.183 162.075 174.132 161.748C174.081 161.422 174.109 161.087 174.214 160.774L186.56 115.649C186.72 115.078 187.06 114.573 187.528 114.209C187.997 113.845 188.57 113.64 189.163 113.626H201.605C201.935 113.618 202.262 113.69 202.559 113.836C202.856 113.981 203.113 114.196 203.309 114.462C203.505 114.727 203.635 115.036 203.687 115.363C203.739 115.689 203.711 116.023 203.607 116.336L191.262 161.461C191.1 162.034 190.759 162.541 190.289 162.906C189.818 163.271 189.243 163.476 188.648 163.49Z" fill="#FAFAFA"/>
<path d="M178.245 175.76H176.356L171.831 163.485H176.512L178.245 175.76Z" fill="#E0E0E0"/>
<path d="M202.195 175.76H200.306L195.781 163.485H200.456L202.195 175.76Z" fill="#E0E0E0"/>
<path d="M66.0582 175.76H67.9476L72.4671 163.485H67.7919L66.0582 175.76Z" fill="#E0E0E0"/>
<path d="M42.1084 175.76H43.9978L48.5172 163.485H43.8475L42.1084 175.76Z" fill="#E0E0E0"/>
<path d="M205.754 22.9247H62.623V73.9754H205.754V22.9247Z" fill="#E0E0E0"/>
<path d="M204.439 22.9247H61.308V73.9754H204.439V22.9247Z" fill="#F6FFDF"/>
<path d="M200.15 69.6815V27.2189L65.6076 27.2189V69.6815H200.15Z" fill="#FAFAFA"/>
<path d="M132.879 61.1847C139.91 61.1847 145.611 55.4845 145.611 48.4529C145.611 41.4213 139.91 35.7211 132.879 35.7211C125.847 35.7211 120.147 41.4213 120.147 48.4529C120.147 55.4845 125.847 61.1847 132.879 61.1847Z" fill="#F6FFDF"/>
<path d="M87.4427 69.6815L96.3636 27.2189H116.041L107.126 69.6815H87.4427Z" fill="white"/>
<path d="M115.429 69.6815L124.35 27.2189H134.189L125.273 69.6815H115.429Z" fill="white"/>
<path d="M175.513 69.6815L184.434 27.2189H194.273L185.357 69.6815H175.513Z" fill="white"/>
<path d="M237.396 105.639C234.057 120.131 242.226 135.058 238.882 149.534L235.576 149.395L232.27 149.255C237.814 134.876 231.878 120.018 237.396 105.639Z" fill="#F6FFDF"/>
<path d="M228.834 111.913C231.572 125.751 222.791 139.588 225.528 153.426H232.146C227.203 139.588 233.778 125.751 228.834 111.913Z" fill="#F6FFDF"/>
<path d="M234.948 100.411C230.568 115.166 238.705 131.092 234.325 145.847L230.729 145.509L227.133 145.176C233.912 130.641 228.169 114.941 234.948 100.411Z" fill="#F6FFDF"/>
<path d="M241.395 121.655C242.806 129.637 234.954 135.912 236.344 143.888L239.027 144.382L241.711 144.87C238.491 136.566 244.583 129.964 241.395 121.655Z" fill="#F6FFDF"/>
<path d="M233.499 179.786C243.474 179.786 251.561 170.731 251.561 159.561C251.561 148.391 251.561 144 233.499 144C215.437 144 215.437 148.391 215.437 159.561C215.437 170.731 223.524 179.786 233.499 179.786Z" fill="#E0E0E0"/>
<path d="M134.188 200C191.665 200 238.26 197.28 238.26 193.924C238.26 190.568 191.665 187.848 134.188 187.848C76.7115 187.848 30.1172 190.568 30.1172 193.924C30.1172 197.28 76.7115 200 134.188 200Z" fill="#F6FFDF"/>
<path d="M206.006 117.893H90.0136C89.721 117.893 89.4313 117.834 89.1624 117.718C88.8936 117.603 88.6511 117.433 88.4501 117.221C88.249 117.008 88.0935 116.757 87.9932 116.482C87.8928 116.207 87.8498 115.914 87.8666 115.622L91.7849 44.5075C91.8266 43.8969 92.0966 43.3244 92.5411 42.9037C92.9857 42.4831 93.5722 42.2451 94.1842 42.2371H210.177C210.469 42.2366 210.759 42.2959 211.028 42.4115C211.297 42.527 211.539 42.6963 211.74 42.9089C211.941 43.1215 212.097 43.373 212.197 43.6479C212.298 43.9229 212.341 44.2154 212.324 44.5075L208.416 115.622C208.377 116.235 208.106 116.811 207.659 117.232C207.211 117.654 206.621 117.89 206.006 117.893Z" fill="#263238"/>
<path d="M157.21 54.3303H145.997C145.118 54.3411 144.247 54.1701 143.437 53.828C142.628 53.486 141.898 52.9803 141.293 52.3427C140.688 51.7051 140.222 50.9494 139.923 50.123C139.624 49.2966 139.499 48.4174 139.556 47.5404L139.669 45.4685C139.789 43.6999 140.57 42.041 141.857 40.8218C143.143 39.6025 144.842 38.9122 146.614 38.8879H157.822C158.701 38.8787 159.572 39.051 160.381 39.3939C161.19 39.7368 161.92 40.243 162.524 40.8808C163.129 41.5187 163.595 42.2744 163.895 43.1007C164.194 43.927 164.319 44.8062 164.263 45.6832L164.161 47.7712C164.035 49.5365 163.25 51.1901 161.963 52.4048C160.676 53.6194 158.98 54.3066 157.21 54.3303Z" fill="#263238"/>
<path d="M167.419 191.68H163.828L153.936 40.4767H157.532L167.419 191.68Z" fill="#263238"/>
<path d="M140.453 191.68H144.049L153.936 40.4767H150.345L140.453 191.68Z" fill="#263238"/>
<path d="M205.389 117.893H89.3965C89.1039 117.893 88.8142 117.834 88.5454 117.718C88.2765 117.603 88.0341 117.433 87.833 117.221C87.6319 117.008 87.4764 116.757 87.3761 116.482C87.2758 116.207 87.2327 115.914 87.2495 115.622L91.1517 44.5075C91.1935 43.8969 91.4634 43.3244 91.908 42.9037C92.3525 42.4831 92.939 42.2451 93.551 42.2371H209.544C209.836 42.2366 210.126 42.2959 210.395 42.4115C210.664 42.527 210.906 42.6963 211.107 42.9089C211.308 43.1215 211.464 43.373 211.564 43.6479C211.664 43.9229 211.707 44.2154 211.691 44.5075L207.783 115.622C207.744 116.233 207.475 116.806 207.031 117.227C206.588 117.648 206.001 117.886 205.389 117.893Z" fill="#1F3F95"/>
<path opacity="0.4" d="M91.2482 115.714C91.0136 115.716 90.781 115.67 90.5649 115.579C90.3489 115.487 90.1541 115.352 89.9928 115.182C89.8315 115.012 89.7071 114.81 89.6276 114.589C89.5481 114.368 89.515 114.133 89.5306 113.899L93.2503 46.2307C93.2813 45.7425 93.4953 45.2841 93.8495 44.9468C94.2037 44.6095 94.6721 44.4182 95.1611 44.4111H207.724C207.959 44.4091 208.191 44.4556 208.408 44.5477C208.624 44.6398 208.818 44.7754 208.98 44.9462C209.141 45.117 209.265 45.3193 209.345 45.5403C209.424 45.7613 209.457 45.9963 209.442 46.2307L205.7 113.899C205.668 114.387 205.453 114.845 205.097 115.182C204.742 115.518 204.273 115.708 203.784 115.714H91.2482Z" fill="#263238"/>
<path opacity="0.1" d="M204.503 79.8477H170.607C170.408 79.8496 170.21 79.8103 170.026 79.7322C169.842 79.654 169.677 79.5388 169.54 79.3936C169.403 79.2485 169.297 79.0766 169.23 78.8887C169.162 78.7009 169.134 78.5011 169.147 78.3019L170.838 47.5029C170.84 47.4748 170.837 47.4465 170.827 47.4199C170.818 47.3933 170.804 47.3688 170.784 47.3482C170.765 47.3275 170.742 47.311 170.716 47.2998C170.69 47.2885 170.662 47.2827 170.634 47.2828C170.575 47.2828 170.518 47.3056 170.475 47.3466C170.432 47.3876 170.406 47.4436 170.403 47.5029L168.713 78.3019C168.686 78.7141 168.506 79.1015 168.208 79.3876C167.91 79.6737 167.515 79.8378 167.102 79.8477H131.881C131.681 79.8496 131.483 79.8103 131.299 79.7322C131.116 79.654 130.95 79.5388 130.813 79.3936C130.676 79.2485 130.57 79.0766 130.503 78.8887C130.435 78.7009 130.407 78.5011 130.421 78.3019L132.111 47.5029C132.114 47.4748 132.11 47.4465 132.101 47.4199C132.091 47.3933 132.077 47.3688 132.058 47.3482C132.038 47.3275 132.015 47.311 131.989 47.2998C131.963 47.2885 131.936 47.2827 131.907 47.2828C131.848 47.2828 131.791 47.3056 131.748 47.3466C131.705 47.3876 131.679 47.4436 131.677 47.5029L129.986 78.3019C129.959 78.7141 129.779 79.1015 129.481 79.3876C129.183 79.6737 128.789 79.8378 128.376 79.8477H94.4687C94.4102 79.8476 94.3538 79.8697 94.311 79.9095C94.2681 79.9494 94.242 80.004 94.2379 80.0624C94.2357 80.0905 94.2393 80.1188 94.2486 80.1454C94.2578 80.1721 94.2725 80.1965 94.2917 80.2172C94.3108 80.2379 94.3341 80.2543 94.3599 80.2656C94.3858 80.2768 94.4137 80.2826 94.4419 80.2825H128.322C128.521 80.2806 128.718 80.3198 128.902 80.3976C129.085 80.4754 129.25 80.5902 129.387 80.7348C129.524 80.8793 129.63 81.0505 129.698 81.2378C129.766 81.425 129.794 81.6242 129.782 81.823L128.091 112.627C128.089 112.655 128.092 112.683 128.102 112.71C128.111 112.736 128.126 112.76 128.145 112.78C128.164 112.801 128.188 112.817 128.213 112.827C128.239 112.838 128.267 112.843 128.295 112.842C128.353 112.841 128.409 112.818 128.451 112.779C128.494 112.739 128.521 112.685 128.526 112.627L130.217 81.823C130.243 81.4112 130.424 81.0245 130.722 80.7393C131.02 80.454 131.414 80.291 131.827 80.2825H167.033C167.232 80.2798 167.43 80.3185 167.613 80.396C167.797 80.4735 167.963 80.5883 168.1 80.733C168.237 80.8777 168.343 81.0493 168.41 81.2369C168.478 81.4245 168.506 81.624 168.493 81.823L166.802 112.627C166.799 112.655 166.803 112.683 166.812 112.71C166.822 112.736 166.836 112.76 166.856 112.78C166.875 112.801 166.898 112.817 166.924 112.827C166.95 112.838 166.978 112.843 167.006 112.842C167.064 112.841 167.12 112.818 167.162 112.779C167.205 112.739 167.231 112.685 167.237 112.627L168.927 81.823C168.954 81.4112 169.134 81.0245 169.433 80.7393C169.731 80.454 170.125 80.291 170.538 80.2825H204.417C204.476 80.2813 204.533 80.258 204.576 80.2173C204.618 80.1766 204.644 80.1213 204.648 80.0624C204.653 80.0154 204.641 79.9683 204.614 79.9291C204.588 79.89 204.549 79.8612 204.503 79.8477Z" fill="white"/>
<path opacity="0.4" d="M149.244 52.8651H135.638L134.875 66.708L148.466 67.0676L149.244 52.8651Z" fill="#263238"/>
<path d="M147.774 66.477L134.113 65.8061C134.866 61.131 135.341 56.4154 135.536 51.6841L149.271 52.3497C149.051 57.0842 148.551 61.8016 147.774 66.477Z" fill="white"/>
<path opacity="0.4" d="M165.653 62.1134L152.025 63.1493L152.325 76.9493L165.959 76.273L165.653 62.1134Z" fill="#263238"/>
<path d="M165.218 75.7361L151.488 76.1172C151.883 71.4191 151.998 66.7016 151.832 61.9899L165.637 61.598C165.778 66.3149 165.639 71.0359 165.218 75.7361Z" fill="#BEDB6F"/>
<path opacity="0.4" d="M125.858 87.2816L100.738 86.3208L98.4783 108.671L123.545 110.217L125.858 87.2816Z" fill="#263238"/>
<path d="M122.294 109.203L97.1526 107.163C98.8231 99.6635 99.9887 92.0603 100.641 84.4047L125.96 86.4497C125.253 94.1081 124.029 101.71 122.294 109.203Z" fill="white"/>
<g style="mix-blend-mode:multiply" opacity="0.3">
<g style="mix-blend-mode:multiply">
<path d="M100.003 55.9942C99.8197 55.9953 99.6385 55.9588 99.4702 55.887C99.3019 55.8152 99.1502 55.7096 99.0244 55.5767C98.8986 55.4439 98.8014 55.2866 98.7389 55.1147C98.6763 54.9428 98.6497 54.7598 98.6608 54.5772C98.6824 54.1926 98.8489 53.8304 99.1267 53.5635C99.4045 53.2967 99.7731 53.1449 100.158 53.1387C100.341 53.1376 100.522 53.1741 100.69 53.246C100.858 53.3178 101.009 53.4235 101.135 53.5565C101.26 53.6894 101.357 53.8467 101.419 54.0186C101.481 54.1906 101.507 54.3734 101.495 54.5557C101.474 54.9399 101.309 55.302 101.032 55.569C100.755 55.836 100.387 55.988 100.003 55.9942Z" fill="#263238"/>
</g>
<g style="mix-blend-mode:multiply" opacity="0.8">
<path d="M122.197 55.9942H104.769C104.586 55.9953 104.405 55.9588 104.237 55.887C104.069 55.8151 103.918 55.7094 103.792 55.5765C103.667 55.4435 103.57 55.2862 103.508 55.1143C103.447 54.9424 103.421 54.7595 103.432 54.5772C103.452 54.1926 103.616 53.8297 103.894 53.5625C104.171 53.2952 104.54 53.1437 104.925 53.1387H122.38C122.563 53.1376 122.744 53.1741 122.912 53.2459C123.081 53.3178 123.232 53.4234 123.358 53.5562C123.484 53.6891 123.581 53.8463 123.644 54.0182C123.706 54.1902 123.733 54.3731 123.722 54.5557C123.7 54.9449 123.53 55.311 123.246 55.5785C122.962 55.8461 122.587 55.9948 122.197 55.9942Z" fill="#263238"/>
</g>
<g style="mix-blend-mode:multiply">
<path d="M99.6646 62.1671C99.4817 62.1697 99.3002 62.1344 99.1316 62.0635C98.963 61.9925 98.8109 61.8875 98.6848 61.7549C98.5588 61.6223 98.4615 61.465 98.3992 61.293C98.3369 61.121 98.3109 60.938 98.3227 60.7554C98.3484 60.3742 98.5167 60.0166 98.7943 59.754C99.0719 59.4913 99.4382 59.3429 99.8203 59.3384C100.003 59.3373 100.184 59.3738 100.352 59.4457C100.52 59.5175 100.671 59.6232 100.797 59.7562C100.922 59.8891 101.019 60.0464 101.081 60.2183C101.143 60.3903 101.169 60.5731 101.157 60.7554C101.131 61.1353 100.963 61.4915 100.687 61.7531C100.41 62.0147 100.045 62.1626 99.6646 62.1671Z" fill="#263238"/>
</g>
<g style="mix-blend-mode:multiply" opacity="0.8">
<path d="M124.946 62.1671H104.431C104.248 62.1689 104.067 62.1331 103.899 62.0619C103.731 61.9906 103.579 61.8856 103.453 61.7531C103.327 61.6207 103.23 61.4638 103.167 61.2921C103.105 61.1205 103.078 60.9378 103.089 60.7554C103.116 60.3746 103.285 60.0177 103.562 59.7554C103.839 59.493 104.205 59.3442 104.587 59.3384H125.101C125.284 59.3373 125.466 59.3738 125.634 59.4457C125.802 59.5175 125.954 59.6231 126.08 59.7559C126.205 59.8888 126.303 60.046 126.365 60.2179C126.428 60.3899 126.454 60.5728 126.443 60.7554C126.416 61.1357 126.247 61.492 125.97 61.7535C125.693 62.015 125.327 62.1627 124.946 62.1671Z" fill="#263238"/>
</g>
<g style="mix-blend-mode:multiply">
<path d="M99.2995 68.3451C99.1168 68.3462 98.9358 68.3097 98.7678 68.2378C98.5998 68.1659 98.4484 68.0602 98.323 67.9273C98.1976 67.7944 98.1009 67.637 98.039 67.4651C97.9771 67.2932 97.9512 67.1104 97.963 66.928C97.9885 66.5477 98.1561 66.1909 98.4326 65.9284C98.709 65.6659 99.074 65.5169 99.4552 65.511C99.6381 65.5099 99.8193 65.5464 99.9876 65.6183C100.156 65.6901 100.308 65.7957 100.433 65.9285C100.559 66.0614 100.656 66.2186 100.719 66.3905C100.781 66.5625 100.808 66.7454 100.797 66.928C100.77 67.3089 100.601 67.6657 100.324 67.9281C100.047 68.1905 99.6812 68.3393 99.2995 68.3451Z" fill="#263238"/>
</g>
<g style="mix-blend-mode:multiply" opacity="0.8">
<path d="M114.076 68.3451H104.087C103.905 68.3462 103.724 68.3097 103.556 68.2378C103.388 68.1659 103.236 68.0602 103.111 67.9273C102.985 67.7944 102.889 67.637 102.827 67.4651C102.765 67.2932 102.739 67.1104 102.751 66.928C102.776 66.5477 102.944 66.1909 103.22 65.9284C103.497 65.6659 103.862 65.5169 104.243 65.511H114.232C114.415 65.5099 114.596 65.5464 114.764 65.6183C114.932 65.6902 115.083 65.7959 115.209 65.9288C115.334 66.0617 115.431 66.219 115.492 66.391C115.554 66.5629 115.58 66.7457 115.569 66.928C115.543 67.3084 115.375 67.6652 115.099 67.9277C114.823 68.1902 114.457 68.3392 114.076 68.3451Z" fill="#263238"/>
</g>
<g style="mix-blend-mode:multiply" opacity="0.8">
<path d="M123.325 74.5231H113.336C113.153 74.5242 112.972 74.4877 112.804 74.4158C112.636 74.3439 112.484 74.2382 112.359 74.1053C112.234 73.9723 112.137 73.815 112.075 73.6431C112.013 73.4712 111.987 73.2884 111.999 73.106C112.025 72.7257 112.192 72.3688 112.469 72.1063C112.745 71.8438 113.11 71.6949 113.491 71.689H123.48C123.663 71.6879 123.844 71.7244 124.012 71.7963C124.18 71.8681 124.331 71.9738 124.457 72.1068C124.582 72.2397 124.679 72.397 124.741 72.5689C124.803 72.7408 124.829 72.9237 124.817 73.106C124.791 73.4864 124.624 73.8432 124.347 74.1057C124.071 74.3682 123.706 74.5172 123.325 74.5231Z" fill="#263238"/>
</g>
<g style="mix-blend-mode:multiply">
<path d="M98.9829 74.5231C98.8001 74.5242 98.6191 74.4877 98.4511 74.4158C98.2831 74.3439 98.1317 74.2382 98.0063 74.1053C97.881 73.9723 97.7843 73.815 97.7224 73.6431C97.6604 73.4712 97.6345 73.2884 97.6463 73.106C97.6719 72.7257 97.8395 72.3688 98.1159 72.1063C98.3923 71.8438 98.7573 71.6949 99.1385 71.689C99.3212 71.6879 99.5022 71.7244 99.6702 71.7963C99.8382 71.8681 99.9896 71.9738 100.115 72.1068C100.24 72.2397 100.337 72.397 100.399 72.5689C100.461 72.7408 100.487 72.9237 100.475 73.106C100.449 73.4864 100.282 73.8432 100.005 74.1057C99.729 74.3682 99.364 74.5172 98.9829 74.5231Z" fill="#263238"/>
</g>
<g style="mix-blend-mode:multiply" opacity="0.8">
<path d="M108.36 74.5231H103.749C103.567 74.5242 103.386 74.4877 103.218 74.4158C103.05 74.344 102.898 74.2383 102.773 74.1053C102.647 73.9724 102.551 73.8151 102.489 73.6432C102.427 73.4712 102.401 73.2884 102.413 73.1061C102.438 72.7257 102.606 72.3689 102.882 72.1064C103.159 71.8439 103.524 71.6949 103.905 71.689H108.516C108.699 71.6872 108.88 71.7231 109.049 71.7947C109.218 71.8662 109.37 71.9718 109.496 72.1048C109.622 72.2378 109.719 72.3954 109.781 72.5677C109.843 72.74 109.869 72.9233 109.858 73.1061C109.832 73.4873 109.664 73.8449 109.386 74.1075C109.108 74.3702 108.742 74.5186 108.36 74.5231Z" fill="#263238"/>
</g>
</g>
<path d="M142.315 92.9015H135.557L134.629 109.815H141.386L142.315 92.9015Z" fill="#BEDB6F"/>
<path d="M152.572 96.385H145.809L145.074 109.815H151.831L152.572 96.385Z" fill="#BEDB6F"/>
<path d="M163.506 87.3782H156.748L155.519 109.815H162.277L163.506 87.3782Z" fill="#BEDB6F"/>
<path d="M137.065 102.445C136.394 102.445 135.718 102.445 135.036 102.391C133.634 102.368 132.247 102.086 130.946 101.559C130.894 101.536 130.847 101.503 130.808 101.461C130.769 101.42 130.738 101.371 130.717 101.318C130.697 101.264 130.687 101.208 130.689 101.15C130.69 101.093 130.703 101.037 130.726 100.985C130.774 100.879 130.862 100.797 130.971 100.756C131.079 100.714 131.2 100.718 131.306 100.765C132.502 101.242 133.775 101.499 135.063 101.522C143.174 101.935 150.275 99.8256 157.425 94.8713C159.656 93.3243 161.62 91.4223 163.238 89.2408C163.268 89.1901 163.309 89.1463 163.357 89.1121C163.406 89.0778 163.461 89.0537 163.519 89.0414C163.577 89.0291 163.636 89.0287 163.694 89.0403C163.753 89.052 163.808 89.0754 163.856 89.1091C163.905 89.1428 163.946 89.1861 163.978 89.2363C164.009 89.2866 164.03 89.3427 164.039 89.4013C164.048 89.4599 164.045 89.5197 164.03 89.577C164.015 89.6343 163.988 89.6879 163.951 89.7346C162.28 92.0081 160.241 93.9871 157.918 95.5906C151.225 100.239 144.542 102.445 137.065 102.445Z" fill="white"/>
<path d="M164.977 92.5794C164.905 92.5796 164.835 92.5621 164.772 92.5284C164.708 92.4948 164.654 92.4461 164.615 92.3866C164.575 92.3271 164.55 92.2587 164.543 92.1875C164.536 92.1163 164.547 92.0444 164.574 91.9783C165.188 90.4907 165.319 88.8479 164.95 87.2817C163.255 88.4303 161.445 89.3999 159.55 90.1748C159.497 90.1966 159.44 90.2076 159.383 90.2073C159.325 90.2069 159.268 90.1952 159.215 90.1727C159.162 90.1503 159.115 90.1175 159.074 90.0764C159.034 90.0353 159.003 89.9867 158.981 89.9332C158.96 89.8804 158.949 89.8238 158.949 89.7668C158.949 89.7097 158.961 89.6532 158.984 89.6007C159.006 89.5483 159.039 89.5008 159.08 89.4611C159.121 89.4214 159.17 89.3903 159.223 89.3697C161.244 88.5506 163.165 87.5044 164.95 86.2511C165.004 86.2114 165.067 86.1854 165.133 86.1751C165.2 86.1648 165.267 86.1706 165.331 86.1921C165.397 86.2125 165.456 86.2485 165.505 86.2972C165.554 86.3458 165.59 86.4055 165.61 86.4712C166.235 88.3918 166.153 90.4723 165.379 92.3379C165.342 92.4125 165.285 92.4749 165.214 92.5177C165.142 92.5605 165.06 92.5819 164.977 92.5794Z" fill="white"/>
<path d="M200.569 75.9079H175.427C175.22 75.9099 175.014 75.8688 174.822 75.7874C174.631 75.706 174.459 75.5859 174.316 75.4347C174.174 75.2835 174.064 75.1044 173.994 74.9088C173.923 74.7131 173.894 74.505 173.908 74.2977L175.079 53.0422C175.107 52.6182 175.294 52.2204 175.602 51.9279C175.91 51.6355 176.318 51.4699 176.743 51.4641H201.889C202.097 51.4613 202.304 51.5018 202.495 51.583C202.686 51.6642 202.859 51.7844 203.001 51.9359C203.143 52.0873 203.253 52.2668 203.322 52.4628C203.391 52.6588 203.419 52.8671 203.403 53.0744L202.233 74.3299C202.205 74.7539 202.018 75.1517 201.709 75.4441C201.401 75.7365 200.994 75.9021 200.569 75.9079ZM176.743 51.9043C176.429 51.909 176.13 52.0315 175.903 52.2474C175.676 52.4632 175.539 52.7566 175.519 53.069L174.349 74.3245C174.338 74.4723 174.359 74.6206 174.409 74.7601C174.459 74.8996 174.537 75.0272 174.638 75.135C174.741 75.2423 174.864 75.3273 175.001 75.3845C175.138 75.4418 175.285 75.4702 175.433 75.4678H200.574C200.889 75.4656 201.191 75.3442 201.419 75.1279C201.647 74.9117 201.785 74.6168 201.804 74.303L202.974 53.0476C202.983 52.9008 202.963 52.7537 202.913 52.6153C202.863 52.4769 202.786 52.3501 202.685 52.2429C202.584 52.1358 202.463 52.0504 202.328 51.9921C202.193 51.9339 202.047 51.904 201.9 51.9043H176.743Z" fill="#BEDB6F"/>
<path d="M202.947 57.5668H175.036C174.984 57.5587 174.937 57.5323 174.903 57.4924C174.869 57.4526 174.85 57.4019 174.85 57.3495C174.85 57.297 174.869 57.2463 174.903 57.2065C174.937 57.1666 174.984 57.1402 175.036 57.1321H202.947C202.978 57.1271 203.01 57.129 203.041 57.1377C203.072 57.1463 203.1 57.1615 203.124 57.1822C203.148 57.2028 203.168 57.2285 203.181 57.2574C203.194 57.2862 203.201 57.3177 203.201 57.3495C203.201 57.3813 203.194 57.4127 203.181 57.4416C203.168 57.4704 203.148 57.4961 203.124 57.5168C203.1 57.5374 203.072 57.5526 203.041 57.5612C203.01 57.5699 202.978 57.5718 202.947 57.5668Z" fill="#BEDB6F"/>
<path d="M180.639 75.9079C180.582 75.9025 180.529 75.8756 180.492 75.8327C180.454 75.7899 180.434 75.7342 180.435 75.6771L181.423 57.3362C181.424 57.3075 181.431 57.2794 181.444 57.2535C181.456 57.2276 181.474 57.2044 181.495 57.1854C181.517 57.1664 181.542 57.1519 181.569 57.1427C181.596 57.1336 181.625 57.13 181.654 57.1322C181.682 57.1336 181.71 57.1407 181.736 57.1531C181.762 57.1655 181.785 57.183 181.804 57.2045C181.823 57.226 181.838 57.2511 181.847 57.2784C181.856 57.3056 181.86 57.3344 181.858 57.363L180.854 75.6824C180.855 75.7113 180.85 75.7401 180.839 75.7671C180.829 75.7941 180.813 75.8187 180.793 75.8396C180.773 75.8606 180.749 75.8774 180.723 75.8891C180.697 75.9008 180.668 75.9072 180.639 75.9079Z" fill="#BEDB6F"/>
<path d="M199.753 59.7462H184.611C184.559 59.738 184.512 59.7116 184.478 59.6718C184.444 59.6319 184.425 59.5812 184.425 59.5288C184.425 59.4764 184.444 59.4257 184.478 59.3858C184.512 59.3459 184.559 59.3196 184.611 59.3114H199.753C199.784 59.3064 199.817 59.3084 199.847 59.317C199.878 59.3257 199.906 59.3408 199.93 59.3615C199.954 59.3822 199.974 59.4078 199.987 59.4367C200 59.4656 200.007 59.497 200.007 59.5288C200.007 59.5606 200 59.592 199.987 59.6209C199.974 59.6498 199.954 59.6754 199.93 59.6961C199.906 59.7167 199.878 59.7319 199.847 59.7406C199.817 59.7492 199.784 59.7511 199.753 59.7462Z" fill="#BEDB6F"/>
<path d="M197.472 62.4193H184.466C184.435 62.4242 184.403 62.4223 184.372 62.4137C184.342 62.405 184.313 62.3898 184.289 62.3692C184.265 62.3485 184.246 62.3229 184.232 62.294C184.219 62.2651 184.212 62.2337 184.212 62.2019C184.212 62.1701 184.219 62.1387 184.232 62.1098C184.246 62.0809 184.265 62.0553 184.289 62.0346C184.313 62.0139 184.342 61.9988 184.372 61.9901C184.403 61.9815 184.435 61.9795 184.466 61.9845H197.472C197.503 61.9795 197.536 61.9815 197.566 61.9901C197.597 61.9988 197.625 62.0139 197.649 62.0346C197.673 62.0553 197.693 62.0809 197.706 62.1098C197.719 62.1387 197.726 62.1701 197.726 62.2019C197.726 62.2337 197.719 62.2651 197.706 62.294C197.693 62.3229 197.673 62.3485 197.649 62.3692C197.625 62.3898 197.597 62.405 197.566 62.4137C197.536 62.4223 197.503 62.4242 197.472 62.4193Z" fill="#BEDB6F"/>
<path d="M191.884 65.1782H184.316C184.285 65.1831 184.252 65.1812 184.222 65.1726C184.191 65.1639 184.163 65.1487 184.139 65.1281C184.115 65.1074 184.095 65.0818 184.082 65.0529C184.069 65.024 184.062 64.9926 184.062 64.9608C184.062 64.929 184.069 64.8976 184.082 64.8687C184.095 64.8398 184.115 64.8142 184.139 64.7935C184.163 64.7728 184.191 64.7577 184.222 64.749C184.252 64.7404 184.285 64.7385 184.316 64.7434H191.884C191.916 64.7385 191.948 64.7404 191.978 64.749C192.009 64.7577 192.037 64.7728 192.061 64.7935C192.086 64.8142 192.105 64.8398 192.118 64.8687C192.132 64.8976 192.139 64.929 192.139 64.9608C192.139 64.9926 192.132 65.024 192.118 65.0529C192.105 65.0818 192.086 65.1074 192.061 65.1281C192.037 65.1487 192.009 65.1639 191.978 65.1726C191.948 65.1812 191.916 65.1831 191.884 65.1782Z" fill="#BEDB6F"/>
<path d="M193.258 70.5617H184.021C183.99 70.5667 183.957 70.5648 183.927 70.5561C183.896 70.5475 183.868 70.5323 183.844 70.5116C183.82 70.491 183.8 70.4653 183.787 70.4364C183.774 70.4076 183.767 70.3761 183.767 70.3443C183.767 70.3125 183.774 70.2811 183.787 70.2522C183.8 70.2234 183.82 70.1977 183.844 70.177C183.868 70.1564 183.896 70.1412 183.927 70.1326C183.957 70.1239 183.99 70.122 184.021 70.1269H193.258C193.29 70.122 193.322 70.1239 193.353 70.1326C193.383 70.1412 193.412 70.1564 193.436 70.177C193.46 70.1977 193.479 70.2234 193.493 70.2522C193.506 70.2811 193.513 70.3125 193.513 70.3443C193.513 70.3761 193.506 70.4076 193.493 70.4364C193.479 70.4653 193.46 70.491 193.436 70.5116C193.412 70.5323 193.383 70.5475 193.353 70.5561C193.322 70.5648 193.29 70.5667 193.258 70.5617Z" fill="#BEDB6F"/>
<path d="M191.439 73.326H183.865C183.807 73.326 183.751 73.3028 183.71 73.2615C183.668 73.2203 183.645 73.1643 183.645 73.1059C183.645 73.0476 183.668 72.9916 183.71 72.9503C183.751 72.9091 183.807 72.8859 183.865 72.8859H191.439C191.497 72.8859 191.553 72.9091 191.594 72.9503C191.636 72.9916 191.659 73.0476 191.659 73.1059C191.659 73.1643 191.636 73.2203 191.594 73.2615C191.553 73.3028 191.497 73.326 191.439 73.326Z" fill="#BEDB6F"/>
<path d="M195.867 73.326H193.446C193.388 73.326 193.332 73.3028 193.291 73.2615C193.249 73.2203 193.226 73.1643 193.226 73.1059C193.226 73.0476 193.249 72.9916 193.291 72.9503C193.332 72.9091 193.388 72.8859 193.446 72.8859H195.867C195.925 72.8859 195.981 72.9091 196.023 72.9503C196.064 72.9916 196.087 73.0476 196.087 73.1059C196.087 73.1643 196.064 73.2203 196.023 73.2615C195.981 73.3028 195.925 73.326 195.867 73.326Z" fill="#BEDB6F"/>
<path d="M198.347 67.8512H184.166C184.114 67.843 184.067 67.8166 184.033 67.7768C183.999 67.7369 183.98 67.6862 183.98 67.6338C183.98 67.5813 183.999 67.5306 184.033 67.4908C184.067 67.4509 184.114 67.4245 184.166 67.4164H198.347C198.399 67.4245 198.446 67.4509 198.48 67.4908C198.514 67.5306 198.533 67.5813 198.533 67.6338C198.533 67.6862 198.514 67.7369 198.48 67.7768C198.446 67.8166 198.399 67.843 198.347 67.8512Z" fill="#BEDB6F"/>
<path d="M185.127 106.814C181.842 106.814 179.152 105.843 177.483 104.039C175.696 102.107 174.955 99.0795 175.449 95.7194C175.67 93.8678 176.357 92.1025 177.446 90.5881C178.618 89.1321 180.137 87.9934 181.863 87.2763C183.912 86.3527 186.138 85.8899 188.386 85.9205C190.633 85.9511 192.846 86.4744 194.869 87.4534C196.635 88.3391 197.74 89.4609 198.159 90.7867C198.176 90.8413 198.182 90.8987 198.177 90.9557C198.171 91.0126 198.155 91.0679 198.128 91.1185C198.102 91.1691 198.065 91.214 198.021 91.2505C197.977 91.287 197.926 91.3146 197.872 91.3315C197.817 91.3484 197.76 91.3544 197.703 91.3491C197.646 91.3438 197.591 91.3274 197.54 91.3007C197.489 91.2741 197.444 91.2377 197.408 91.1937C197.371 91.1497 197.344 91.0989 197.327 91.0443C196.983 89.9708 196.023 89.01 194.477 88.2317C192.569 87.3114 190.482 86.8205 188.364 86.7936C186.246 86.7667 184.148 87.2045 182.217 88.0761C180.603 88.6862 179.192 89.7389 178.148 91.1134C177.104 92.488 176.468 94.129 176.313 95.8483C175.857 98.94 176.517 101.71 178.122 103.443C180.349 105.853 184.026 106.025 186.044 105.918C189.769 105.708 192.969 104.409 195.062 102.252C197.509 99.7344 198.197 95.9663 196.672 93.4865C196.481 93.1289 196.213 92.8182 195.887 92.5768C195.561 92.3355 195.186 92.1695 194.788 92.091C194.731 92.0856 194.676 92.069 194.625 92.0419C194.575 92.0149 194.53 91.978 194.494 91.9335C194.458 91.889 194.432 91.8377 194.416 91.7827C194.4 91.7277 194.395 91.6701 194.402 91.6133C194.419 91.5095 194.472 91.4153 194.553 91.3482C194.634 91.2811 194.737 91.2456 194.842 91.2483C195.375 91.3333 195.882 91.5403 196.322 91.8531C196.763 92.1659 197.125 92.5761 197.381 93.0518C199.12 95.859 198.384 100.089 195.668 102.89C193.419 105.199 190.016 106.594 186.071 106.814C185.765 106.814 185.443 106.814 185.127 106.814Z" fill="white"/>
<path d="M73.707 61.3939L72.1558 64.0777L70.6422 66.8312C69.6438 68.6723 68.6884 70.5295 67.8188 72.392C67.3841 73.326 66.9708 74.2599 66.595 75.1939L66.5253 75.3656V75.4032C66.5066 75.4265 66.4904 75.4517 66.4769 75.4783C66.4488 75.5287 66.4237 75.5806 66.4018 75.634C66.3679 75.8365 66.3901 76.0445 66.4662 76.2352C66.765 76.9666 67.2045 77.6323 67.7598 78.1943C68.4186 78.8982 69.1194 79.5614 69.8585 80.1803L68.5971 82.8641C68.0057 82.7008 67.4263 82.4964 66.8634 82.2522C66.3084 82.0078 65.7704 81.7262 65.2532 81.4095C64.0466 80.7145 63.012 79.7568 62.2259 78.6076C61.7416 77.8657 61.4197 77.0298 61.2812 76.1547C61.2167 75.6719 61.2167 75.1828 61.2812 74.7001C61.3027 74.4573 61.3439 74.2168 61.4046 73.9808L61.4905 73.6319L61.5549 73.4226C61.9038 72.3222 62.2581 71.238 62.6767 70.2021C63.4926 68.0926 64.4158 66.0583 65.4142 64.0777C65.9187 63.0847 66.434 62.1078 66.9815 61.1416C67.529 60.1755 68.055 59.2308 68.6991 58.2485L73.707 61.3939Z" fill="#FFC3BD"/>
<path d="M68.49 79.8905L71.3079 79.1605L71.469 83.7122C71.469 83.7122 69.2629 84.0396 67.9156 82.6924L68.49 79.8905Z" fill="#FFC3BD"/>
<path d="M75.3067 78.3929L74.6679 82.3918L71.4689 83.7122L71.3079 79.1605L75.3067 78.3929Z" fill="#FFC3BD"/>
<path d="M86.9542 39.9345C87.0187 40.2512 87.2334 40.4713 87.4373 40.4283C87.6413 40.3854 87.7594 40.1009 87.695 39.7896C87.6306 39.4783 87.4159 39.2528 87.2119 39.2958C87.0079 39.3387 86.9113 39.6232 86.9542 39.9345Z" fill="#263238"/>
<path d="M87.2225 40.4713C87.7869 41.3498 88.4696 42.1463 89.2515 42.8384C89.0697 43.0327 88.8479 43.1852 88.6014 43.2853C88.3548 43.3854 88.0895 43.4307 87.8237 43.4181L87.2225 40.4713Z" fill="#ED847E"/>
<path d="M85.4782 38.4371C85.4324 38.4376 85.3881 38.4203 85.3548 38.3888C85.3371 38.3718 85.323 38.3514 85.3134 38.3288C85.3038 38.3062 85.2988 38.2819 85.2988 38.2573C85.2988 38.2328 85.3038 38.2084 85.3134 38.1859C85.323 38.1633 85.3371 38.1428 85.3548 38.1258C85.5524 37.8993 85.8025 37.7246 86.0832 37.617C86.3639 37.5094 86.6667 37.4721 86.9651 37.5085C86.9923 37.5088 87.0192 37.515 87.0439 37.5267C87.0685 37.5384 87.0903 37.5554 87.1077 37.5764C87.1252 37.5973 87.1378 37.6219 87.1448 37.6482C87.1518 37.6746 87.153 37.7022 87.1482 37.729C87.1435 37.7559 87.1329 37.7814 87.1173 37.8038C87.1017 37.8262 87.0815 37.8449 87.0579 37.8586C87.0343 37.8724 87.0081 37.8808 86.9809 37.8834C86.9538 37.886 86.9264 37.8826 86.9006 37.8735C86.6672 37.8535 86.4323 37.8888 86.2151 37.9765C85.9978 38.0641 85.8042 38.2017 85.65 38.3781C85.6284 38.4012 85.6014 38.4187 85.5715 38.429C85.5415 38.4393 85.5095 38.4421 85.4782 38.4371Z" fill="#263238"/>
<path d="M78.0923 44.3198C78.6613 47.2076 79.2249 52.4892 77.2067 54.4162C77.2067 54.4162 77.9957 57.3415 83.3525 57.3415C89.2568 57.3415 86.1705 54.4162 86.1705 54.4162C82.9499 53.6486 83.0358 51.2601 83.5994 49.0486L78.0923 44.3198Z" fill="#FFC3BD"/>
<path d="M76.042 54.953C75.6126 54.1478 75.1349 53.23 76.1171 52.9455C77.1906 52.6288 84.1362 52.0438 86.1759 52.6342C85.5479 53.7506 86.6053 55.1194 86.6053 55.1194L76.042 54.953Z" fill="#263238"/>
<path d="M58.5813 189.437C58.7405 189.493 58.9092 189.518 59.0778 189.508C59.2464 189.499 59.4116 189.457 59.5636 189.383C59.6224 189.329 59.6628 189.258 59.6791 189.18C59.6955 189.102 59.687 189.021 59.6549 188.948C59.6368 188.888 59.6059 188.832 59.5642 188.785C59.5225 188.738 59.471 188.7 59.4133 188.675C58.8766 188.417 57.6581 188.916 57.6045 188.938C57.5878 188.945 57.5735 188.957 57.5631 188.972C57.5527 188.988 57.5466 189.005 57.5454 189.024C57.5455 189.041 57.5506 189.059 57.5601 189.074C57.5696 189.089 57.5831 189.101 57.5991 189.109C57.9141 189.253 58.2433 189.363 58.5813 189.437ZM59.2201 188.803L59.3328 188.841C59.3662 188.856 59.3959 188.879 59.42 188.906C59.4441 188.934 59.4619 188.967 59.4724 189.002C59.526 189.168 59.4724 189.222 59.4402 189.238C59.2308 189.421 58.4418 189.238 57.8889 189.034C58.3098 188.859 58.7647 188.78 59.2201 188.803Z" fill="#BEDB6F"/>
<path d="M57.6205 189.115H57.6635C58.109 188.986 59.0644 188.309 59.0751 187.859C59.0767 187.789 59.0541 187.721 59.011 187.666C58.9679 187.611 58.9071 187.573 58.839 187.558C58.7717 187.534 58.7001 187.524 58.6288 187.53C58.5576 187.535 58.4883 187.556 58.4256 187.59C57.8889 187.859 57.5615 188.954 57.5507 188.997C57.5428 189.011 57.5386 189.028 57.5386 189.045C57.5386 189.062 57.5428 189.078 57.5507 189.093C57.5703 189.109 57.5953 189.117 57.6205 189.115ZM58.737 187.724H58.7745C58.8926 187.762 58.8926 187.821 58.8926 187.843C58.8926 188.111 58.2539 188.642 57.8191 188.857C57.936 188.431 58.1748 188.049 58.5062 187.757C58.5767 187.718 58.6587 187.707 58.737 187.724Z" fill="#BEDB6F"/>
<path d="M87.6949 190.097C88.1995 190.097 88.6879 190.027 88.8543 189.802C88.8956 189.742 88.9178 189.671 88.9178 189.598C88.9178 189.525 88.8956 189.454 88.8543 189.394C88.8226 189.339 88.7801 189.291 88.7293 189.253C88.6786 189.216 88.6207 189.188 88.5591 189.174C87.9043 188.997 86.5248 189.78 86.4658 189.812C86.4495 189.822 86.4366 189.837 86.4289 189.854C86.4212 189.871 86.4191 189.891 86.4228 189.909C86.4253 189.928 86.4332 189.946 86.4456 189.96C86.458 189.974 86.4744 189.984 86.4926 189.99C86.8897 190.059 87.2919 190.095 87.6949 190.097ZM88.3176 189.335C88.3781 189.326 88.4395 189.326 88.5001 189.335C88.5378 189.342 88.5736 189.358 88.6051 189.38C88.6365 189.402 88.6629 189.43 88.6826 189.464C88.747 189.582 88.7255 189.635 88.6826 189.668C88.5001 189.925 87.5017 189.931 86.7717 189.829C87.25 189.565 87.7751 189.397 88.3176 189.335Z" fill="#BEDB6F"/>
<path d="M86.5032 190.011H86.5408C87.0185 189.802 87.9578 188.938 87.8881 188.503C87.8881 188.395 87.7968 188.267 87.5392 188.24C87.4434 188.226 87.3458 188.234 87.2532 188.262C87.1605 188.289 87.075 188.337 87.0024 188.401C86.5032 188.814 86.3959 189.872 86.3905 189.92C86.3909 189.936 86.3949 189.953 86.4024 189.968C86.4098 189.982 86.4204 189.995 86.4334 190.006C86.4441 190.011 86.4558 190.014 86.4678 190.015C86.4798 190.016 86.4918 190.015 86.5032 190.011ZM87.464 188.401H87.5177C87.6895 188.401 87.7002 188.481 87.7002 188.503C87.7431 188.771 87.1044 189.442 86.6267 189.732C86.6731 189.281 86.861 188.856 87.1634 188.519C87.2533 188.439 87.3706 188.396 87.4909 188.401H87.464Z" fill="#BEDB6F"/>
<path d="M82.1665 189.893H86.1116L86.5035 180.763H82.5583L82.1665 189.893Z" fill="#FFC3BD"/>
<path d="M53.2246 188.068L57.0785 188.905L60.9485 180.398L57.0946 179.566L53.2246 188.068Z" fill="#FFC3BD"/>
<path d="M57.4328 188.519L53.1387 187.579C53.0627 187.564 52.9837 187.575 52.9145 187.61C52.8453 187.645 52.79 187.702 52.7576 187.773L51.2547 191.031C51.2182 191.11 51.2001 191.197 51.2019 191.285C51.2037 191.372 51.2253 191.458 51.265 191.536C51.3048 191.614 51.3617 191.682 51.4315 191.735C51.5013 191.788 51.5822 191.824 51.668 191.841C53.187 192.142 53.9385 192.212 55.844 192.625C57.0141 192.877 59.6603 193.521 61.2759 193.87C62.8916 194.219 63.4229 192.668 62.8218 192.378C59.9931 191.09 58.8122 189.952 58.0447 188.889C57.8975 188.69 57.6776 188.557 57.4328 188.519Z" fill="#263238"/>
<path d="M86.0847 189.437H81.7907C81.712 189.437 81.6358 189.464 81.575 189.514C81.5143 189.564 81.4728 189.633 81.4579 189.711L80.6635 193.232C80.6439 193.316 80.6438 193.403 80.6631 193.488C80.6824 193.572 80.7207 193.651 80.775 193.718C80.8294 193.785 80.8983 193.839 80.9766 193.876C81.055 193.913 81.1406 193.931 81.2271 193.929C82.7837 193.929 85.0273 193.811 86.9811 193.811C89.2623 193.811 91.2322 193.94 93.9106 193.94C95.5208 193.94 95.9824 192.303 95.3008 192.153C92.2198 191.476 89.697 191.407 87.0347 189.764C86.7555 189.567 86.426 189.454 86.0847 189.437Z" fill="#263238"/>
<path d="M70.143 55.2858C66.4501 56.1339 63.4014 65.57 63.4014 65.57L70.8515 71.2489C72.7713 69.2003 74.1269 66.6888 74.7859 63.9598C76.0312 59.0431 73.9217 54.4431 70.143 55.2858Z" fill="#BEDB6F"/>
<path opacity="0.2" d="M73.3099 62.2634C71.3024 64.2494 70.6261 67.8671 70.4919 71.0125L70.8194 71.2648C72.7419 69.2174 74.0995 66.7057 74.7591 63.9757C74.8343 63.6805 74.8987 63.3852 74.9524 63.0954L73.3099 62.2634Z" fill="black"/>
<path d="M92.2359 55.5112C92.2359 55.5112 96.4333 60.2508 92.4667 89.5951H71.3883C71.2434 86.3746 73.2777 70.5618 70.1538 55.3073C72.4867 54.8586 74.8462 54.561 77.2175 54.4163C80.203 54.2444 83.1958 54.2444 86.1813 54.4163C88.2249 54.6231 90.2493 54.9892 92.2359 55.5112Z" fill="#BEDB6F"/>
<path opacity="0.2" d="M94.0769 64.4803L93.9963 64.4105L89.2031 65.5592C88.9294 68.7797 92.2626 72.6765 93.9802 74.4478C94.1925 71.1295 94.2248 67.8021 94.0769 64.4803Z" fill="black"/>
<path opacity="0.2" d="M86.5032 180.768L86.2993 185.476H82.3541L82.5581 180.768H86.5032Z" fill="black"/>
<path opacity="0.2" d="M57.0893 179.566L60.9485 180.403L58.9518 184.783L55.0925 183.951L57.0893 179.566Z" fill="black"/>
<path d="M76.4445 41.3892C77.4536 45.1465 77.8562 47.4331 80.2018 49.0057C83.7068 51.3675 88.076 48.6569 88.2155 44.6473C88.339 41.0457 86.6589 35.4688 82.6011 34.7066C81.707 34.5323 80.7831 34.5898 79.9176 34.8737C79.052 35.1576 78.2735 35.6584 77.6563 36.3283C77.0391 36.9983 76.6037 37.8151 76.3915 38.701C76.1794 39.5869 76.1977 40.5123 76.4445 41.3892Z" fill="#FFC3BD"/>
<path d="M78.1782 47.5512C79.7885 48.4744 85.6445 45.4041 84.4422 40.7398C84.4422 40.7398 86.6751 38.056 86.4228 35.0931C86.1705 32.1302 84.1362 31.003 81.9731 31.6364C80.0676 32.2 80.1213 33.2467 80.1213 33.2467C80.1213 33.2467 71.1092 34.3202 73.0361 37.9701C69.3647 41.9636 76.1708 46.4079 78.1782 47.5512Z" fill="#263238"/>
<path d="M73.2884 38.2707C73.2884 38.2707 72.2149 36.4136 70.6476 37.4549C71.3883 37.4656 72.5906 37.573 73.2884 38.2707Z" fill="#263238"/>
<path d="M86.133 37.036C86.133 37.036 88.0975 32.6024 85.0594 31.1747C85.6251 32.0285 86.0119 32.988 86.1964 33.9954C86.3809 35.0028 86.3593 36.0372 86.133 37.036Z" fill="#263238"/>
<path d="M82.8749 41.5501C83.139 42.4892 83.7049 43.3154 84.4851 43.901C85.5103 44.6632 86.2779 43.901 86.2081 42.7524C86.1383 41.6789 85.5264 40.0686 84.3939 39.7412C83.2613 39.4138 82.5797 40.4121 82.8749 41.5501Z" fill="#FFC3BD"/>
<path d="M84.9897 89.595C84.9897 89.595 80.5131 119.728 78.0548 131.016C75.371 143.362 60.9377 184.284 60.9377 184.284L53.8794 182.754C53.8794 182.754 63.9704 149.422 66.2247 132.138C67.9585 118.864 71.3776 89.595 71.3776 89.595H84.9897Z" fill="#263238"/>
<path d="M62.6284 181.928C62.6606 181.928 61.3134 184.477 61.3134 184.477L53.3748 182.76L54.0403 180.371L62.6284 181.928Z" fill="#BEDB6F"/>
<path opacity="0.3" d="M82.161 100.33C76.9867 101.345 77.5342 120.641 78.1568 130.566C79.649 123.55 81.8336 110.051 83.3258 100.47C82.9648 100.292 82.5538 100.243 82.161 100.33Z" fill="black"/>
<path d="M92.4667 89.595C92.4667 89.595 93.0034 119.074 92.5847 131.102C92.1392 143.609 87.754 184.563 87.754 184.563H81.0875C81.0875 184.563 80.8459 144.339 80.5507 132.058C80.2287 118.666 78.613 89.595 78.613 89.595H92.4667Z" fill="#263238"/>
<path opacity="0.4" d="M129.551 68.8065H115.944L115.182 82.6494L128.773 83.009L129.551 68.8065Z" fill="#263238"/>
<path d="M122.38 77.7115L108.752 76.0314C109.848 71.4455 110.667 66.7977 111.205 62.1134L124.913 63.7988C124.349 68.483 123.503 73.129 122.38 77.7115Z" fill="#BEDB6F"/>
<path d="M89.0529 181.901C89.0852 181.901 88.6772 184.676 88.6772 184.676H80.5508L80.3307 182.201L89.0529 181.901Z" fill="#BEDB6F"/>
<path d="M94.1789 59.1074C94.7854 60.0521 95.4778 61.1149 96.1702 62.0918C96.8626 63.0687 97.5765 64.067 98.3172 65.0171C99.729 66.8986 101.302 68.6533 103.019 70.2612C103.423 70.64 103.846 70.9983 104.286 71.3347L104.608 71.5762C104.548 71.5474 104.485 71.5258 104.42 71.5118C104.281 71.485 104.211 71.5118 104.248 71.5118C104.556 71.5201 104.861 71.4499 105.134 71.3078C105.603 71.1062 106.057 70.8713 106.492 70.6047C108.497 69.2896 110.399 67.8236 112.182 66.2194L114.484 68.0819C113.089 70.4279 111.348 72.5504 109.321 74.3781C108.75 74.8857 108.133 75.3403 107.48 75.7361C106.653 76.2516 105.731 76.5948 104.769 76.7452C104.081 76.8354 103.381 76.775 102.719 76.568C102.35 76.4531 101.998 76.2907 101.672 76.085L101.21 75.7897C100.593 75.3925 100.008 74.9739 99.4552 74.5391C97.3291 72.8141 95.3914 70.8692 93.6743 68.7368C92.8316 67.6955 92.0158 66.6435 91.2589 65.5485C90.5021 64.4535 89.7775 63.4015 89.069 62.1562L94.1789 59.1074Z" fill="#FFC3BD"/>
<path d="M86.4174 61.4745C85.156 66.7616 94.7209 71.9412 94.7209 71.9412L100.937 64.6575C99.0718 61.9056 96.9453 59.3405 94.5868 56.998C90.2605 52.8221 87.3943 57.4328 86.4174 61.4745Z" fill="#BEDB6F"/>
<path d="M111.527 67.3196L112.998 62.6123L116.857 64.5339C116.857 64.5339 116.293 67.9691 113.481 68.5649L111.527 67.3196Z" fill="#FFC3BD"/>
<path d="M114.543 61.3081L118.021 62.2635L116.857 64.534L112.992 62.6124L114.543 61.3081Z" fill="#FFC3BD"/>
</svg>
