<svg width="238" height="184" viewBox="0 0 238 184" fill="none" xmlns="http://www.w3.org/2000/svg">
<path d="M25.1801 86.7313C25.1801 86.5936 25.247 86.5267 25.3809 86.5304L29.1244 86.642C29.4446 86.643 29.7621 86.7016 30.0616 86.815C30.2989 86.8994 30.5116 87.0413 30.6809 87.2278C30.8397 87.4113 30.9542 87.6289 31.0156 87.8638C31.0794 88.1323 31.1076 88.408 31.0993 88.6839L31.0658 89.716C31.0585 89.9923 31.0135 90.2664 30.932 90.5305C30.8597 90.7614 30.7335 90.9718 30.5637 91.1442C30.3811 91.3173 30.1618 91.4469 29.9222 91.5236C29.6127 91.614 29.2902 91.6517 28.9682 91.6351L26.9542 91.5738L26.5413 90.391H26.4856L26.4465 91.557L25.035 91.5124L25.1801 86.7313ZM26.4856 90.2627L28.8789 90.3352C29.0789 90.3562 29.2791 90.2982 29.4368 90.1735C29.5787 89.9977 29.6468 89.7736 29.6265 89.5486V88.7118C29.6605 88.4865 29.6066 88.2568 29.4759 88.0702C29.318 87.9439 29.12 87.8785 28.918 87.8861L26.625 87.8191C26.6107 87.8166 26.596 87.8179 26.5823 87.8227C26.5686 87.8276 26.5564 87.836 26.5469 87.847C26.5393 87.8687 26.5393 87.8923 26.5469 87.914L26.4856 90.2627Z" fill="#F1F1F4"/>
<path d="M33.1244 88.8681H33.0741L33.0295 90.3632C33.0278 90.3763 33.0291 90.3897 33.0332 90.4022C33.0373 90.4148 33.0441 90.4263 33.0532 90.4359C33.0622 90.4455 33.0733 90.453 33.0856 90.4578C33.098 90.4626 33.1112 90.4646 33.1244 90.4636L37.3309 90.592L37.2918 91.8863L31.7743 91.7189C31.7468 91.7211 31.7192 91.717 31.6936 91.7068C31.668 91.6965 31.6452 91.6805 31.6268 91.66C31.6084 91.6395 31.595 91.615 31.5877 91.5884C31.5804 91.5618 31.5793 91.5339 31.5846 91.5069L31.7185 86.9266C31.7157 86.8991 31.7192 86.8713 31.7287 86.8453C31.7382 86.8193 31.7535 86.7958 31.7733 86.7765C31.7931 86.7572 31.8171 86.7426 31.8433 86.7338C31.8695 86.725 31.8974 86.7223 31.9249 86.7258L37.2862 86.8931C37.4201 86.8931 37.4871 86.9657 37.4871 87.1051L37.448 88.3995L36.1202 88.8458H36.0644V88.1763C36.0644 88.1261 36.0644 88.1038 35.9975 88.1038L33.169 88.0145C33.1555 88.0124 33.1417 88.0139 33.129 88.0188C33.1163 88.0237 33.1051 88.0318 33.0965 88.0424C33.0916 88.0645 33.0916 88.0873 33.0965 88.1093V88.7342L35.4285 88.8011L35.395 89.8165L33.4424 89.7607L33.1244 88.8681Z" fill="#F1F1F4"/>
<path d="M42.4747 88.7788H42.4021V88.2209C42.4021 88.1651 42.4021 88.1372 42.324 88.1372L39.7242 88.0759C39.6887 88.069 39.6521 88.0705 39.6173 88.0802C39.5824 88.0899 39.5503 88.1075 39.5234 88.1316C39.4843 88.1806 39.4645 88.2421 39.4676 88.3046V88.4273C39.4554 88.4932 39.4694 88.5613 39.5067 88.617C39.562 88.6534 39.625 88.6763 39.6908 88.684L42.7759 89.2084C42.9469 89.2353 43.1138 89.284 43.2724 89.3534C43.3982 89.4062 43.5106 89.4862 43.6016 89.5877C43.6892 89.6884 43.7505 89.8091 43.7801 89.9392C43.8118 90.1008 43.8249 90.2656 43.8192 90.4302V90.8263C43.8183 91.0162 43.7863 91.2046 43.7243 91.3841C43.6731 91.5339 43.5849 91.6683 43.4677 91.7747C43.3334 91.8861 43.1748 91.9644 43.0047 92.0034C42.7779 92.0553 42.5452 92.076 42.3129 92.0648L37.8497 91.9309L37.8888 90.6366L41.8666 90.7537C41.9893 90.7537 42.0674 90.7537 42.1064 90.6979C42.1535 90.6312 42.1771 90.5508 42.1734 90.4692V90.3074C42.1804 90.2435 42.1667 90.1789 42.1343 90.1233C42.0868 90.0799 42.0257 90.0543 41.9614 90.0508L38.9823 89.5822C38.8063 89.556 38.634 89.5092 38.469 89.4427C38.3384 89.3926 38.2203 89.3145 38.1231 89.2139C38.0333 89.1175 37.9682 89.0007 37.9334 88.8736C37.8968 88.7184 37.8818 88.5588 37.8888 88.3994V88.048C37.8831 87.8956 37.9078 87.7436 37.9615 87.6009C38.0151 87.4582 38.0966 87.3276 38.2012 87.2167C38.4748 87.0032 38.8219 86.9069 39.1664 86.9489L43.6295 87.0828C43.7745 87.0828 43.8415 87.1609 43.8359 87.3115V88.3381L42.4747 88.7788Z" fill="#F1F1F4"/>
<path d="M44.3491 92.0983L44.4998 87.1107L45.9168 87.1554L45.7494 92.1429L44.3491 92.0983Z" fill="#F1F1F4"/>
<path d="M51.0049 90.1623C51.0049 90.0898 51.0049 90.0117 51.0049 89.928C51.0049 89.8443 51.0049 89.783 51.0049 89.7216V89.6602L52.4052 89.6993L52.3271 92.1484C52.3271 92.2767 52.2657 92.3381 52.1541 92.3381L48.3939 92.2209C48.0742 92.2193 47.7572 92.1627 47.4567 92.0536C47.2195 91.9663 47.007 91.8227 46.8374 91.6352C46.6763 91.4532 46.5615 91.235 46.5027 90.9992C46.4389 90.7307 46.4108 90.4549 46.419 90.1791L46.4525 89.1525C46.4598 88.8744 46.5048 88.5985 46.5864 88.3324C46.6572 88.1025 46.7837 87.8937 46.9546 87.7243C47.1347 87.548 47.3548 87.4178 47.5962 87.345C47.9051 87.2518 48.2281 87.214 48.5502 87.2334L52.2825 87.345C52.4163 87.345 52.4777 87.4175 52.4777 87.557L52.4442 88.6337L51.1165 89.0744H51.0662V88.5947C51.0662 88.55 51.0663 88.5277 51.0105 88.5277L48.6227 88.4552C48.5067 88.4489 48.3903 88.4583 48.2768 88.4831C48.1886 88.5009 48.1074 88.5435 48.0425 88.6058C47.9776 88.6736 47.9298 88.7558 47.903 88.8457C47.8724 88.9699 47.8555 89.0972 47.8528 89.2251V90.1065C47.8208 90.33 47.8746 90.5572 48.0034 90.7425C48.1572 90.8772 48.3571 90.9471 48.5613 90.9378L50.9212 91.0047C50.9714 91.0047 50.9993 91.0047 50.9993 90.9266L51.0049 90.1623Z" fill="#F1F1F4"/>
<path d="M55.3676 87.4399C55.4441 87.4361 55.52 87.4555 55.5852 87.4957C55.6353 87.5362 55.6754 87.5877 55.7024 87.6463L57.4876 91.2893C57.4988 91.3145 57.5167 91.3362 57.5393 91.3519C57.5619 91.3676 57.5884 91.3769 57.6159 91.3786H57.6885C57.7032 91.3814 57.7185 91.3806 57.7329 91.3764C57.7473 91.3721 57.7605 91.3645 57.7714 91.3541C57.7823 91.3438 57.7906 91.331 57.7956 91.3168C57.8005 91.3026 57.8021 91.2875 57.8 91.2726L57.9172 87.518L59.1948 87.557L59.0497 92.3493C59.0537 92.3756 59.0513 92.4025 59.0428 92.4277C59.0343 92.453 59.0199 92.4758 59.0009 92.4943C58.9818 92.5129 58.9585 92.5266 58.9331 92.5344C58.9076 92.5421 58.8807 92.5437 58.8545 92.539L56.8237 92.4776C56.7504 92.4819 56.6772 92.4665 56.6117 92.433C56.5552 92.3916 56.5109 92.3357 56.4834 92.2712L54.6312 88.6338C54.6206 88.6082 54.6029 88.5862 54.5801 88.5704C54.5574 88.5545 54.5306 88.5456 54.5029 88.5445H54.436C54.421 88.5419 54.4056 88.5428 54.391 88.547C54.3763 88.5513 54.3629 88.5588 54.3516 88.569C54.3403 88.5792 54.3315 88.5918 54.3258 88.606C54.3201 88.6201 54.3177 88.6353 54.3188 88.6505L54.2072 92.3995L52.9241 92.3605L53.0691 87.5738C53.0691 87.4399 53.1417 87.3729 53.27 87.3785L55.3676 87.4399Z" fill="#F1F1F4"/>
<path d="M179.086 86.4022C179.083 103.209 174.185 119.652 164.99 133.72C155.795 147.789 142.701 158.875 127.308 165.623L126.939 165.785L126.493 165.974L125.327 166.465C120.119 168.593 114.715 170.205 109.193 171.28L108.429 171.425C107.14 171.665 105.84 171.871 104.523 172.055L104.233 172.094C104.049 172.094 103.865 172.145 103.675 172.161L102.42 172.318H102.387C99.5413 172.634 96.6533 172.82 93.7225 172.875H91.3514H91.0558C89.728 172.853 88.4058 172.803 87.0891 172.725L86.3081 172.669H86.1686H86.0292H85.9734C80.0366 172.221 74.1622 171.159 68.4444 169.5C67.9869 169.372 67.535 169.232 67.0831 169.093C64.3279 168.243 61.6169 167.257 58.9602 166.136C58.0378 165.764 57.1229 165.359 56.2154 164.92C55.4009 164.548 54.5919 164.156 53.7886 163.743C53.0019 163.347 52.2265 162.945 51.4566 162.527C50.6867 162.108 49.967 161.706 49.225 161.277C48.483 160.847 47.8693 160.451 47.1999 160.044C37.4847 154.038 29.0485 146.176 22.3737 136.908L22.2286 136.707L22.0836 136.506C14.2135 125.412 9.07144 112.618 7.07529 99.1635C5.07914 85.7087 6.28515 71.9728 10.5954 59.0717C14.9056 46.1706 22.1984 34.4683 31.8813 24.9154C41.5642 15.3626 53.3641 8.22864 66.3223 4.09328C79.2804 -0.0420914 93.0314 -1.06227 106.458 1.11563C119.885 3.29352 132.608 8.60806 143.595 16.6275C154.581 24.6469 163.521 35.1449 169.688 47.2687C175.855 59.3925 179.074 72.8001 179.086 86.4022Z" fill="#F5FFD8"/>
<path d="M29.0127 80.879C27.6156 78.6038 25.5642 76.8032 23.127 75.713L21.8159 76.3211L24.7672 81.6824C24.5282 82.9146 23.8935 84.035 22.9596 84.8735C21.7186 85.0528 20.4531 84.8216 19.3556 84.2152L17.124 78.508L15.813 79.1217C15.088 81.6845 15.1521 84.4063 15.9971 86.9322C15.9971 86.9322 16.555 88.2209 16.6554 88.338C17.1743 88.9406 18.5299 89.6435 21.1186 89.4538L30.162 106.698C29.6559 107.568 29.4408 108.577 29.5482 109.578C29.6556 110.579 30.0798 111.52 30.759 112.263C31.4382 113.005 32.3369 113.512 33.3242 113.709C34.3114 113.905 35.3356 113.781 36.2476 113.355C37.1595 112.929 37.9114 112.222 38.3939 111.339C38.8763 110.455 39.064 109.441 38.9296 108.443C38.7953 107.446 38.3458 106.517 37.6468 105.793C36.9478 105.068 36.0357 104.586 35.0435 104.416L27.6738 86.4635C29.4423 84.6002 29.8161 83.1162 29.6822 82.2849C29.6487 82.1008 29.0127 80.879 29.0127 80.879ZM36.4494 110.62L34.0505 111.736L31.8859 110.224L32.1146 107.591L34.508 106.475L36.6782 107.987L36.4494 110.62Z" fill="url(#paint0_linear_370_593)"/>
<path d="M29.6822 82.2849C28.2834 80.0076 26.2302 78.2052 23.7909 77.1132L22.4798 77.7269L25.4311 83.0827C25.1975 84.3155 24.5642 85.4371 23.6291 86.2738C22.3857 86.4526 21.1179 86.2194 20.0195 85.6099L17.7879 79.9083L16.4769 80.5219C15.7551 83.0855 15.8212 85.8069 16.6666 88.3324C16.6666 88.3324 18.7085 91.0717 21.8159 90.8764L30.8649 108.16C30.3603 109.03 30.1467 110.039 30.2552 111.04C30.3638 112.04 30.7889 112.98 31.4685 113.722C32.1482 114.464 33.047 114.969 34.034 115.165C35.021 115.361 36.0447 115.236 36.9561 114.81C37.8674 114.383 38.6188 113.677 39.1009 112.793C39.5829 111.91 39.7704 110.896 39.636 109.899C39.5017 108.902 39.0525 107.973 38.3539 107.249C37.6553 106.525 36.7438 106.043 35.7521 105.873L28.3321 87.8861C30.4688 85.6099 29.6822 82.2849 29.6822 82.2849ZM37.1133 112.026L34.72 113.142L32.5553 111.63L32.7841 108.997L35.1774 107.881L37.3421 109.398L37.1133 112.026Z" fill="url(#paint1_linear_370_593)"/>
<path d="M17.1353 78.5033L15.8262 79.1149L16.4826 80.52L17.7917 79.9085L17.1353 78.5033Z" fill="#E5E2FF"/>
<path d="M23.1294 75.7106L21.8203 76.3221L22.4767 77.7273L23.7859 77.1157L23.1294 75.7106Z" fill="#E5E2FF"/>
<path d="M36.4535 110.625L34.0576 111.744L34.7141 113.149L37.1099 112.03L36.4535 110.625Z" fill="#E5E2FF"/>
<path d="M23.7631 92.1763L31.0603 106.207C31.6313 106.229 32.1993 106.114 32.7167 105.872C33.234 105.629 33.6857 105.266 34.0339 104.813L28.0644 90.1624C27.2438 90.1632 26.4334 90.344 25.6902 90.6919C24.947 91.0399 24.2892 91.5466 23.7631 92.1763ZM33.476 104.946C33.1872 105.192 32.8685 105.4 32.5275 105.566C32.2093 105.715 31.871 105.816 31.5233 105.867L24.1815 92.1206C24.7115 91.6568 25.3028 91.2682 25.9388 90.9657C26.5089 90.6874 27.1187 90.4992 27.7464 90.4078L33.476 104.946Z" fill="url(#paint2_linear_370_593)"/>
<path d="M33.4758 104.947L34.0336 104.829C33.7134 105.306 33.2694 105.685 32.7494 105.928C32.2294 106.171 31.6531 106.268 31.0824 106.207L31.5176 105.867C32.2425 105.746 32.92 105.427 33.4758 104.947Z" fill="#E5E2FF"/>
<path style="mix-blend-mode:multiply" opacity="0.62" d="M23.7631 92.1763L24.1815 92.1205C25.1791 91.2238 26.4192 90.6416 27.7464 90.4469L28.0644 90.1735C27.2373 90.1178 26.4113 90.2977 25.6822 90.6923C24.9143 90.9943 24.2485 91.5091 23.7631 92.1763Z" fill="url(#paint3_linear_370_593)"/>
<path style="mix-blend-mode:multiply" opacity="0.62" d="M21.8271 90.8933C24.1944 90.3848 26.4174 89.3515 28.3322 87.8695L29.2806 90.168C29.2806 90.168 28.2039 89.1024 25.8384 90.0676C23.0489 91.1834 23.2275 93.415 23.2275 93.415L21.8271 90.8933Z" fill="url(#paint4_linear_370_593)"/>
<path style="mix-blend-mode:screen" opacity="0.5" d="M29.2805 90.1678C28.8545 89.8711 28.354 89.6991 27.8356 89.6713L34.8985 106.737L35.7521 105.856L29.2805 90.1678Z" fill="url(#paint5_linear_370_593)"/>
<path d="M29.2806 90.1679C29.2806 90.1679 28.5386 92.4497 30.6641 93.5153L29.2806 90.1679Z" fill="white"/>
<path d="M126.934 165.812L126.488 166.002L125.322 166.493C120.114 168.621 114.71 170.233 109.187 171.308L108.423 171.453C107.134 171.693 105.835 171.899 104.518 172.083L104.228 172.122C104.044 172.122 103.86 172.172 103.67 172.189L102.415 172.345C101.505 169.266 100.791 166.978 100.479 165.98L100.367 165.651V165.573L100.317 165.416C98.7661 164.496 95.7367 165.628 95.7367 165.628L95.6698 165.868L94.3643 170.61L93.7283 172.875H91.3573H91.0616C89.7338 172.853 88.4116 172.803 87.095 172.725C86.8328 173.517 86.5371 174.398 86.2414 175.341L86.1242 179.553C86.0977 180.684 85.6501 181.764 84.869 182.583L83.809 183.403C83.1247 183.776 82.3566 183.968 81.5774 183.961H63.3344C63.3344 183.91 63.3344 183.866 63.3344 183.821C63.3344 183.777 63.3344 183.726 63.3344 183.682C64.247 178.727 65.4826 173.837 67.0332 169.043C68.5871 164.095 70.4504 159.251 72.6121 154.537C72.3924 154.128 72.2847 153.668 72.2997 153.204C72.5181 152.797 72.8227 152.443 73.1923 152.166C73.8395 151.575 74.6093 150.984 74.6093 150.984L86.5538 150.911H86.8328L119.302 150.71C119.302 150.71 119.754 150.939 120.329 151.268C121.305 151.86 122.627 152.775 122.627 153.444C122.641 154.034 122.484 154.615 122.175 155.118V155.146C122.175 155.146 122.175 155.213 122.237 155.274C122.247 155.303 122.26 155.331 122.276 155.358C124.053 158.738 125.609 162.23 126.934 165.812Z" fill="url(#paint6_linear_370_593)"/>
<path style="mix-blend-mode:screen" opacity="0.5" d="M84.8633 182.588C84.8633 182.488 84.8968 182.393 84.9191 182.298L84.9694 182.019C85.2818 180.346 85.5272 178.672 85.6835 177.082C85.8397 175.565 85.9345 174.092 85.9624 172.68C86.0556 169.929 85.8253 167.177 85.2762 164.479C85.0229 163.263 84.6317 162.08 84.1102 160.953C83.8953 160.498 83.6454 160.059 83.3626 159.642C83.3063 159.551 83.2449 159.464 83.1785 159.38C82.5263 158.428 81.5545 157.741 80.4393 157.444C79.9005 157.321 79.3424 157.31 78.7991 157.411H78.7656C78.291 157.498 77.8297 157.646 77.3932 157.851C74.3136 159.274 71.0555 163.553 68.4669 169.506C66.9439 173.007 65.7541 176.644 64.9131 180.368C64.6528 181.506 64.4241 182.622 64.2269 183.715C64.2296 183.762 64.2296 183.808 64.2269 183.855C64.2296 183.901 64.2296 183.948 64.2269 183.994H81.6332C82.4124 184.001 83.1804 183.809 83.8647 183.436L84.8633 182.588Z" fill="url(#paint7_radial_370_593)"/>
<path style="mix-blend-mode:screen" opacity="0.5" d="M125.322 166.493C120.114 168.621 114.71 170.233 109.187 171.308C109.059 167.291 109.5 163.843 110.476 161.383C111.302 159.285 112.512 157.896 114.08 157.478C114.793 157.29 115.543 157.29 116.256 157.478C119.174 158.119 122.437 161.467 125.322 166.493Z" fill="url(#paint8_radial_370_593)"/>
<path d="M91.0559 172.875C92.3223 169.902 93.2875 167.955 93.5497 167.425L93.6222 167.28L93.6557 167.241L95.5916 165.567L95.6306 165.534L95.7199 165.64L95.8091 165.746L95.6529 165.879L93.8621 167.447C93.8342 167.497 93.7617 167.637 93.6557 167.86C93.2763 168.624 92.4283 170.387 91.3516 172.881L91.0559 172.875Z" fill="url(#paint9_linear_370_593)"/>
<path d="M104.523 172.083C104.278 171.525 104.044 171.006 103.826 170.532C102.85 168.401 102.214 167.185 102.191 167.14L100.423 165.517L100.378 165.567L100.233 165.729L100.495 165.963L101.963 167.274C102.063 167.464 102.761 168.825 103.781 171.079C103.927 171.403 104.077 171.748 104.239 172.106L104.523 172.083Z" fill="url(#paint10_linear_370_593)"/>
<path style="mix-blend-mode:screen" opacity="0.5" d="M84.8633 182.588C85.6444 181.77 86.092 180.69 86.1185 179.559L86.2357 175.347C86.1855 175.498 86.1353 175.62 86.0851 175.777V175.827C86.033 175.983 85.9828 176.145 85.9344 176.312C85.8563 176.55 85.7782 176.796 85.7001 177.049C85.1422 178.862 84.5286 180.859 83.926 182.984C83.906 183.047 83.8892 183.11 83.8758 183.174C83.8758 183.241 83.8312 183.308 83.8145 183.381L84.8633 182.588Z" fill="url(#paint11_radial_370_593)"/>
<path style="mix-blend-mode:screen" opacity="0.5" d="M122.699 153.466C122.714 154.056 122.557 154.637 122.248 155.14V155.168C120.163 155.659 118.155 156.43 116.278 157.461C114.212 158.568 112.265 159.882 110.465 161.383C108.791 162.763 107.24 164.287 105.829 165.935C106.621 167.458 107.502 169.349 108.412 171.453C107.123 171.693 105.823 171.899 104.507 172.083L104.216 172.122C104.032 172.122 103.848 172.172 103.659 172.189L102.403 172.345C101.494 169.266 100.78 166.978 100.467 165.98L100.356 165.651V165.573L100.306 165.416C98.7547 164.496 95.7253 165.628 95.7253 165.628L95.6584 165.868L94.3529 170.61L93.7281 172.875H91.357H91.0613C89.7336 172.853 88.4114 172.803 87.0947 172.725C88.0599 169.824 88.7182 168.044 88.7182 168.044C88.0153 167.224 87.2733 166.421 86.4866 165.645C86.4464 165.595 86.4016 165.548 86.3527 165.506L86.2188 165.366L85.276 164.44C82.7904 162.069 80.1594 159.856 77.3986 157.812C74.6537 155.776 72.6844 154.543 72.6844 154.543L71.5686 153.829L72.3943 153.21C73.7555 154.521 76.1154 155.96 78.6873 157.305H78.7264L78.8045 157.349C80.3163 158.136 81.8952 158.895 83.3848 159.581C84.4448 160.066 85.449 160.512 86.3583 160.897L86.4978 160.959L86.6373 161.02C88.6066 161.857 90.0237 162.415 90.2747 162.51H90.3026L86.654 160.278L86.5201 160.194L86.3806 160.111L73.2702 152.127C73.9173 151.536 74.6872 150.945 74.6872 150.945L86.6317 150.872H86.9106L119.38 150.671C119.38 150.671 119.832 150.9 120.406 151.229L108.2 157.924L122.699 153.466Z" fill="url(#paint12_radial_370_593)"/>
<path d="M102.426 172.345L103.681 172.189L103.776 171.073L103.826 170.516L104.284 165.394L105.522 162.008L100.306 165.394L100.356 165.55V165.628L100.451 165.946L102.37 172.334L102.426 172.345Z" fill="url(#paint13_linear_370_593)"/>
<path d="M95.7253 165.623L90.2915 162.549L78.6594 157.31L93.4714 167.101L94.3585 170.61L95.7253 165.623Z" fill="url(#paint14_linear_370_593)"/>
<path d="M110.677 60.8172C110.71 61.0571 110.738 61.1855 110.738 61.1855C110.484 62.2532 110.175 63.3072 109.812 64.3431C108.996 66.7571 107.824 69.0359 106.337 71.1048C105.884 71.7395 105.376 72.3331 104.819 72.8789C96.6794 70.3237 92.6682 62.3626 91.1284 58.4016C91.1252 58.3812 91.1252 58.3605 91.1284 58.3402C90.8327 57.5926 90.6375 56.9901 90.5147 56.5996C90.4199 56.2872 90.3752 56.1142 90.3752 56.1142L90.4757 55.9078C90.6096 55.6288 90.7434 55.3499 90.8662 55.071C91.7822 53.0595 92.5287 50.975 93.0978 48.8393C93.4883 47.3497 93.7282 46.2339 93.8007 45.6203C93.8509 45.3134 93.8732 45.1461 93.8732 45.1461L97.6669 47.1489L110.738 54.0444C110.56 55.1514 110.469 56.2706 110.465 57.3918C110.465 58.0891 110.465 58.714 110.515 59.244C110.554 59.8911 110.621 60.4044 110.671 60.7391C110.671 60.7653 110.672 60.7915 110.677 60.8172Z" fill="#FE9083"/>
<path d="M107.051 73.7548C106.255 74.5444 105.344 75.2101 104.351 75.7297L104.284 75.7688L104.206 75.7241C103.921 75.5512 102.95 74.9542 101.645 73.9724C98.2305 71.4005 92.5288 66.2009 90.8998 59.1938C90.7061 58.3511 90.5755 57.4952 90.5093 56.6331C90.5093 56.4043 90.4758 56.1756 90.4702 55.9413C91.3373 57.8737 92.3734 59.7256 93.5665 61.4756C95.8762 64.8564 99.3407 68.5441 103.48 68.5664C107.062 68.5664 108.897 66.1395 109.829 63.8801C110.169 63.0533 110.422 62.1932 110.582 61.3138C110.621 61.1129 110.649 60.9344 110.677 60.7559C110.677 60.6778 110.677 60.6108 110.677 60.5495C110.711 60.2984 110.722 60.1534 110.722 60.1534C110.722 60.1534 112.139 68.6947 107.051 73.7548Z" fill="url(#paint15_linear_370_593)"/>
<path d="M107.051 73.7548C106.254 74.5444 105.344 75.2101 104.351 75.7297H104.2C103.915 75.5568 102.945 74.9599 101.639 73.978C98.2249 71.4061 92.5232 66.2065 90.8942 59.1994C90.7005 58.3567 90.5699 57.5008 90.5037 56.6387C90.5037 56.4099 90.4702 56.1812 90.4646 55.9469C91.3316 57.8793 92.3678 59.7312 93.5609 61.4812C93.5609 61.4812 95.7925 67.6738 100.691 70.7422C103.134 72.2764 104.987 72.0532 106.348 71.1495C107.598 70.2153 108.564 68.9521 109.137 67.5008C109.568 66.517 109.81 65.461 109.851 64.3878C109.851 64.2056 109.851 64.0382 109.851 63.8857C110.191 63.0589 110.444 62.1988 110.605 61.3194C110.644 61.1186 110.671 60.94 110.699 60.7615C110.699 60.6834 110.699 60.6165 110.699 60.5551C110.733 60.304 110.744 60.159 110.744 60.159C110.744 60.159 112.139 68.6947 107.051 73.7548Z" fill="url(#paint16_linear_370_593)"/>
<path d="M138.36 124.339L138.27 124.383C137.813 124.439 136.39 124.127 134.527 122.515C132.965 121.148 131.09 118.866 129.221 115.128C125.483 107.658 124.412 102.67 124.239 101.8V101.666L122.058 105.125C120.58 109.588 117.779 127.971 117.829 128.763C117.879 129.555 120.312 133.416 120.262 133.89C120.195 134.37 119.101 135.424 118.789 136.573C118.577 137.338 120.061 139.748 121.104 141.55C121.523 142.163 121.847 142.836 122.064 143.547C122.064 144.389 119.419 148.512 119.419 148.512V150.744L119.38 150.783L119.257 150.894L119.157 150.978C118.153 151.77 113.896 154.365 100.596 155.079C84.8354 155.921 74.3359 150.85 74.3359 150.85L75.1281 148.68C75.1281 148.68 74.3917 148.049 74.3359 147.731C74.2801 147.413 74.8938 146.671 74.8938 146.671C74.8938 146.671 73.3094 145.829 73.3094 144.769C73.3094 143.709 76.4838 140.44 76.3778 137.633C76.2718 134.827 73.8394 132.35 73.5214 130.766C73.2034 129.181 77.6442 125.271 77.6442 125.271C73.8115 113.181 73.0862 97.0021 73.0862 97.0021L72.3498 96.1541C72.3498 96.1541 67.803 106.514 63.6802 111.585C63.1892 112.188 62.6704 112.785 62.1348 113.36C61.0141 114.573 59.8277 115.724 58.581 116.807C55.7246 119.295 53.1304 120.93 52.4442 120.802C51.3842 120.59 47.1554 112.238 47.3507 103.675C47.4399 99.6019 49.8946 95.0439 52.4442 91.4009C52.7176 91.0104 53.0021 90.6254 53.2699 90.2516C54.6237 88.4104 56.0841 86.65 57.6438 84.9795C57.9673 84.6337 58.1515 84.4217 58.1515 84.4217C58.1515 84.4217 57.5936 82.5527 57.1751 80.9293C57.1685 80.8896 57.1592 80.8505 57.1472 80.8121C57.1498 80.7936 57.1498 80.7748 57.1472 80.7563C57.1487 80.7433 57.1487 80.7302 57.1472 80.7173C56.9129 79.7186 56.7679 78.8539 56.9018 78.6419C57.2532 78.084 59.3007 77.4424 59.6522 77.024C60.0037 76.6056 61.4821 69.4813 62.609 68.7058C63.736 67.9304 65.5937 67.4227 71.937 64.9289L72.9021 64.5495C80.0152 61.7601 86.9945 58.3123 86.9945 58.3123L89.6723 55.0208H90.8662L90.4757 55.8576C90.6654 56.7056 90.883 57.5313 91.1284 58.2956C91.1253 58.3159 91.1253 58.3366 91.1284 58.3569C94.8105 69.9723 104.284 73.7157 104.284 73.7157C110.867 68.8565 110.738 61.1408 110.738 61.1408V60.0808L111.971 60.449L112.814 62.4575C112.814 62.4575 114.242 64.689 119.899 67.1661C120.962 67.6419 121.999 68.1727 123.006 68.7561C128.184 71.6961 133.941 76.243 134.382 77.2081C134.445 77.3637 134.495 77.5242 134.532 77.6879C135.141 80.0757 136.39 89.0187 137.551 92.1931C138.042 93.6707 138.991 94.9529 140.262 95.8529C140.594 96.0899 140.959 96.2778 141.344 96.4108C141.434 96.9017 141.517 97.3871 141.595 97.8669C144.033 113.242 139.42 123.625 138.36 124.339Z" fill="url(#paint17_linear_370_593)"/>
<path d="M77.6664 95.4735L73.0861 97.0021L72.3497 96.1541C72.3497 96.1541 67.8028 106.514 63.68 111.585C63.1891 112.188 62.6702 112.785 62.1347 113.36C61.014 114.573 59.8276 115.724 58.5809 116.807L55.0662 101.705L53.2865 90.2405C54.6403 88.3992 56.1007 86.6388 57.6604 84.9684C57.9839 84.6225 58.1681 84.4105 58.1681 84.4105C58.1681 84.4105 57.6102 82.5416 57.1917 80.9181C57.1851 80.8785 57.1758 80.8393 57.1638 80.801C57.1664 80.7825 57.1664 80.7637 57.1638 80.7452C57.1653 80.7322 57.1653 80.7191 57.1638 80.7061C56.9295 79.7075 56.7845 78.8428 56.9184 78.6308C57.2698 78.0729 59.3173 77.4313 59.6688 77.0129C60.0203 76.5944 61.4987 69.4702 62.6256 68.6947C62.6256 68.6947 61.8892 75.5289 65.8 84.1985L67.7024 86.8764L73.2813 91.3395C73.2813 91.3395 75.3623 94.2127 77.6664 95.4735Z" fill="url(#paint18_linear_370_593)"/>
<path d="M64.3664 107.836C63.3789 115.161 52.4442 120.802 52.4442 120.802C50.0118 120.802 47.2949 116.573 44.829 111.357C42.3631 106.14 42.2125 91.1554 42.0841 90.2293C41.9558 89.3032 40.5778 87.4399 40.4942 86.6588C40.4105 85.8778 42.7257 84.2264 42.7257 84.2264V84.1873V84.1483C42.4858 83.635 41.1357 80.7396 41.2306 80.2096C41.3254 79.6796 43.9196 78.3629 43.9196 78.3629L44.0758 81.2138C44.0758 81.2138 50.0899 80.098 52.1262 75.4173L52.4833 73.9891L53.4875 74.6585V80.7954C53.4875 80.7954 53.6939 81.7494 54.0119 81.7494C54.3299 81.7494 56.673 80.5778 57.164 80.7396C57.6549 80.9014 58.1459 84.1818 58.8042 84.6002C59.4625 85.0186 61.2031 86.2404 61.4653 86.8317C61.5964 87.5961 61.6431 88.3725 61.6048 89.147C61.5749 90.4417 61.6514 91.7366 61.8335 93.0188C62.185 94.6367 65.3538 100.506 64.3664 107.836Z" fill="url(#paint19_linear_370_593)"/>
<path d="M164.223 101.56C163.732 102.336 161.267 103.959 160.631 104.595C159.995 105.231 160.631 107.312 160.631 107.312C154.194 114.174 146.669 119.926 138.359 124.339L138.27 124.383C131.765 120.01 132.323 112.807 134.482 106.737C135.909 102.892 137.845 99.2553 140.24 95.9254C141.298 95.4825 142.407 95.1751 143.542 95.0104C143.98 94.9999 144.409 95.1332 144.764 95.3898C145.556 95.8807 146.226 96.6562 146.873 96.3326C147.827 95.8528 149.958 90.8151 151.403 90.6756C152.413 90.5808 153.813 91.6073 154.75 92.1931C155.158 92.4497 155.476 92.6227 155.632 92.578C156.162 92.4385 157.958 90.2851 158.103 90.2293C158.248 90.1735 159.063 90.7872 159.063 90.7872L158.505 91.5013C159.061 94.5939 160.354 97.5067 162.276 99.9924L164.212 97.1583C164.212 97.1583 164.72 100.785 164.223 101.56Z" fill="url(#paint20_linear_370_593)"/>
<path d="M110.705 60.5997C110.705 60.6722 110.705 60.7447 110.677 60.8173C110.65 60.9678 110.614 61.1168 110.571 61.2636C109.907 63.7239 107.224 66.24 103.837 65.0294C100.138 63.7071 93.0978 48.7947 93.0978 48.7947L93.8063 45.6091L110.543 59.2217L110.727 60.5104L110.705 60.5997Z" fill="#CB4D7A"/>
<path d="M55.0663 57.8715C55.0663 57.8715 54.0454 52.2312 54.5084 48.0749C54.7611 45.1177 54.7219 42.1428 54.3913 39.1933C53.8304 38.9614 53.2004 38.9614 52.6395 39.1933C51.9031 39.6173 50.1736 43.9186 50.9658 47.372C51.758 50.8253 51.1443 59.0877 51.1443 59.0877H49.956L47.4232 55.6176L46.1903 55.2606C46.1903 55.2606 39.0883 61.9553 39.1943 65.9386L40.1204 69.4813L48.8681 69.18L54.5754 62.6638L55.0663 57.8715Z" fill="#EE8183"/>
<path d="M46.1902 55.2607C46.3257 58.0472 46.7198 60.815 47.3674 63.5286C47.2945 64.0015 47.0524 64.4319 46.686 64.7397C46.3197 65.0476 45.8541 65.212 45.3757 65.2023L44.9294 64.7002C44.9294 64.7002 44.6114 66.4687 42.9991 66.6026L41.4649 65.0684L41.8442 66.3181C41.6737 66.7077 41.3924 67.0387 41.0353 67.2698C40.6782 67.5009 40.2611 67.622 39.8358 67.618C39.8358 67.618 37.409 65.7156 37.2472 63.2274L39.6517 61.1967V59.6234L42.5081 57.615L42.5583 56.4992C43.6235 55.7434 44.8852 55.3132 46.1902 55.2607Z" fill="url(#paint21_linear_370_593)"/>
<path style="mix-blend-mode:multiply" opacity="0.6" d="M54.6032 46.8812C54.3787 47.4599 54.0214 47.9778 53.56 48.3931C52.8084 48.7516 52.0103 49.0033 51.1889 49.1406L51.1108 59.1046H49.956L47.4232 55.6177C47.4232 55.6177 48.7063 57.6038 48.7844 59.1046L47.7802 59.5955L46.9099 56.6108L46.4971 58.7587L46.9099 61.4366C48.1346 60.5416 49.6164 60.0679 51.1331 60.0865L51.546 60.8285C51.546 60.8285 46.6198 64.9066 45.4817 67.3112C45.4817 67.3112 47.9141 64.2204 53.4651 60.8117L53.9895 59.1771L54.6925 55.2719C54.6925 55.2719 54.0286 49.626 54.6032 46.8812Z" fill="url(#paint22_linear_370_593)"/>
<path d="M58.7316 64.2483C58.2742 65.6207 53.4819 71.3279 52.9519 72.5665C52.5852 73.4897 52.3014 74.4437 52.1039 75.4173C49.7496 80.5108 44.0758 81.2138 44.0758 81.2138L43.8136 76.6168C43.8136 76.6168 40.7508 74.8538 40.232 73.8887L40.1706 73.7269C40.0929 72.3183 40.0929 70.9066 40.1706 69.4981L45.5319 67.3279C47.8583 64.3152 53.5154 60.8284 53.5154 60.8284L53.7776 59.2496C49.7161 57.2523 50.3967 51.2104 51.083 50.4684C51.6142 49.9994 52.2937 49.7327 53.0021 49.7152C53.0021 49.7152 54.4694 54.6023 55.4178 56.8339C56.3662 59.0655 59.1891 62.8759 58.7316 64.2483Z" fill="url(#paint23_linear_370_593)"/>
<path d="M42.575 56.4768C42.575 56.4768 43.1775 62.0557 44.9293 64.6722C43.4508 62.6076 42.6144 60.1527 42.5248 57.6149L42.575 56.4768Z" fill="#E28183"/>
<path d="M39.6685 59.6234C39.6685 59.6234 40.2263 64.0865 43.0158 66.5747C43.0158 66.5747 40.5834 65.3585 39.6685 61.1855V59.6234Z" fill="#E28183"/>
<path style="mix-blend-mode:multiply" opacity="0.91" d="M53.6937 71.3837C53.6937 71.3837 47.6518 77.2528 43.7911 76.6168L44.0757 81.2138C46.0175 80.9415 47.8396 80.1151 49.3238 78.8338C50.808 77.5524 51.8913 75.8704 52.444 73.9891C52.7885 73.0878 53.2065 72.2165 53.6937 71.3837Z" fill="url(#paint24_linear_370_593)"/>
<path d="M181.473 79.3616C181.473 79.3616 175.922 89.5096 169.423 92.6282H167.191L162.064 100.4C162.064 100.4 158.75 98.3187 158.505 91.4734C159.186 90.7425 159.682 89.8585 159.95 88.8959C159.95 88.8959 158.12 87.4566 157.624 86.4022C157.127 85.3478 156.954 82.1733 156.603 80.8679C156.251 79.5624 153.255 76.8511 152.586 76.4996C151.916 76.1481 148.887 75.9417 148.887 75.9417C148.887 75.9417 148.463 74.8259 148.887 74.3238C149.311 73.8217 154.031 71.9584 156.603 73.7213C156.693 74.4162 156.846 75.1015 157.06 75.7688C157.345 76.4717 159.598 78.971 159.95 78.971C160.301 78.971 161.819 77.7046 162.488 76.7395C164.327 73.252 165.957 69.6584 167.37 65.9777C167.367 65.9537 167.367 65.9293 167.37 65.9052C167.37 65.8662 167.398 65.8271 167.403 65.7936C167.405 65.7695 167.405 65.7453 167.403 65.7211C167.403 65.7211 167.403 65.7211 167.403 65.6932C168.039 63.5453 171.738 59.4225 173.713 58.2956C173.995 58.2525 174.284 58.3145 174.523 58.4697C174.763 58.625 174.937 58.8628 175.013 59.138C175.013 59.138 173.507 63.6513 171.833 66.3181C171.554 66.77 171.275 67.3 170.94 67.869C169.529 70.4632 167.939 73.8608 167.71 74.3573L167.682 74.4187L168.564 74.8705L170.946 72.639L173.39 70.3237L178.996 76.243L178.438 76.9459L176.687 79.1775L177.574 79.3393L179.638 77.0575L181.473 79.3616Z" fill="url(#paint25_linear_370_593)"/>
<path style="mix-blend-mode:multiply" opacity="0.6" d="M180.201 81.5206L178.433 84.1259C178.433 84.1259 168.692 76.6167 166.578 75.9807C164.463 75.3447 163.688 75.7687 163.688 75.7687L161.506 78.5582C161.506 78.5582 165.523 82.1175 165.875 86.9266C165.875 86.9266 164.536 80.8679 159.989 79.0324C160.34 79.0324 161.858 77.766 162.527 76.8008C164.355 73.2925 165.972 69.6784 167.37 65.9777C167.175 66.6027 167.207 67.2761 167.459 67.8801C167.939 68.7672 170.762 67.9303 170.929 67.8801L167.693 74.3684L167.665 74.4298L168.547 74.8817L170.929 72.6501L169.735 75.4396L178.438 76.918L176.687 79.1496L177.574 79.3113L180.201 81.5206Z" fill="url(#paint26_linear_370_593)"/>
<path d="M173.39 70.307C173.39 70.307 175.063 70.0615 176.179 72.2485L175.934 72.9514C175.934 72.9514 177.607 73.275 179.175 75.9473C178.032 77.7284 176.297 79.0498 174.277 79.6796C174.277 79.6796 172.659 79.2221 172.374 77.8497L172.692 76.9682L171.426 77.9222C171.426 77.9222 169.908 78.3797 169.239 76.1203L173.39 70.307Z" fill="url(#paint27_linear_370_593)"/>
<path d="M181.987 78.6586C182.061 78.1246 181.968 77.5808 181.721 77.1015C181.475 76.6222 181.086 76.2308 180.609 75.9807L177.261 79.6795C177.322 80.0587 177.507 80.4068 177.788 80.6686C178.069 80.9303 178.43 81.0908 178.812 81.1245C178.812 81.1245 181.105 80.349 181.987 78.6586Z" fill="url(#paint28_linear_370_593)"/>
<path style="mix-blend-mode:multiply" opacity="0.91" d="M157.635 86.4022C160.298 89.1891 163.574 91.317 167.203 92.6171L164.753 96.3326L159.632 89.8332L159.961 88.8959C159.961 88.8959 157.919 87.3673 157.635 86.4022Z" fill="url(#paint29_linear_370_593)"/>
<path d="M175.923 72.9514C175.923 72.9514 174.305 75.6293 172.681 76.9682L172.363 77.8497C172.363 77.8497 175.51 75.7241 176.67 73.275C176.447 73.1155 176.192 73.0052 175.923 72.9514Z" fill="#E28183"/>
<path d="M164.223 101.56C163.732 102.336 161.267 103.959 160.631 104.595C159.995 105.231 160.631 107.312 160.631 107.312C154.194 114.174 146.669 119.926 138.36 124.339L138.27 124.383C137.422 124.489 133.299 123.329 129.177 115.083C125.439 107.613 124.368 102.626 124.195 101.755V101.621L125.104 100.389L126.454 85.1692L127.403 88.232C130.995 83.8972 134.382 77.2416 134.382 77.2416L134.532 77.7214C135.141 80.1091 136.39 89.0522 137.551 92.2266C138.042 93.7042 138.991 94.9864 140.262 95.8863C136.954 98.9045 135.313 103.245 134.505 106.698C134.066 108.529 133.8 110.397 133.712 112.277C134.543 108.957 135.823 105.767 137.517 102.793C138.611 100.942 139.991 99.2752 141.607 97.8557C142.616 96.9385 143.682 96.0851 144.798 95.3005C145.59 95.7915 146.259 96.567 146.906 96.2434C142.555 102.776 142.661 115.708 146.75 113.242C150.84 110.776 151.771 105.543 151.771 105.543C150.806 99.1667 151.091 91.9755 151.866 90.6087C152.809 90.6366 155.504 92.5334 155.66 92.4888C155.48 96.8938 156.623 101.252 158.94 105.002L161.267 101.404C159.239 97.9946 158.157 94.1066 158.131 90.14C158.271 90.0787 159.091 90.6979 159.091 90.6979L158.533 91.412C159.089 94.5046 160.382 97.4174 162.304 99.9031L164.24 97.0691C164.24 97.0691 164.72 100.785 164.223 101.56Z" fill="url(#paint30_linear_370_593)"/>
<path d="M119.391 148.495V150.727L119.352 150.766L119.23 150.878L119.129 150.961C118.125 151.754 113.868 154.348 100.568 155.062C84.8076 155.904 74.3081 150.833 74.3081 150.833L75.1003 148.663C75.1003 148.663 74.3639 148.032 74.3081 147.714C74.2523 147.396 74.866 146.654 74.866 146.654C74.866 146.654 73.2816 145.812 73.2816 144.752C73.2816 143.798 75.8702 141.036 76.2886 138.442C76.3393 138.17 76.3599 137.893 76.35 137.617C76.244 134.827 73.8339 132.356 73.4992 130.771C73.1812 129.187 77.622 125.276 77.622 125.276C73.8116 113.181 73.0863 97.0021 73.0863 97.0021L72.3499 96.1541C72.3499 96.1541 67.8031 106.514 63.6803 111.585C59.5574 116.657 53.5155 120.991 52.4443 120.802C50.0119 120.802 47.295 116.573 44.8291 111.357C42.3632 106.14 42.2126 91.1553 42.0843 90.2292C41.9559 89.3031 40.5779 87.4398 40.4943 86.6587C43.1387 91.2056 47.3508 89.8666 47.3508 89.8666C44.2991 89.9336 42.7147 84.2263 42.7147 84.2263V84.1873V84.1482L41.2251 80.2151C41.3925 80.4048 44.8793 84.3044 48.249 81.8888C51.6186 79.4731 53.482 74.6362 53.482 74.6362V80.773C53.482 80.773 53.6884 81.727 54.0064 81.727C53.6971 84.9785 53.1753 88.2063 52.4443 91.3897C50.8766 98.7148 48.7287 105.789 48.7287 105.789C48.7287 105.789 54.5531 102.62 56.6006 94.5864C57.4066 91.4468 57.7579 88.2077 57.6439 84.9683C57.6007 83.6168 57.444 82.2712 57.1752 80.9459C57.1686 80.9063 57.1593 80.8671 57.1473 80.8288C57.1499 80.8103 57.1499 80.7915 57.1473 80.773L57.7052 81.9669L58.7764 84.6224C60.0205 94.9323 57.4542 110.47 57.4542 110.47C61.1921 105.817 61.9675 95.5292 61.8057 93.0299C61.7332 91.836 61.6384 90.3631 61.577 89.1581C61.4933 87.8415 61.4375 86.8428 61.4375 86.8428L69.0862 91.4064L67.6748 86.9433L73.2537 91.4064C73.2537 91.4064 78.2747 97.4316 83.4017 98.1346C88.5288 98.8375 107.43 98.4191 107.43 98.4191C107.43 98.4191 91.0114 99.4735 86.2302 100.885C81.4491 102.296 80.523 103.914 80.523 103.914C83.9875 121.538 103.162 127.48 103.759 127.658C86.3641 125.047 78.2691 110.258 78.2691 110.258C78.2691 110.258 77.9846 118.576 79.3235 121.745C80.6625 124.913 88.5567 132.668 98.7047 134.286C99.5419 134.417 100.386 134.503 101.232 134.543C109.79 134.944 116.853 130.57 117.601 130.079L117.662 130.04C117.389 130.459 113.879 135.391 99.7089 135.932C98.8498 135.965 98.0352 135.96 97.1984 135.932C84.0656 135.374 77.3765 126.632 77.3765 126.632C77.3765 126.632 72.5173 129.243 75.6191 133.114L75.7196 133.237C76.6345 134.292 78.6485 135.58 81.0307 136.908L81.226 137.02C84.1047 138.61 87.4799 140.25 90.0909 141.606H90.1299C91.3852 142.222 92.6001 142.917 93.7674 143.686C94.5038 144.244 94.6544 144.568 93.9347 144.652C90.2694 145.076 76.389 142.046 75.8256 142.889C75.2621 143.731 76.5118 145.918 76.5118 145.918C89.254 152.233 116.518 149.12 117.377 149.025C94.5596 154.867 75.8925 147.469 75.8925 147.469L76.5118 149.656C83.6821 151.939 91.1335 153.219 98.6545 153.461C110.638 153.74 118.108 150.671 118.108 150.671L119.391 148.495Z" fill="url(#paint31_linear_370_593)"/>
<path style="mix-blend-mode:multiply" opacity="0.5" d="M110.035 98.3187C110.035 98.3187 119.112 98.8152 125.098 100.4L122.002 105.092C118.421 102.179 114.376 99.8893 110.035 98.3187Z" fill="url(#paint32_linear_370_593)"/>
<path style="mix-blend-mode:multiply" opacity="0.5" d="M118.515 123.335C118.515 123.335 112.853 128.06 107.285 130.241C103.784 131.582 100.102 132.39 96.3615 132.64C96.3615 132.64 99.5638 133.589 107.441 132.322C115.319 131.056 118.008 126.788 118.008 126.788L118.515 123.335Z" fill="url(#paint33_linear_370_593)"/>
<path style="mix-blend-mode:multiply" opacity="0.5" d="M121.065 141.527C110.588 144.233 97.2876 140.35 97.3991 139.854C97.5107 139.357 101.042 140.066 109.232 138.426C117.171 136.836 120.05 134.013 120.222 133.84C120.156 134.32 119.062 135.374 118.75 136.523C118.527 137.315 120.01 139.725 121.065 141.527Z" fill="url(#paint34_linear_370_593)"/>
<path style="mix-blend-mode:multiply" opacity="0.5" d="M92.6126 99.7413C83.6863 100.651 81.2539 103.144 81.2539 103.144C78.7378 103.462 73.0864 97.0077 73.0864 97.0077L72.3499 96.1597C72.3499 96.1597 67.8031 106.52 63.6803 111.591C63.1894 112.193 62.6705 112.79 62.135 113.365L62.6928 112.048C62.6928 112.048 63.6524 111.591 63.9314 106.553C64.2103 101.515 61.817 94.0118 61.8002 92.9909C61.7835 91.9699 61.432 86.8038 61.432 86.8038L69.0807 91.3674L67.6692 86.9042L73.2482 91.3674C73.2482 91.3674 75.4295 94.6478 80.9359 97.3815C86.1299 99.9757 91.9543 99.7916 92.6126 99.7413Z" fill="url(#paint35_linear_370_593)"/>
<path style="mix-blend-mode:multiply" opacity="0.5" d="M72.333 96.1709L77.6665 95.4735C79.705 96.7131 81.8503 97.768 84.0766 98.6256L80.5061 103.887C80.5061 103.887 81.9232 111.385 85.9846 115.602C85.9846 115.602 75.2062 109.616 73.711 104.584L72.333 96.1709Z" fill="url(#paint36_linear_370_593)"/>
<path style="mix-blend-mode:multiply" opacity="0.5" d="M41.2083 80.2152L42.7313 84.2264C42.7313 84.2264 44.2878 89.638 47.3674 89.8667C50.4469 90.0954 53.4651 80.7898 53.4651 80.7898V74.6865C53.4651 74.6865 50.2126 81.688 46.6477 82.497C43.0828 83.3059 41.2083 80.2152 41.2083 80.2152Z" fill="url(#paint37_linear_370_593)"/>
<path style="mix-blend-mode:multiply" opacity="0.5" d="M59.6467 77.0407C59.6467 77.0407 62.3971 82.5359 65.7835 84.2264C65.7835 84.2264 61.7611 74.4632 62.6091 68.7225C62.6036 68.7225 61.1251 69.6654 59.6467 77.0407Z" fill="url(#paint38_linear_370_593)"/>
<path d="M126.454 85.1804L127.403 88.2432L128.368 113.348C126.593 109.63 125.202 105.74 124.217 101.739L125.11 100.372C125.11 100.372 126.599 90.9266 126.454 85.1804Z" fill="url(#paint39_linear_370_593)"/>
<path d="M155.654 92.5781C155.654 92.5781 155.096 104.924 160.363 105.967L160.625 107.29C160.625 107.29 153.847 107.044 155.654 92.5781Z" fill="url(#paint40_linear_370_593)"/>
<path d="M146.906 96.3326C146.906 96.3326 146.706 96.7733 144.798 95.3898C144.798 95.3898 138.198 100.065 135.654 106.654C135.654 106.654 139.726 100.6 141.891 99.9589C144.056 99.3173 144.575 101.722 144.575 101.722C144.575 101.722 145.434 98.302 146.906 96.3326Z" fill="url(#paint41_linear_370_593)"/>
<path style="mix-blend-mode:multiply" opacity="0.5" d="M40.5108 86.6588C40.5108 86.6588 43.0492 91.3395 47.8081 89.8723C47.8081 89.8723 44.9572 91.7914 42.1008 90.2293C42.1008 90.2293 40.3267 87.1888 40.5108 86.6588Z" fill="url(#paint42_linear_370_593)"/>
<path d="M57.1417 80.734C57.1417 80.734 60.6341 93.7887 51.5237 103.608C53.3722 102.54 54.974 101.093 56.2239 99.3622C57.4738 97.6315 58.3436 95.6561 58.7763 93.5655C59.5538 89.2218 58.9834 84.7441 57.1417 80.734Z" fill="url(#paint43_linear_370_593)"/>
<path style="mix-blend-mode:multiply" opacity="0.5" d="M119.704 70.3014C119.704 70.3014 119.313 76.1927 116.49 80.4216C113.667 84.6504 108.061 87.5179 108.061 87.5179C108.061 87.5179 115.09 84.9293 118.315 81.2863C121.539 77.6433 119.704 70.3014 119.704 70.3014Z" fill="url(#paint44_linear_370_593)"/>
<path style="mix-blend-mode:multiply" opacity="0.5" d="M83.7475 61.4365C83.8323 64.81 84.3746 68.1563 85.3598 71.3837C86.9498 76.4048 100.713 85.1804 100.713 85.1804C100.713 85.1804 86.4756 79.2835 83.7475 73.9891C81.0194 68.6947 83.7475 61.4365 83.7475 61.4365Z" fill="url(#paint45_linear_370_593)"/>
<path d="M112.814 62.5021C112.378 67.6905 110.8 71.3056 109.115 73.7436C106.794 77.0909 104.283 78.2346 104.283 78.2346C101.931 77.212 99.7251 75.8819 97.7227 74.2792C92.6865 70.1339 88.9713 64.6075 87.0334 58.3792C90.3808 66.491 95.3237 71.406 99.0616 74.1732C100.675 75.417 102.439 76.4518 104.311 77.2527V74.6864C103.721 74.4653 103.144 74.212 102.582 73.9277C95.9988 70.5803 92.5398 63.6904 90.922 59.2161C90.424 57.8708 90.0177 56.4934 89.7057 55.0933H90.8996L90.5091 55.9301C90.6988 56.7781 90.9164 57.6038 91.1618 58.3681C91.1587 58.3884 91.1587 58.4091 91.1618 58.4295C94.8439 70.0448 104.317 73.7882 104.317 73.7882C110.9 68.929 110.772 61.2133 110.772 61.2133V60.1533L112.005 60.5216L112.814 62.5021Z" fill="url(#paint46_linear_370_593)"/>
<path d="M151.866 90.6979C151.866 90.6979 150.081 96.5391 151.771 105.633C151.771 105.633 152.614 94.1122 153.25 93.108C153.886 92.1038 155.66 92.5501 155.66 92.5501C154.428 91.8668 153.162 91.2485 151.866 90.6979Z" fill="url(#paint47_linear_370_593)"/>
<path d="M134.505 122.481C132.942 121.114 131.068 118.832 129.199 115.094C125.461 107.624 124.39 102.637 124.217 101.766L125.104 100.4L126.292 88.907L127.408 88.2432C130.233 84.921 132.582 81.2221 134.387 77.2527C134.45 77.4083 134.501 77.5688 134.538 77.7325C135.146 80.1203 136.396 89.0633 137.556 92.2377C138.047 93.7153 138.997 94.9975 140.268 95.8974C140.268 95.8974 133.4 106.085 133.065 113.354C132.781 119.993 134.237 122.146 134.505 122.481Z" fill="url(#paint48_linear_370_593)"/>
<path d="M120.211 133.868C120.144 134.347 119.051 135.402 118.738 136.551C118.738 136.551 114.197 141.36 97.3879 139.898C97.4995 139.424 101.031 140.11 109.221 138.47C117.16 136.863 120.038 134.041 120.211 133.868Z" fill="url(#paint49_linear_370_593)"/>
<g style="mix-blend-mode:multiply" opacity="0.5">
<path d="M122.66 69.1075L111.915 72.5888L108.791 74.0505H103.938L102.208 74.1899L101.293 74.2569L98.6878 74.4633L97.3768 74.5693L84.4895 69.9053L82.1854 69.1075L71.5854 65.2693L72.5506 64.8899C79.6637 62.1004 86.643 58.6527 86.643 58.6527L89.3208 55.3611H90.5147C91.4308 53.3496 92.1772 51.2652 92.7463 49.1294L93.4548 45.9439C93.505 45.637 93.5273 45.4697 93.5273 45.4697L97.321 47.4725L110.113 57.7042C110.113 58.4016 110.113 59.0264 110.164 59.5564L110.348 60.8452C110.381 60.5941 110.392 60.4491 110.392 60.4491L111.625 60.8173L112.468 62.8257C112.468 62.8257 113.896 65.0573 119.553 67.5343C120.615 68.0047 121.652 68.5298 122.66 69.1075Z" fill="#7A4AC0"/>
</g>
<path d="M114.822 58.9985C111.233 59.5891 107.55 59.047 104.283 57.4476C98.7548 54.7697 94.1075 46.8755 93.823 44.9062C93.5385 42.9368 95.9374 37.7875 95.9374 33.7483C95.9374 29.7092 93.9681 22.8248 97.2764 19.0869C100.585 15.3491 115.81 14.7912 120.747 19.5835C120.747 19.5835 122.275 23.4218 122.275 25.592C122.248 26.3236 122.17 27.0525 122.041 27.7733C121.997 28.1025 121.935 28.4539 121.879 28.8166C121.439 31.4443 120.831 34.6521 121.115 36.0692C121.215 36.5405 121.362 37.0004 121.556 37.4416C122.164 38.8475 123.068 39.9688 123.229 41.185C123.441 42.7918 121.31 54.0444 114.822 58.9985Z" fill="url(#paint50_linear_370_593)"/>
<path d="M95.8984 32.6381C95.8984 32.6381 94.5316 29.2071 91.095 29.1513C91.095 29.1513 89.0866 29.9491 88.7686 31.4777C88.7686 31.4777 89.5105 37.0566 90.353 39.6174C91.1954 42.1781 94.3028 41.8489 94.3028 41.8489C95.9469 39.0785 96.5148 35.8002 95.8984 32.6381Z" fill="url(#paint51_linear_370_593)"/>
<path d="M109.104 43.9354C109.664 43.8797 110.229 43.9761 110.738 44.2144C111.229 44.5882 113.031 46.3288 115.302 46.8086C117.573 47.2884 119.101 45.3469 119.581 45.2465C120.061 45.1461 120.596 45.8044 120.596 45.8044C120.479 45.5123 120.29 45.2542 120.048 45.0535C119.805 44.8529 119.516 44.7159 119.207 44.6551C119.207 44.6551 118.727 46.4794 115.436 45.8546C112.144 45.2297 110.738 43.7681 110.738 43.7681L110.571 43.4668C110.07 43.581 109.579 43.7378 109.104 43.9354Z" fill="url(#paint52_linear_370_593)"/>
<path style="mix-blend-mode:multiply" opacity="0.6" d="M104.239 26.8695L104.284 26.5181C104.284 26.5181 107.57 20.7495 114.075 20.5709C120.58 20.3924 122.041 24.4762 122.041 24.4762L123.246 22.6463L120.501 17.0674L101.399 16.7549L96.752 20.504L96.1606 29.6925L98.2304 41.821L103.251 44.4989L104.668 43.2437C104.144 39.1822 101.126 35.4722 101.126 35.4722L103.341 33.9603C103.341 33.9603 108.992 36.694 112.267 35.8739C112.267 35.8739 114.727 28.705 114.582 23.3883C114.577 23.405 106.203 24.6435 104.239 26.8695Z" fill="url(#paint53_linear_370_593)"/>
<path d="M103.949 27.2935C103.949 27.2935 104.267 25.2182 107.77 24.3869C111.676 23.4608 114.85 22.6797 114.85 22.6797C114.85 22.6797 114.158 24.9559 112.858 25.8095C112.858 25.8095 108.724 25.6589 106.632 26.1387C104.54 26.6185 103.949 27.2935 103.949 27.2935Z" fill="#38368E"/>
<path d="M122.041 24.5096C122.041 24.5096 120.061 26.0383 118.694 29.6813C118.694 29.6813 119.988 28.0076 121.176 28.0076C121.279 28.0046 121.382 28.0249 121.475 28.0671C121.569 28.1093 121.652 28.1722 121.719 28.2512C121.785 28.3301 121.832 28.423 121.857 28.5229C121.882 28.6228 121.884 28.727 121.863 28.8277C122.338 27.4358 122.4 25.936 122.041 24.5096Z" fill="#38368E"/>
<path d="M105.26 33.1681C105.26 33.1681 105.472 28.7831 109.751 27.6729C110.665 28.9143 111.241 30.3712 111.425 31.9017C111.425 31.9017 109.171 31.4777 105.26 33.1681Z" fill="url(#paint54_linear_370_593)"/>
<path d="M117.522 34.9143C117.522 34.9143 117.868 31.4219 119.871 30.1332C119.871 30.1332 121.238 31.1541 121.098 34.0775C121.098 34.0775 119.899 33.6479 117.522 34.9143Z" fill="url(#paint55_linear_370_593)"/>
<path d="M105.26 33.1682C105.26 33.1682 106.649 34.8809 110.543 35.2156C111.08 34.1862 111.314 33.0255 111.218 31.8683C111.218 31.8683 107.637 31.5336 105.26 33.1682Z" fill="#FFEBED"/>
<path d="M117.522 34.9143V35.4276C117.522 35.4276 118.119 36.6773 120.267 36.8893C120.75 36.0237 121.008 35.0515 121.02 34.0607C121.02 34.0607 119.653 33.7149 117.522 34.9143Z" fill="#FFEBED"/>
<path d="M109.422 31.7845C108.776 32.6829 108.459 33.7762 108.523 34.8808C109.188 35.0377 109.863 35.1495 110.543 35.2156C111.133 34.2056 111.371 33.028 111.218 31.8682C110.628 31.7416 110.021 31.7133 109.422 31.7845Z" fill="#7F9EC9"/>
<path d="M119.564 34.1166C119.564 34.1166 119.006 34.7191 118.895 36.5546C119.33 36.7421 119.794 36.8553 120.267 36.8893C120.791 36.0411 121.053 35.0572 121.02 34.0608C120.541 33.9298 120.032 33.9493 119.564 34.1166Z" fill="#7F9EC9"/>
<path d="M109.104 35.0092C109.104 35.0092 108.747 32.6382 110.102 31.7344L111.218 31.8738C111.413 33.0347 111.173 34.2267 110.543 35.2212C110.543 35.2212 109.444 35.0761 109.104 35.0092Z" fill="#38368E"/>
<path d="M120.05 34.0161C119.681 34.876 119.433 35.7828 119.313 36.7107C119.62 36.8191 119.942 36.8794 120.267 36.8893C120.819 36.0532 121.083 35.0603 121.02 34.0608C120.704 33.9748 120.373 33.9595 120.05 34.0161Z" fill="#38368E"/>
<path d="M105.26 33.1681C105.26 33.1681 107.849 31.6618 112.261 32.521L111.441 31.9017C110.381 31.6432 109.277 31.6227 108.209 31.8416C107.14 32.0606 106.133 32.5136 105.26 33.1681Z" fill="#131163"/>
<path d="M117.522 34.9143C118.922 34.2458 120.504 34.0632 122.019 34.3955L121.02 33.6591C121.02 33.6591 119.391 33.4024 117.522 34.9143Z" fill="#131163"/>
<path d="M108.061 33.1681C108.307 33.1364 108.557 33.1645 108.79 33.2499C109.023 33.3354 109.232 33.4757 109.399 33.6591C109.153 33.7269 108.891 33.716 108.651 33.628C108.411 33.54 108.205 33.3792 108.061 33.1681Z" fill="white"/>
<path d="M118.471 35.2156C118.471 35.2156 119.586 34.998 119.96 35.5057C119.949 35.5057 119.391 35.9074 118.471 35.2156Z" fill="white"/>
<path d="M105.522 33.4024C106.989 34.7163 108.808 35.5733 110.755 35.8683L110.839 34.6967L110.543 35.1932C110.543 35.1932 107.447 35.0314 105.522 33.4024Z" fill="#C6659C"/>
<path d="M117.522 35.4276C117.522 35.4276 117.879 36.7107 120.501 37.2909L120.418 36.6661L120.267 36.8892C120.267 36.8892 118.409 36.6493 117.522 35.4276Z" fill="#C6659C"/>
<path d="M112.261 40.5714C113.186 40.4315 114.126 40.4315 115.051 40.5714C116.847 40.7834 118.867 41.2743 119.971 40.5714C119.971 40.5714 118.504 42.0386 117.232 42.245C115.96 42.4514 114.024 41.3524 114.024 41.3524H113.182C112.812 41.1771 112.494 40.9078 112.261 40.5714Z" fill="#CB5F7D"/>
<path d="M113.293 41.3803C113.534 41.2272 113.817 41.1531 114.102 41.1683C114.476 41.2408 114.85 41.7764 114.85 41.7764C114.367 41.5316 113.835 41.3963 113.293 41.3803Z" fill="#9F4A8B"/>
<path d="M119.949 40.5713C120.418 40.1139 117.985 35.7791 116.825 35.6228C115.665 35.4666 114.593 40.4765 114.593 40.4765C114.593 40.4765 116.211 40.7052 117.785 40.9117C119.358 41.1181 119.949 40.5713 119.949 40.5713Z" fill="#FFBCAF"/>
<path style="mix-blend-mode:multiply" opacity="0.6" d="M121.695 26.9365C121.037 26.8528 118.711 29.6813 118.711 29.6813C118.711 29.6813 117.232 34.2616 117.522 35.6173C117.812 36.9729 121.428 37.6982 121.428 37.6982L121.578 37.4583C121.385 37.0171 121.237 36.5572 121.137 36.0859C120.853 34.68 121.461 31.4721 121.902 28.8333C121.99 28.4917 122.044 28.1422 122.064 27.79C122.058 27.3716 121.997 26.9699 121.695 26.9365Z" fill="url(#paint56_linear_370_593)"/>
<path d="M121.589 45.5366C120.847 43.9856 121.305 43.1767 114.861 42.3343C105.74 41.1348 104.959 43.9187 103.408 43.4947C103.341 43.4824 103.276 43.4656 103.212 43.4445C101.539 42.7917 97.5777 38.9032 97.4772 33.6646C97.3712 28.2196 101.02 24.359 101.02 24.359C99.6976 23.2432 99.1676 20.0298 100.596 18.6518C102.024 17.2738 104.456 17.5973 110.426 18.2278C116.395 18.8582 116.401 18.4956 116.401 18.4956C118.298 18.9809 119.386 20.7606 119.692 21.3296C119.754 21.4412 119.782 21.5082 119.782 21.5082L120.524 20.822C121.731 22.6025 122.314 24.7334 122.181 26.8807C122.181 26.8807 125.456 20.2194 125.082 19.2766C124.341 17.7004 123.44 16.2047 122.393 14.8135C122.393 14.8135 121.835 9.74223 120.278 9.74223C118.722 9.74223 111.91 11.2709 111.91 11.2709C112.37 10.076 112.586 8.80139 112.546 7.52182H112.518C110.286 9.50234 108.15 9.71991 105.092 11.137C103.991 11.5986 103.012 12.309 102.23 13.2123L102.024 13.4578L101.806 13.72C101.594 13.9878 101.377 14.2779 101.115 14.5401L101.081 14.5736C100.805 14.8709 100.509 15.1487 100.194 15.4048C98.1858 17.0395 93.7672 18.1329 93.2372 19.868C92.7073 21.603 93.9067 23.9517 94.5427 26.3841C94.9222 27.8794 95.0373 29.4295 94.883 30.9644C96.2147 32.9239 96.7198 35.3295 96.2889 37.6591C95.6697 41.2129 94.314 41.7931 94.314 41.7931C93.7443 42.9692 93.5683 44.2974 93.8119 45.5812C95.7645 53.3471 103.854 57.972 103.854 57.972C111.04 60.6499 115.765 59.4839 115.765 59.4839C120.992 56.0752 122.783 44.7946 122.861 44.2702C122.739 44.4431 121.785 45.9494 121.589 45.5366ZM118.365 52.7278C117.098 52.5158 116.831 49.3079 116.412 48.8839C115.994 48.4599 113.695 48.6385 113.695 48.6385C113.695 48.6385 111.581 51.0374 110.738 51.1043C109.896 51.1713 105.383 49.3414 106.359 46.5966C107.335 43.8517 110.738 43.4947 110.738 43.4947C112.012 44.468 113.541 45.0496 115.14 45.1684C117.784 45.3413 118.738 44.8559 119.045 44.7165C119.352 44.577 121.065 45.3469 121.02 47.7458C120.998 49.3916 119.637 52.9286 118.365 52.7278Z" fill="url(#paint57_linear_370_593)"/>
<path d="M118.036 36.5824C118.036 36.5824 120.317 39.4109 120.1 40.4876C119.86 41.6536 117.221 42.2729 117.221 42.2729C117.221 42.2729 119.335 41.5421 119.771 40.4876C119.396 39.1046 118.811 37.7875 118.036 36.5824Z" fill="#D2726C"/>
<path style="mix-blend-mode:multiply" opacity="0.6" d="M122.181 26.8807C122.323 24.7297 121.746 22.5924 120.541 20.8053C121.538 18.9521 122.165 16.9228 122.387 14.8302C122.804 16.1189 123.092 17.4458 123.246 18.7913L125.076 19.2711C125.45 20.2195 122.181 26.8807 122.181 26.8807Z" fill="url(#paint58_linear_370_593)"/>
<path style="mix-blend-mode:multiply" opacity="0.6" d="M119.704 21.3129C119.397 20.755 118.309 18.9642 116.412 18.4788C116.412 18.4788 116.412 18.847 110.437 18.211C104.462 17.5751 102.035 17.2626 100.607 18.635C99.1789 20.0075 99.7089 23.2321 101.031 24.3423C101.031 24.3423 97.3824 28.2029 97.4884 33.6479C97.5889 38.8865 101.539 42.775 103.212 43.4445L103.134 44.0024C103.134 44.0024 103.43 55.9971 106.348 56.9511C109.266 57.9051 115.308 57.4085 115.871 57.972C116.434 58.5355 115.793 59.4281 115.737 59.5118C115.737 59.5118 111.012 60.6778 103.826 57.9999C103.826 57.9999 95.7478 53.375 93.784 45.6091C93.5404 44.3253 93.7165 42.9971 94.2861 41.821C94.2861 41.821 95.6418 41.2631 96.2611 37.6871C96.692 35.3574 96.1868 32.9518 94.8552 30.9924C95.0095 29.4574 94.8943 27.9073 94.5149 26.4121C93.8789 23.9797 92.6794 21.6198 93.2094 19.8959C95.1586 20.2251 97.1594 19.783 98.7883 18.6629C98.7883 18.6629 99.3797 17.8428 101.996 17.4188C104.613 16.9948 115.129 18.0548 115.129 18.0548C114.146 17.3557 113.032 16.8606 111.854 16.5987C109.756 16.0408 102.593 16.688 101.812 16.7494C102.632 16.6043 110.738 15.2096 111.681 15.4885C112.624 15.7675 116.178 17.3909 116.178 17.3909C115.86 15.7786 112.713 11.8957 112.713 11.8957C110.276 11.9539 107.846 12.1926 105.444 12.6098C103.868 12.8949 102.39 13.5744 101.148 14.5847L101.84 13.7646L102.058 13.5024L102.264 13.257L103.279 13.084L108.378 11.0254C110.091 10.1105 112.284 7.84541 112.552 7.56647H112.579C112.619 8.84604 112.403 10.1207 111.943 11.3155C116.25 10.7855 117.706 11.0533 117.706 11.0533C119.637 13.7981 119.704 21.3129 119.704 21.3129Z" fill="url(#paint59_linear_370_593)"/>
<path style="mix-blend-mode:multiply" opacity="0.5" d="M103.832 58.0111C106.013 57.5829 108.239 57.4255 110.459 57.5424C114.443 57.7042 116.73 57.721 115.743 59.5229C115.743 59.5229 110.738 60.6555 103.832 58.0111Z" fill="url(#paint60_linear_370_593)"/>
<path d="M117.679 11.0254C117.679 11.0254 120.1 10.0825 121.059 10.2332C120.86 9.96513 120.592 9.75521 120.284 9.62507C119.888 9.51907 111.916 11.2987 111.916 11.2987C111.916 11.2987 116.886 10.7074 117.679 11.0254Z" fill="url(#paint61_linear_370_593)"/>
<path d="M112.763 11.9236C112.763 11.9236 112.574 14.5624 111.731 15.5164L101.862 16.7772L98.9668 16.264C99.8783 15.8001 100.681 15.1478 101.321 14.3504C102.554 12.9111 108.987 11.4996 112.763 11.9236Z" fill="url(#paint62_linear_370_593)"/>
<path d="M122.382 14.8302C122.79 16.1233 123.08 17.451 123.246 18.7968L125.076 19.2766C124.485 17.6291 123.568 16.1172 122.382 14.8302Z" fill="url(#paint63_linear_370_593)"/>
<path style="mix-blend-mode:multiply" opacity="0.8" d="M95.4912 37.3077C95.4912 37.3077 94.7994 33.9603 93.0979 32.3313C92.631 31.8574 92.0535 31.5073 91.4175 31.3125C90.7815 31.1177 90.107 31.0844 89.4548 31.2155C89.4548 31.2155 89.9848 37.3914 90.5427 38.8977C91.1006 40.404 91.943 40.8001 91.943 40.8001C91.1307 39.9715 90.6504 38.8739 90.5929 37.7149C90.4367 35.6731 90.3809 32.7888 90.8328 32.4484C91.2847 32.1081 93.0979 33.4024 93.0979 33.4024C92.6058 34.1633 92.2912 35.0252 92.1773 35.9241C91.837 37.7484 93.1034 39.0706 93.5777 39.0427C94.0519 39.0148 93.5777 36.9339 93.6334 36.3369C93.6892 35.74 94.766 35.8906 95.4912 37.3077Z" fill="url(#paint64_linear_370_593)"/>
<path style="mix-blend-mode:multiply" opacity="0.8" d="M93.795 33.157C93.2192 33.5806 92.7626 34.1458 92.4694 34.7977C92.1762 35.4496 92.0563 36.1662 92.1214 36.8781C92.3222 39.3831 93.7504 39.2715 93.756 38.7471C93.7616 38.2226 93.4826 36.867 93.6277 36.1026C93.7727 35.3383 95.0057 35.6842 95.0057 35.6842C94.6676 34.812 94.2628 33.9671 93.795 33.157Z" fill="url(#paint65_linear_370_593)"/>
<path d="M122.844 44.3036C122.844 44.3036 120.535 54.8311 115.742 59.5229C115.742 59.5229 121.21 57.3918 122.844 44.3036Z" fill="#34C7FF"/>
<path d="M120.284 9.62506C120.284 9.62506 121.5 10.5735 121.734 13.8595C121.969 17.1454 120.535 20.8052 120.535 20.8052C121.639 19.0767 122.327 17.1153 122.543 15.0757C122.739 12.0798 121.249 10.0044 120.284 9.62506Z" fill="#34C7FF"/>
<path d="M105.539 16.515C107.457 17.1339 109.436 17.5472 111.441 17.748L115.168 18.0827C115.168 18.0827 113.93 16.8777 111.263 16.515C109.36 16.3105 107.441 16.3105 105.539 16.515Z" fill="url(#paint66_linear_370_593)"/>
<path d="M119.151 44.5603C119.151 44.5603 120.496 44.5603 121.026 46.234C121.288 47.0521 121.475 47.8924 121.584 48.7445L122.063 46.8923C122.063 46.8923 121.422 44.5603 120.775 44.0024C120.306 43.6175 119.503 43.2325 119.101 43.3274L119.151 44.5603Z" fill="url(#paint67_linear_370_593)"/>
<path d="M115.514 42.842L115.743 44.8504C116.664 44.9228 117.591 44.8148 118.471 44.5324L118.666 43.3162C117.634 43.0495 116.578 42.8906 115.514 42.842Z" fill="url(#paint68_linear_370_593)"/>
<path d="M123.006 68.8007C123.006 68.8007 132.619 75.8189 133.863 78.2346C135.107 80.6503 135.62 88.2209 137.305 91.5013C137.305 91.5013 136.15 86.1399 135.341 81.9334C134.532 77.7269 134.728 77.6711 134.281 76.6446C133.835 75.6181 126.644 70.6305 123.006 68.8007Z" fill="#34C7FF"/>
<path d="M121.288 107.875C121.288 107.875 116.652 127.708 116.864 129.047C117.076 130.386 120.072 133.12 120.211 133.868C120.211 133.868 117.918 136.936 118.024 137.617C118.13 138.297 122.041 142.593 121.93 143.926C121.902 144.311 119.363 148.496 119.363 148.496C119.363 148.496 122.231 144.384 122.37 143.726C122.51 143.067 118.861 137.589 118.755 137.031C118.476 135.586 120.574 134.526 120.646 133.572C120.719 132.618 117.801 130.297 117.779 128.746C117.757 127.195 121.288 107.875 121.288 107.875Z" fill="#34C7FF"/>
<path d="M127.302 165.651L126.934 165.813L126.488 166.002C124.423 160.278 122.744 156.345 122.331 155.374C122.316 155.348 122.303 155.32 122.292 155.291C122.259 155.229 122.242 155.185 122.231 155.162C124.112 158.563 125.805 162.064 127.302 165.651Z" fill="#34C7FF"/>
<path d="M58.7317 64.2483C58.7317 64.2483 56.1431 63.6904 55.0664 61.4588C53.9896 59.2273 54.6926 55.9246 54.6926 55.9246C55.6131 57.7177 56.628 59.4608 57.7331 61.1464C58.7429 62.4519 59.0163 63.9638 58.7317 64.2483Z" fill="#FFBCAF"/>
<path opacity="0.6" d="M138.683 52.4266L140.48 103.641C140.514 104.618 140.927 105.544 141.63 106.224C142.333 106.903 143.273 107.283 144.251 107.284H232.47C233.457 107.286 234.404 106.9 235.109 106.211C235.815 105.521 236.221 104.583 236.242 103.596L237.48 51.8129C237.497 51.3043 237.412 50.7975 237.228 50.3229C237.045 49.8482 236.767 49.4156 236.413 49.0508C236.058 48.6861 235.633 48.3968 235.163 48.2004C234.694 48.0039 234.19 47.9044 233.681 47.9077L142.432 48.5214C141.928 48.5248 141.429 48.6293 140.965 48.8288C140.502 49.0282 140.083 49.3185 139.733 49.6826C139.384 50.0466 139.111 50.477 138.93 50.9483C138.75 51.4196 138.666 51.9222 138.683 52.4266Z" fill="#C3FFD5"/>
<path d="M232.47 107.424H144.251C143.237 107.424 142.263 107.03 141.534 106.325C140.805 105.621 140.379 104.66 140.346 103.647L138.549 52.4321C138.53 51.9072 138.616 51.3837 138.804 50.8931C138.991 50.4024 139.276 49.9546 139.64 49.5764C140.005 49.1983 140.442 48.8976 140.926 48.6923C141.409 48.4871 141.929 48.3815 142.454 48.3818L233.709 47.7849C234.233 47.783 234.752 47.8856 235.236 48.0868C235.719 48.2879 236.158 48.5836 236.526 48.9564C236.893 49.33 237.18 49.7734 237.372 50.2602C237.563 50.7471 237.655 51.2675 237.642 51.7905L236.403 103.602C236.381 104.628 235.957 105.604 235.221 106.319C234.484 107.034 233.497 107.431 232.47 107.424ZM233.709 48.0638H233.681L142.432 48.6608C141.946 48.6642 141.465 48.7651 141.018 48.9575C140.572 49.15 140.168 49.43 139.832 49.7811C139.495 50.1322 139.233 50.5472 139.059 51.0016C138.886 51.456 138.805 51.9405 138.823 52.4265L140.619 103.635C140.648 104.578 141.044 105.472 141.722 106.128C142.4 106.783 143.308 107.148 144.251 107.145H232.47C233.418 107.139 234.326 106.766 235.003 106.104C235.681 105.442 236.075 104.543 236.102 103.596L237.341 51.8129C237.352 51.3287 237.266 50.8471 237.089 50.3964C236.911 49.9458 236.646 49.5351 236.307 49.1885C235.969 48.8419 235.565 48.5663 235.119 48.378C234.673 48.1897 234.193 48.0923 233.709 48.0917V48.0638Z" fill="#744CA2"/>
<g style="mix-blend-mode:multiply" opacity="0.6">
<path d="M138.817 55.0375H237.374L237.53 52.3373C237.563 51.7719 237.48 51.2059 237.285 50.6741C237.09 50.1423 236.789 49.6561 236.399 49.2456C236.008 48.8351 235.538 48.5091 235.017 48.2875C234.496 48.066 233.935 47.9538 233.369 47.9578L142.153 48.6775C141.701 48.6818 141.254 48.7757 140.838 48.9536C140.423 49.1316 140.046 49.3901 139.731 49.7142C139.416 50.0384 139.167 50.4218 139.001 50.8423C138.835 51.2628 138.753 51.7121 138.761 52.1643L138.817 55.0375Z" fill="#A6CE39"/>
</g>
<g style="mix-blend-mode:multiply" opacity="0.6">
<path d="M143.771 59.1715V88.8067H173.936V59.0153L143.771 59.1715Z" fill="#A6CE39"/>
</g>
<g style="mix-blend-mode:multiply" opacity="0.6">
<path d="M216.213 61.1576H203.092V74.2792H216.213V61.1576Z" fill="#A6CE39"/>
</g>
<g style="mix-blend-mode:multiply" opacity="0.6">
<path d="M231.7 61.1576H218.579V74.2792H231.7V61.1576Z" fill="#A6CE39"/>
</g>
<g style="mix-blend-mode:multiply" opacity="0.6">
<path d="M200.475 61.1576H187.354V74.2792H200.475V61.1576Z" fill="#A6CE39"/>
</g>
<g style="mix-blend-mode:multiply">
<path d="M231.701 81.9335H198.143V85.0744H231.701V81.9335Z" fill="#D1D4FB"/>
</g>
<g style="mix-blend-mode:multiply">
<path d="M231.701 86.7146H189.747V87.6853H231.701V86.7146Z" fill="#D1D4FB"/>
</g>
<g style="mix-blend-mode:multiply">
<path d="M198.171 75.9528H190.143V76.9235H198.171V75.9528Z" fill="#D1D4FB"/>
</g>
<g style="mix-blend-mode:multiply">
<path d="M213.669 75.9528H205.641V76.9235H213.669V75.9528Z" fill="#D1D4FB"/>
</g>
<g style="mix-blend-mode:multiply">
<path d="M229.156 75.9528H221.128V76.9235H229.156V75.9528Z" fill="#D1D4FB"/>
</g>
<g style="mix-blend-mode:multiply">
<path d="M200.849 88.299H187.354V89.2697H200.849V88.299Z" fill="#D1D4FB"/>
</g>
<g style="mix-blend-mode:multiply">
<path d="M231.701 89.8611H189.747V90.8318H231.701V89.8611Z" fill="#D1D4FB"/>
</g>
<g style="mix-blend-mode:multiply">
<path d="M231.701 91.4232H187.354V92.394H231.701V91.4232Z" fill="#D1D4FB"/>
</g>
<g style="mix-blend-mode:multiply">
<path d="M231.701 92.9852H187.354V93.956H231.701V92.9852Z" fill="#D1D4FB"/>
</g>
<g style="mix-blend-mode:multiply">
<path d="M231.701 99.3007H189.747V100.271H231.701V99.3007Z" fill="#D1D4FB"/>
</g>
<g style="mix-blend-mode:multiply">
<path d="M231.701 100.863H187.354V101.833H231.701V100.863Z" fill="#D1D4FB"/>
</g>
<g style="mix-blend-mode:multiply">
<path d="M231.701 102.425H187.354V103.396H231.701V102.425Z" fill="#D1D4FB"/>
</g>
<g style="mix-blend-mode:multiply">
<path d="M229.921 94.5474H187.354V95.5182H229.921V94.5474Z" fill="#D1D4FB"/>
</g>
<g style="mix-blend-mode:multiply">
<path d="M231.701 96.1095H189.747V97.0802H231.701V96.1095Z" fill="#D1D4FB"/>
</g>
<g style="mix-blend-mode:multiply">
<path d="M223.288 97.6715H187.354V98.6422H223.288V97.6715Z" fill="#D1D4FB"/>
</g>
<g style="mix-blend-mode:soft-light">
<g style="mix-blend-mode:soft-light">
<path d="M152.223 82.8652C150.525 82.8663 148.864 82.3636 147.452 81.4209C146.039 80.4781 144.938 79.1375 144.287 77.5688C143.636 76 143.465 74.2735 143.796 72.6076C144.127 70.9417 144.944 69.4113 146.145 68.21C147.345 67.0087 148.875 66.1904 150.541 65.8586C152.206 65.5269 153.933 65.6966 155.502 66.3463C157.071 66.996 158.413 68.0964 159.356 69.5085C160.3 70.9206 160.804 72.5808 160.804 74.2792C160.802 76.5549 159.898 78.7371 158.289 80.3468C156.681 81.9565 154.499 82.8622 152.223 82.8652ZM152.223 66.2567C150.635 66.2556 149.082 66.7256 147.761 67.6074C146.44 68.4891 145.41 69.7428 144.802 71.21C144.193 72.6772 144.034 74.2918 144.344 75.8496C144.653 77.4074 145.418 78.8384 146.541 79.9615C147.664 81.0846 149.095 81.8493 150.653 82.1588C152.211 82.4684 153.825 82.309 155.292 81.7007C156.76 81.0924 158.013 80.0625 158.895 78.7414C159.777 77.4204 160.247 75.8675 160.246 74.2792C160.243 72.1524 159.397 70.1136 157.893 68.6097C156.389 67.1058 154.35 66.2597 152.223 66.2567Z" fill="#E0FFFF"/>
</g>
</g>
<path d="M152.223 78.9432C154.799 78.9432 156.887 76.8551 156.887 74.2792C156.887 71.7034 154.799 69.6152 152.223 69.6152C149.647 69.6152 147.559 71.7034 147.559 74.2792C147.559 76.8551 149.647 78.9432 152.223 78.9432Z" fill="white"/>
<g style="mix-blend-mode:soft-light">
<g style="mix-blend-mode:soft-light">
<path d="M173.936 67.5956C172.238 67.5956 170.578 67.0919 169.166 66.1482C167.754 65.2046 166.653 63.8633 166.003 62.2941C165.354 60.7249 165.184 58.9982 165.516 57.3326C165.847 55.6669 166.666 54.1371 167.867 52.9365C169.068 51.736 170.599 50.9187 172.265 50.588C173.931 50.2573 175.657 50.4282 177.226 51.0789C178.795 51.7296 180.135 52.8309 181.078 54.2436C182.021 55.6563 182.523 57.3169 182.522 59.0152C182.519 61.291 181.614 63.4725 180.004 65.0812C178.394 66.6899 176.212 67.5941 173.936 67.5956ZM173.936 50.9872C172.348 50.9872 170.796 51.458 169.476 52.3402C168.156 53.2223 167.127 54.4761 166.519 55.943C165.912 57.41 165.753 59.0241 166.062 60.5814C166.372 62.1387 167.137 63.5692 168.26 64.6919C169.382 65.8147 170.813 66.5793 172.37 66.8891C173.927 67.1988 175.542 67.0398 177.009 66.4322C178.475 65.8246 179.729 64.7956 180.611 63.4754C181.494 62.1552 181.964 60.6031 181.964 59.0152C181.963 56.8865 181.117 54.8454 179.611 53.3402C178.106 51.8349 176.065 50.9887 173.936 50.9872Z" fill="#E0FFFF"/>
</g>
</g>
<path d="M179.206 59.6136C179.594 57.213 177.962 54.9524 175.562 54.5644C173.161 54.1764 170.9 55.808 170.512 58.2086C170.124 60.6092 171.756 62.8698 174.157 63.2578C176.557 63.6458 178.818 62.0142 179.206 59.6136Z" fill="white"/>
<g style="mix-blend-mode:soft-light">
<g style="mix-blend-mode:soft-light">
<path d="M142.271 51.0151L142.895 50.0667L146.287 53.0346L145.768 53.7599L142.271 51.0151Z" fill="white"/>
</g>
<g style="mix-blend-mode:soft-light">
<path d="M146.371 51.0151L145.746 50.0667L142.354 53.0347L142.873 53.76L146.371 51.0151Z" fill="white"/>
</g>
</g>
<path d="M234.986 50.7083H204.615V52.2313H234.986V50.7083Z" fill="white"/>
<path d="M44.7842 28.7217V41.9047L60.5502 42.0386L60.7622 28.2977L44.7842 28.7217Z" fill="#A6CE39"/>
<path d="M60.7623 28.2977L61.7888 30.0328L61.2756 42.0219L60.5503 42.0386L60.7623 28.2977Z" fill="url(#paint69_linear_370_593)"/>
<path d="M47.6018 33.1737L49.0579 31.0593L56.9298 37.6648L55.7191 39.2771L47.6018 33.1737Z" fill="white"/>
<path d="M57.1306 33.1737L55.6745 31.0593L47.8026 37.6648L49.0077 39.2771L57.1306 33.1737Z" fill="white"/>
<path opacity="0.81" d="M81.5606 183.849H27.6181C26.4639 183.849 25.3556 183.398 24.5307 182.59C23.7058 181.783 23.23 180.685 23.2052 179.531L22.1954 135.29C22.1812 134.701 22.2851 134.116 22.5009 133.568C22.7166 133.02 23.04 132.52 23.4517 132.099C23.8635 131.678 24.3555 131.343 24.8985 131.115C25.4416 130.887 26.0249 130.77 26.6139 130.771H82.7769C83.3668 130.771 83.9509 130.889 84.4944 131.119C85.038 131.348 85.53 131.684 85.9415 132.107C86.3529 132.53 86.6753 133.031 86.8898 133.58C87.1042 134.13 87.2062 134.717 87.1898 135.307L85.9792 179.57C85.9429 180.718 85.4614 181.806 84.6367 182.605C83.812 183.403 82.7087 183.85 81.5606 183.849Z" fill="#050C8F"/>
<path d="M86.0404 132.01C85.6162 131.572 85.1081 131.224 84.5463 130.987C83.9846 130.751 83.3808 130.63 82.7712 130.632H26.6138C26.0065 130.631 25.4051 130.752 24.8451 130.987C24.2851 131.222 23.7778 131.566 23.3531 132C22.9283 132.435 22.5947 132.949 22.3719 133.514C22.1491 134.079 22.0417 134.683 22.0558 135.29V136.501L23.0321 179.537C23.064 180.727 23.5573 181.858 24.4079 182.691C25.2585 183.523 26.3996 183.993 27.5901 184H81.5327C82.3119 184.007 83.0799 183.815 83.7642 183.442C84.1566 183.223 84.5139 182.947 84.8242 182.622C85.6053 181.804 86.053 180.723 86.0795 179.592L86.1966 175.38L86.2692 172.708L86.4588 165.684L86.5425 162.582L86.5872 161.082V160.936V160.379L86.8438 150.967L87.2734 135.346C87.3039 134.735 87.2104 134.125 86.9985 133.552C86.7866 132.978 86.4607 132.454 86.0404 132.01ZM86.3528 160.775V160.925L86.3138 162.365L86.2357 165.372L86.0348 172.652L85.9344 176.312L85.8452 179.548C85.821 180.438 85.5186 181.298 84.9804 182.008C84.6912 182.398 84.334 182.732 83.926 182.996C83.2275 183.456 82.4086 183.701 81.5717 183.698H27.618C26.5024 183.692 25.433 183.252 24.6349 182.473C23.8367 181.694 23.3722 180.635 23.339 179.52L22.3738 136.903L22.3347 135.285C22.3206 134.714 22.4209 134.147 22.6297 133.616C22.8385 133.085 23.1517 132.602 23.5506 132.194C23.9495 131.786 24.4261 131.463 24.9522 131.242C25.4784 131.022 26.0433 130.909 26.6138 130.911H82.7712C83.3431 130.911 83.9093 131.025 84.4362 131.247C84.9632 131.47 85.4402 131.795 85.8391 132.205C86.238 132.615 86.5507 133.101 86.7587 133.633C86.9668 134.166 87.0659 134.735 87.0502 135.307L86.6206 150.928L86.3696 160.167L86.3528 160.775Z" fill="#473DA2"/>
<path d="M65.1028 139.82H36.734V141.037H65.1028V139.82Z" fill="white"/>
<path d="M50.9156 142.772H36.734V143.988H50.9156V142.772Z" fill="white"/>
<path d="M50.9156 145.243H36.734V146.459H50.9156V145.243Z" fill="white"/>
<path d="M63.7974 145.243H52.5112V146.459H63.7974V145.243Z" fill="white"/>
<path d="M59.602 147.709H36.734V148.925H59.602V147.709Z" fill="white"/>
<path d="M44.8737 150.175H36.734V151.391H44.8737V150.175Z" fill="white"/>
<path d="M60.623 157.572H46.5474V158.789H60.623V157.572Z" fill="white"/>
<path d="M62.2464 152.641H36.734V153.857H62.2464V152.641Z" fill="white"/>
<path d="M56.3606 155.107H36.734V156.323H56.3606V155.107Z" fill="white"/>
<path d="M45.9671 157.572H36.734V158.789H45.9671V157.572Z" fill="white"/>
<path d="M50.9156 160.038H36.734V161.254H50.9156V160.038Z" fill="white"/>
<path d="M40.801 162.504H36.734V163.72H40.801V162.504Z" fill="white"/>
<path d="M57.242 162.504H42.4802V163.72H57.242V162.504Z" fill="white"/>
<path d="M60.623 164.898H46.5474V166.114H60.623V164.898Z" fill="white"/>
<path d="M45.9671 164.898H36.734V166.114H45.9671V164.898Z" fill="white"/>
<path d="M50.9156 167.363H36.734V168.58H50.9156V167.363Z" fill="white"/>
<path d="M40.801 169.829H36.734V171.046H40.801V169.829Z" fill="white"/>
<path d="M57.242 169.829H42.4802V171.046H57.242V169.829Z" fill="white"/>
<path opacity="0.73" d="M32.0365 135.084H4.81141C3.76077 135.085 2.75071 134.678 1.99337 133.95C1.23604 133.222 0.790364 132.228 0.749955 131.179L0.141853 113.254C0.123908 112.709 0.215655 112.166 0.411643 111.657C0.60763 111.149 0.903859 110.685 1.28273 110.293C1.66159 109.901 2.11537 109.589 2.61709 109.376C3.11881 109.163 3.65823 109.053 4.20331 109.053H32.5833C33.1269 109.053 33.6649 109.163 34.1655 109.375C34.6661 109.587 35.119 109.897 35.4977 110.287C35.8763 110.677 36.1729 111.139 36.3699 111.646C36.5669 112.152 36.6604 112.693 36.6447 113.237L36.0868 131.145C36.0536 132.198 35.6127 133.198 34.8572 133.933C34.1017 134.667 33.0904 135.08 32.0365 135.084Z" fill="#A6CE39"/>
<path opacity="0.73" d="M32.0365 135.223H4.81139C3.71972 135.228 2.66939 134.806 1.88454 134.047C1.09969 133.289 0.642472 132.253 0.61046 131.162L0.00235753 113.259C-0.0165515 112.695 0.0784442 112.133 0.281663 111.607C0.484882 111.081 0.792149 110.601 1.18509 110.196C1.57423 109.788 2.04268 109.464 2.56169 109.243C3.0807 109.022 3.63933 108.91 4.20328 108.913H32.5832C33.1454 108.914 33.7017 109.028 34.2192 109.248C34.7367 109.467 35.2051 109.788 35.5966 110.192C35.9881 110.595 36.2949 111.073 36.4988 111.597C36.7028 112.121 36.7998 112.68 36.7842 113.242L36.2263 131.151C36.1958 132.241 35.7409 133.277 34.9585 134.038C34.176 134.798 33.1277 135.224 32.0365 135.223ZM4.20328 109.192C3.67752 109.192 3.15708 109.297 2.67318 109.503C2.18928 109.709 1.75188 110.01 1.38721 110.389C1.02253 110.767 0.738091 111.216 0.550934 111.707C0.363777 112.199 0.27776 112.723 0.29804 113.248L0.906142 131.151C0.935191 132.167 1.35942 133.132 2.08867 133.84C2.81792 134.549 3.7947 134.945 4.81139 134.944H32.0365C33.0551 134.945 34.0335 134.547 34.763 133.836C35.4926 133.125 35.9156 132.158 35.9418 131.14L36.4996 113.237C36.5184 112.712 36.4312 112.189 36.2434 111.699C36.0555 111.209 35.7709 110.762 35.4063 110.385C35.0418 110.007 34.6049 109.707 34.1218 109.502C33.6387 109.297 33.1192 109.192 32.5944 109.192H4.20328Z" fill="#A6CE39"/>
<path d="M12.0696 115.485L5.35815 123.268L12.1923 129.07V126.074L8.23688 122.648L11.9078 118.498L12.0696 115.485Z" fill="white"/>
<path d="M23.869 115.837L30.5804 123.614L23.7462 129.416V126.425L27.6961 123L23.2999 118.341L23.869 115.837Z" fill="white"/>
<path d="M13.5311 129.07L19.3778 116.182H22.1282L15.5061 129.07H13.5311Z" fill="white"/>
<path fill-rule="evenodd" clip-rule="evenodd" d="M159.286 137.12L157.657 141.773C158.555 139.201 159.85 137.533 159.286 137.12ZM157.657 141.773L156.028 146.431C156.435 146.309 156.77 144.35 157.657 141.773ZM159.286 137.12L157.657 141.773C158.555 139.201 159.85 137.533 159.286 137.12ZM157.657 141.773L156.028 146.431C156.435 146.309 156.77 144.35 157.657 141.773ZM162.355 145.812L163.939 146.705L165.646 142.046L163.816 141.739C163.85 141.566 163.883 141.394 163.906 141.226C164.032 140.457 164.082 139.678 164.056 138.9L165.97 137.7L165.099 133.594L163.264 135.352C163.026 134.849 162.71 134.388 162.327 133.985C162.228 133.874 162.122 133.769 162.009 133.672L163.125 131.084L160.145 130.113L159.431 132.707C158.732 132.719 158.043 132.881 157.412 133.181L157.083 130.715L153.797 133.198L154.555 135.385C153.935 136.099 153.397 136.881 152.954 137.717L151.37 136.824L149.663 141.483L151.492 141.79C151.305 142.724 151.225 143.677 151.253 144.629L149.339 145.829L150.209 149.935L152.045 148.183C152.345 148.821 152.772 149.39 153.3 149.857L152.184 152.451L155.119 153.567L155.576 151.893L155.883 150.777C156.584 150.763 157.274 150.602 157.908 150.303L158.232 152.769L161.518 150.281L160.759 148.099C161.241 147.541 161.674 146.941 162.053 146.309C162.154 146.18 162.254 145.996 162.349 145.812H162.355ZM157.657 141.773C156.753 144.35 157.657 147 156.028 146.431C154.399 145.862 153.797 143.307 154.695 140.741C155.593 138.175 157.652 136.545 159.286 137.12C160.921 137.695 158.555 139.201 157.657 141.773ZM159.286 137.12L157.657 141.773C158.555 139.201 159.85 137.533 159.286 137.12ZM157.657 141.773L156.028 146.431C156.435 146.309 156.77 144.35 157.657 141.773Z" fill="url(#paint70_linear_370_593)"/>
<path fill-rule="evenodd" clip-rule="evenodd" d="M163.939 146.705L165.646 142.046L163.905 141.226L163.621 141.092L163.805 138.526L165.735 137.583L165.099 133.594L160.887 132.227L161.663 134.074L163.13 131.084L160.151 130.113L158.923 129.717L155.983 128.568L155.425 130.576L152.865 129.36L149.579 131.843L150.577 134.532L147.503 143.051L145.986 148.579L148.904 148.897L147.955 151.09L150.895 152.239L155.102 153.606L154.438 152.233L154.014 151.425L155.571 151.932L158.226 152.797L161.512 150.309L159.481 147.915L162.048 146.337L163.939 146.705ZM154.695 140.741C155.598 138.169 157.651 136.546 159.286 137.12L157.657 141.773L156.028 146.431C154.388 145.857 153.796 143.307 154.695 140.741Z" fill="url(#paint71_linear_370_593)"/>
<path fill-rule="evenodd" clip-rule="evenodd" d="M159.727 145.332L161.434 140.674L159.604 140.367C159.793 139.435 159.875 138.484 159.85 137.533L161.791 136.334L160.915 132.227L159.085 133.979C158.785 133.342 158.357 132.773 157.83 132.306L158.946 129.717L156.006 128.568L155.247 131.357C154.546 131.369 153.856 131.529 153.222 131.826L152.865 129.36L149.579 131.843L150.337 134.029C149.717 134.747 149.178 135.531 148.731 136.367L147.152 135.474L145.445 140.133L147.275 140.44C147.085 141.372 147.003 142.323 147.029 143.274L145.116 144.473L145.986 148.579L147.821 146.827C148.122 147.465 148.549 148.034 149.077 148.501L147.961 151.09L150.901 152.233L151.66 149.444C152.361 149.43 153.051 149.268 153.685 148.97L154.008 151.436L157.294 148.947L156.536 146.766C157.156 146.049 157.695 145.265 158.142 144.429L159.727 145.332ZM151.816 145.059C150.181 144.501 149.584 141.935 150.488 139.368C151.392 136.802 153.439 135.173 155.074 135.748C156.709 136.322 157.306 138.866 156.402 141.438C155.498 144.01 153.451 145.628 151.816 145.059Z" fill="url(#paint72_linear_370_593)"/>
<g style="mix-blend-mode:multiply" opacity="0.5">
<path fill-rule="evenodd" clip-rule="evenodd" d="M165.97 137.7L161.763 136.333L159.85 137.533L164.056 138.9L165.97 137.7Z" fill="#601734"/>
</g>
<g style="mix-blend-mode:soft-light">
<path fill-rule="evenodd" clip-rule="evenodd" d="M161.512 150.331L157.3 148.959L156.541 146.777L160.753 148.15L161.512 150.331Z" fill="#B3D9FF"/>
</g>
<g style="mix-blend-mode:multiply" opacity="0.5">
<path fill-rule="evenodd" clip-rule="evenodd" d="M157.802 132.306L160.112 132.969L160.887 132.227L162.421 132.724L163.13 131.084L158.923 129.711L157.802 132.306Z" fill="#601734"/>
</g>
<g style="mix-blend-mode:multiply" opacity="0.5">
<path fill-rule="evenodd" clip-rule="evenodd" d="M151.665 149.444L153.897 150.359L153.713 148.97C153.086 149.31 152.378 149.474 151.665 149.444Z" fill="#601734"/>
</g>
<g style="mix-blend-mode:multiply" opacity="0.5">
<path fill-rule="evenodd" clip-rule="evenodd" d="M152.006 136.83L155.721 138.794C155.997 138.42 156.317 138.08 156.675 137.784C156.675 137.784 155.704 133.689 152.006 136.83Z" fill="#601734"/>
</g>
<defs>
<linearGradient id="paint0_linear_370_593" x1="35.9481" y1="113.978" x2="19.2672" y2="77.8362" gradientUnits="userSpaceOnUse">
<stop stop-color="#DBCCFF"/>
<stop offset="1" stop-color="#D1BBFF"/>
</linearGradient>
<linearGradient id="paint1_linear_370_593" x1="36.5995" y1="115.389" x2="19.9187" y2="79.2475" gradientUnits="userSpaceOnUse">
<stop stop-color="#B5A6E7"/>
<stop offset="1" stop-color="#7760BF"/>
</linearGradient>
<linearGradient id="paint2_linear_370_593" x1="32.4522" y1="106.403" x2="25.4205" y2="91.1679" gradientUnits="userSpaceOnUse">
<stop stop-color="#B5A6E7"/>
<stop offset="1" stop-color="#7760BF"/>
</linearGradient>
<linearGradient id="paint3_linear_370_593" x1="23.3983" y1="92.4707" x2="27.7187" y2="90.4767" gradientUnits="userSpaceOnUse">
<stop stop-color="#8B8BE0"/>
<stop offset="1" stop-color="#A177B7"/>
</linearGradient>
<linearGradient id="paint4_linear_370_593" x1="26.025" y1="92.4778" x2="24.8159" y2="89.8582" gradientUnits="userSpaceOnUse">
<stop stop-color="white"/>
<stop offset="1" stop-color="#A177B7"/>
</linearGradient>
<linearGradient id="paint5_linear_370_593" x1="35.4537" y1="106.902" x2="27.7026" y2="90.1083" gradientUnits="userSpaceOnUse">
<stop/>
<stop offset="1" stop-color="white"/>
</linearGradient>
<linearGradient id="paint6_linear_370_593" x1="95.1342" y1="183.989" x2="95.1342" y2="150.716" gradientUnits="userSpaceOnUse">
<stop stop-color="#6456C0"/>
<stop offset="1" stop-color="#5F2C95"/>
</linearGradient>
<radialGradient id="paint7_radial_370_593" cx="0" cy="0" r="1" gradientUnits="userSpaceOnUse" gradientTransform="translate(75.0723 170.65) scale(12.1899)">
<stop stop-color="#4B474B"/>
<stop offset="1"/>
</radialGradient>
<radialGradient id="paint8_radial_370_593" cx="0" cy="0" r="1" gradientUnits="userSpaceOnUse" gradientTransform="translate(117.243 164.306) scale(7.55944 7.55944)">
<stop stop-color="#4B474B"/>
<stop offset="1"/>
</radialGradient>
<linearGradient id="paint9_linear_370_593" x1="91.0559" y1="169.205" x2="95.8147" y2="169.205" gradientUnits="userSpaceOnUse">
<stop stop-color="#050C8F"/>
<stop offset="1" stop-color="#CAAFEE"/>
</linearGradient>
<linearGradient id="paint10_linear_370_593" x1="100.211" y1="168.82" x2="104.523" y2="168.82" gradientUnits="userSpaceOnUse">
<stop stop-color="#9E8CEF"/>
<stop offset="1" stop-color="#CAAFEE"/>
</linearGradient>
<radialGradient id="paint11_radial_370_593" cx="0" cy="0" r="1" gradientUnits="userSpaceOnUse" gradientTransform="translate(85.0195 179.375) scale(2.97915 2.97914)">
<stop stop-color="#4B474B"/>
<stop offset="1"/>
</radialGradient>
<radialGradient id="paint12_radial_370_593" cx="0" cy="0" r="1" gradientUnits="userSpaceOnUse" gradientTransform="translate(97.1201 161.807) scale(19.7159 19.7159)">
<stop stop-color="#4B474B"/>
<stop offset="1"/>
</radialGradient>
<linearGradient id="paint13_linear_370_593" x1="102.917" y1="172.351" x2="102.917" y2="162.024" gradientUnits="userSpaceOnUse">
<stop stop-color="#0011AA"/>
<stop offset="1" stop-color="#050C8F"/>
</linearGradient>
<linearGradient id="paint14_linear_370_593" x1="87.1952" y1="170.61" x2="87.1952" y2="157.31" gradientUnits="userSpaceOnUse">
<stop stop-color="#0011AA"/>
<stop offset="1" stop-color="#050C8F"/>
</linearGradient>
<linearGradient id="paint15_linear_370_593" x1="100.68" y1="75.7688" x2="100.68" y2="55.9022" gradientUnits="userSpaceOnUse">
<stop stop-color="#0011AA"/>
<stop offset="1" stop-color="#050C8F"/>
</linearGradient>
<linearGradient id="paint16_linear_370_593" x1="90.4534" y1="65.816" x2="110.911" y2="65.816" gradientUnits="userSpaceOnUse">
<stop stop-color="#0011AA"/>
<stop offset="1" stop-color="#050C8F"/>
</linearGradient>
<linearGradient id="paint17_linear_370_593" x1="94.8328" y1="155.146" x2="94.8328" y2="55.0375" gradientUnits="userSpaceOnUse">
<stop stop-color="#0011AA"/>
<stop offset="1" stop-color="#050C8F"/>
</linearGradient>
<linearGradient id="paint18_linear_370_593" x1="53.2865" y1="92.7622" x2="77.6664" y2="92.7622" gradientUnits="userSpaceOnUse">
<stop stop-color="#0011AA"/>
<stop offset="1" stop-color="#050C8F"/>
</linearGradient>
<linearGradient id="paint19_linear_370_593" x1="52.5335" y1="120.802" x2="52.5335" y2="73.9891" gradientUnits="userSpaceOnUse">
<stop stop-color="#0011AA"/>
<stop offset="1" stop-color="#050C8F"/>
</linearGradient>
<linearGradient id="paint20_linear_370_593" x1="133.032" y1="107.312" x2="164.447" y2="107.312" gradientUnits="userSpaceOnUse">
<stop stop-color="#0011AA"/>
<stop offset="1" stop-color="#050C8F"/>
</linearGradient>
<linearGradient id="paint21_linear_370_593" x1="42.3184" y1="67.6068" x2="42.3184" y2="55.2607" gradientUnits="userSpaceOnUse">
<stop offset="0.02" stop-color="#FFC2A9"/>
<stop offset="1" stop-color="#FF9595"/>
</linearGradient>
<linearGradient id="paint22_linear_370_593" x1="50.0899" y1="67.3112" x2="50.0899" y2="46.8812" gradientUnits="userSpaceOnUse">
<stop stop-color="#FFEADB"/>
<stop offset="0.99" stop-color="#C27CB6"/>
</linearGradient>
<linearGradient id="paint23_linear_370_593" x1="49.426" y1="81.2138" x2="49.426" y2="49.7152" gradientUnits="userSpaceOnUse">
<stop offset="0.02" stop-color="#FFC2A9"/>
<stop offset="1" stop-color="#FF9595"/>
</linearGradient>
<linearGradient id="paint24_linear_370_593" x1="43.7911" y1="76.2988" x2="53.6937" y2="76.2988" gradientUnits="userSpaceOnUse">
<stop offset="0.02" stop-color="#D1A1D6"/>
<stop offset="0.99" stop-color="#BD89C4"/>
</linearGradient>
<linearGradient id="paint25_linear_370_593" x1="165.094" y1="100.4" x2="165.094" y2="58.2788" gradientUnits="userSpaceOnUse">
<stop offset="0.02" stop-color="#FFC2A9"/>
<stop offset="1" stop-color="#FF9595"/>
</linearGradient>
<linearGradient id="paint26_linear_370_593" x1="170.07" y1="86.9043" x2="170.07" y2="65.9777" gradientUnits="userSpaceOnUse">
<stop stop-color="#FFEADB"/>
<stop offset="0.99" stop-color="#C27CB6"/>
</linearGradient>
<linearGradient id="paint27_linear_370_593" x1="174.199" y1="79.6796" x2="174.199" y2="70.3014" gradientUnits="userSpaceOnUse">
<stop stop-color="#FFB0B0"/>
<stop offset="0.98" stop-color="#FFC2A9"/>
</linearGradient>
<linearGradient id="paint28_linear_370_593" x1="179.638" y1="81.1245" x2="179.638" y2="75.9807" gradientUnits="userSpaceOnUse">
<stop stop-color="#FFB0B0"/>
<stop offset="0.98" stop-color="#FFC2A9"/>
</linearGradient>
<linearGradient id="paint29_linear_370_593" x1="157.635" y1="91.3786" x2="167.203" y2="91.3786" gradientUnits="userSpaceOnUse">
<stop offset="0.02" stop-color="#D1A1D6"/>
<stop offset="0.99" stop-color="#BD89C4"/>
</linearGradient>
<linearGradient id="paint30_linear_370_593" x1="144.323" y1="124.4" x2="144.323" y2="77.2527" gradientUnits="userSpaceOnUse">
<stop stop-color="#0011AA"/>
<stop offset="1" stop-color="#050C8F"/>
</linearGradient>
<linearGradient id="paint31_linear_370_593" x1="40.511" y1="114.899" x2="119.369" y2="114.899" gradientUnits="userSpaceOnUse">
<stop stop-color="#0011AA"/>
<stop offset="1" stop-color="#050C8F"/>
</linearGradient>
<linearGradient id="paint32_linear_370_593" x1="110.035" y1="101.705" x2="125.11" y2="101.705" gradientUnits="userSpaceOnUse">
<stop stop-color="#CCEDFF"/>
<stop offset="1" stop-color="#755CBB"/>
</linearGradient>
<linearGradient id="paint33_linear_370_593" x1="96.3615" y1="128.16" x2="118.515" y2="128.16" gradientUnits="userSpaceOnUse">
<stop stop-color="#CCEDFF"/>
<stop offset="1" stop-color="#755CBB"/>
</linearGradient>
<linearGradient id="paint34_linear_370_593" x1="97.388" y1="138.175" x2="121.054" y2="138.175" gradientUnits="userSpaceOnUse">
<stop stop-color="#CCEDFF"/>
<stop offset="1" stop-color="#755CBB"/>
</linearGradient>
<linearGradient id="paint35_linear_370_593" x1="77.0195" y1="113.376" x2="77.0195" y2="86.815" gradientUnits="userSpaceOnUse">
<stop stop-color="#CCEDFF"/>
<stop offset="1" stop-color="#755CBB"/>
</linearGradient>
<linearGradient id="paint36_linear_370_593" x1="79.1616" y1="115.608" x2="79.1616" y2="95.4735" gradientUnits="userSpaceOnUse">
<stop stop-color="#CCEDFF"/>
<stop offset="1" stop-color="#755CBB"/>
</linearGradient>
<linearGradient id="paint37_linear_370_593" x1="47.3395" y1="89.8723" x2="47.3395" y2="74.6586" gradientUnits="userSpaceOnUse">
<stop stop-color="#CCEDFF"/>
<stop offset="1" stop-color="#755CBB"/>
</linearGradient>
<linearGradient id="paint38_linear_370_593" x1="59.6467" y1="76.4772" x2="65.778" y2="76.4772" gradientUnits="userSpaceOnUse">
<stop stop-color="#CCEDFF"/>
<stop offset="1" stop-color="#755CBB"/>
</linearGradient>
<linearGradient id="paint39_linear_370_593" x1="126.292" y1="113.376" x2="126.292" y2="85.1804" gradientUnits="userSpaceOnUse">
<stop stop-color="#0011AA"/>
<stop offset="1" stop-color="#050C8F"/>
</linearGradient>
<linearGradient id="paint40_linear_370_593" x1="157.992" y1="107.312" x2="157.992" y2="92.5781" gradientUnits="userSpaceOnUse">
<stop stop-color="#0011AA"/>
<stop offset="1" stop-color="#050C8F"/>
</linearGradient>
<linearGradient id="paint41_linear_370_593" x1="141.283" y1="106.654" x2="141.283" y2="95.3898" gradientUnits="userSpaceOnUse">
<stop stop-color="#0011AA"/>
<stop offset="1" stop-color="#050C8F"/>
</linearGradient>
<linearGradient id="paint42_linear_370_593" x1="44.1539" y1="90.843" x2="44.1539" y2="86.6588" gradientUnits="userSpaceOnUse">
<stop stop-color="#CCEDFF"/>
<stop offset="1" stop-color="#755CBB"/>
</linearGradient>
<linearGradient id="paint43_linear_370_593" x1="55.3285" y1="103.596" x2="55.3285" y2="80.734" gradientUnits="userSpaceOnUse">
<stop stop-color="#0011AA"/>
<stop offset="1" stop-color="#050C8F"/>
</linearGradient>
<linearGradient id="paint44_linear_370_593" x1="114.142" y1="87.5012" x2="114.142" y2="70.3014" gradientUnits="userSpaceOnUse">
<stop stop-color="#CCEDFF"/>
<stop offset="1" stop-color="#755CBB"/>
</linearGradient>
<linearGradient id="paint45_linear_370_593" x1="91.6026" y1="85.1804" x2="91.6026" y2="61.4365" gradientUnits="userSpaceOnUse">
<stop stop-color="#CCEDFF"/>
<stop offset="1" stop-color="#755CBB"/>
</linearGradient>
<linearGradient id="paint46_linear_370_593" x1="87.0056" y1="66.636" x2="112.814" y2="66.636" gradientUnits="userSpaceOnUse">
<stop stop-color="#0011AA"/>
<stop offset="1" stop-color="#050C8F"/>
</linearGradient>
<linearGradient id="paint47_linear_370_593" x1="153.35" y1="105.633" x2="153.35" y2="90.6979" gradientUnits="userSpaceOnUse">
<stop stop-color="#0011AA"/>
<stop offset="1" stop-color="#050C8F"/>
</linearGradient>
<linearGradient id="paint48_linear_370_593" x1="132.24" y1="122.481" x2="132.24" y2="77.2527" gradientUnits="userSpaceOnUse">
<stop stop-color="#0011AA"/>
<stop offset="1" stop-color="#050C8F"/>
</linearGradient>
<linearGradient id="paint49_linear_370_593" x1="108.802" y1="140.166" x2="108.802" y2="133.868" gradientUnits="userSpaceOnUse">
<stop stop-color="#0011AA"/>
<stop offset="1" stop-color="#050C8F"/>
</linearGradient>
<linearGradient id="paint50_linear_370_593" x1="108.523" y1="59.2328" x2="108.523" y2="16.158" gradientUnits="userSpaceOnUse">
<stop offset="0.02" stop-color="#FFC2A9"/>
<stop offset="1" stop-color="#FF9595"/>
</linearGradient>
<linearGradient id="paint51_linear_370_593" x1="92.4674" y1="41.8545" x2="92.4674" y2="29.1513" gradientUnits="userSpaceOnUse">
<stop offset="0.02" stop-color="#FFC2A9"/>
<stop offset="1" stop-color="#FF9595"/>
</linearGradient>
<linearGradient id="paint52_linear_370_593" x1="114.51" y1="46.6579" x2="115.045" y2="43.8852" gradientUnits="userSpaceOnUse">
<stop stop-color="#E1616A"/>
<stop offset="1" stop-color="#FF8883"/>
</linearGradient>
<linearGradient id="paint53_linear_370_593" x1="109.706" y1="44.5324" x2="109.706" y2="16.7884" gradientUnits="userSpaceOnUse">
<stop stop-color="#FFEADB"/>
<stop offset="0.99" stop-color="#C27CB6"/>
</linearGradient>
<linearGradient id="paint54_linear_370_593" x1="108.351" y1="33.1681" x2="108.351" y2="27.6729" gradientUnits="userSpaceOnUse">
<stop stop-color="#CF6074"/>
<stop offset="1" stop-color="#F37270"/>
</linearGradient>
<linearGradient id="paint55_linear_370_593" x1="119.313" y1="34.9143" x2="119.313" y2="30.1332" gradientUnits="userSpaceOnUse">
<stop stop-color="#CF6074"/>
<stop offset="1" stop-color="#FF817F"/>
</linearGradient>
<linearGradient id="paint56_linear_370_593" x1="119.765" y1="37.6982" x2="119.765" y2="26.9365" gradientUnits="userSpaceOnUse">
<stop stop-color="#FFEADB"/>
<stop offset="0.99" stop-color="#C27CB6"/>
</linearGradient>
<linearGradient id="paint57_linear_370_593" x1="109.104" y1="59.774" x2="109.104" y2="7.53856" gradientUnits="userSpaceOnUse">
<stop stop-color="#2E33A0"/>
<stop offset="1" stop-color="#0665A5"/>
</linearGradient>
<linearGradient id="paint58_linear_370_593" x1="122.822" y1="26.8807" x2="122.822" y2="14.8302" gradientUnits="userSpaceOnUse">
<stop stop-color="#FFEADB"/>
<stop offset="0.99" stop-color="#8860C7"/>
</linearGradient>
<linearGradient id="paint59_linear_370_593" x1="106.398" y1="59.774" x2="106.398" y2="7.53857" gradientUnits="userSpaceOnUse">
<stop stop-color="#CCC2DB"/>
<stop offset="0.99" stop-color="#8860C7"/>
</linearGradient>
<linearGradient id="paint60_linear_370_593" x1="109.902" y1="59.7628" x2="109.902" y2="57.5201" gradientUnits="userSpaceOnUse">
<stop stop-color="#776D7E"/>
<stop offset="1" stop-color="#9D68C2"/>
</linearGradient>
<linearGradient id="paint61_linear_370_593" x1="116.49" y1="11.2876" x2="116.49" y2="9.61949" gradientUnits="userSpaceOnUse">
<stop stop-color="#1F77D1"/>
<stop offset="1" stop-color="#0686C9"/>
</linearGradient>
<linearGradient id="paint62_linear_370_593" x1="105.868" y1="16.7772" x2="105.868" y2="11.8455" gradientUnits="userSpaceOnUse">
<stop stop-color="#1F77D1"/>
<stop offset="1" stop-color="#0686C9"/>
</linearGradient>
<linearGradient id="paint63_linear_370_593" x1="123.732" y1="19.2766" x2="123.732" y2="14.8302" gradientUnits="userSpaceOnUse">
<stop stop-color="#1F77D1"/>
<stop offset="1" stop-color="#0686C9"/>
</linearGradient>
<linearGradient id="paint64_linear_370_593" x1="94.3141" y1="38.8419" x2="88.6292" y2="31.8738" gradientUnits="userSpaceOnUse">
<stop stop-color="#FFEADB"/>
<stop offset="0.99" stop-color="#B060F4"/>
</linearGradient>
<linearGradient id="paint65_linear_370_593" x1="94.9108" y1="37.9437" x2="92.1102" y2="34.5182" gradientUnits="userSpaceOnUse">
<stop stop-color="#FFEADB"/>
<stop offset="0.99" stop-color="#B060F4"/>
</linearGradient>
<linearGradient id="paint66_linear_370_593" x1="105.539" y1="17.218" x2="115.168" y2="17.218" gradientUnits="userSpaceOnUse">
<stop stop-color="#1F77D1"/>
<stop offset="1" stop-color="#0686C9"/>
</linearGradient>
<linearGradient id="paint67_linear_370_593" x1="119.123" y1="46.0276" x2="122.047" y2="46.0276" gradientUnits="userSpaceOnUse">
<stop stop-color="#1F77D1"/>
<stop offset="1" stop-color="#0686C9"/>
</linearGradient>
<linearGradient id="paint68_linear_370_593" x1="115.514" y1="43.8518" x2="118.666" y2="43.8518" gradientUnits="userSpaceOnUse">
<stop stop-color="#1F77D1"/>
<stop offset="1" stop-color="#0686C9"/>
</linearGradient>
<linearGradient id="paint69_linear_370_593" x1="61.1696" y1="42.0386" x2="61.1696" y2="28.3033" gradientUnits="userSpaceOnUse">
<stop stop-color="#0011AA"/>
<stop offset="1" stop-color="#050C8F"/>
</linearGradient>
<linearGradient id="paint70_linear_370_593" x1="156.621" y1="154.299" x2="160.124" y2="130.476" gradientUnits="userSpaceOnUse">
<stop stop-color="#1852A0"/>
<stop offset="1" stop-color="#067ED3"/>
</linearGradient>
<linearGradient id="paint71_linear_370_593" x1="153.988" y1="153.691" x2="160.334" y2="130.016" gradientUnits="userSpaceOnUse">
<stop stop-color="#1852A0"/>
<stop offset="1" stop-color="#067ED3"/>
</linearGradient>
<linearGradient id="paint72_linear_370_593" x1="149.765" y1="152.728" x2="153.503" y2="128.781" gradientUnits="userSpaceOnUse">
<stop stop-color="#188DC1"/>
<stop offset="1" stop-color="#06BFE7"/>
</linearGradient>
</defs>
</svg>
