<svg width="201" height="184" viewBox="0 0 201 184" fill="none" xmlns="http://www.w3.org/2000/svg">
<path d="M87.9713 153.214C130.28 153.214 164.578 118.916 164.578 76.6072C164.578 34.2982 130.28 0 87.9713 0C45.6623 0 11.3641 34.2982 11.3641 76.6072C11.3641 118.916 45.6623 153.214 87.9713 153.214Z" fill="#F5FFD8"/>
<path d="M99.0301 104.941C99.0301 104.941 77.6755 130.842 70.1226 130.181C62.5696 129.519 57.394 116.874 57.394 116.874C57.394 116.874 57.6531 116.735 58.0924 116.472C60.3033 115.167 67.1023 110.848 68.6934 106.236C70.2336 103.734 81.4358 85.5708 84.8446 80.9363C88.5124 75.955 92.8277 75.7608 92.8277 75.7608C95.2606 79.7615 98.3317 82.8049 102.138 83.3785C102.641 83.4549 103.147 83.5059 103.655 83.5311C103.887 85.1592 105.417 93.466 112.878 97.7166C112.878 97.7166 113.165 91.9304 116.99 91.417C116.99 91.417 121.041 89.197 124.39 92.4438C124.39 92.4438 129.691 86.7548 124.39 70.7794L120.607 67.3568L118.868 63.2265C118.868 63.2265 138.224 62.2598 142.701 66.4086C147.178 70.5574 175.818 108.452 175.818 108.452L134.158 140.796C134.158 140.796 108.896 115.746 99.0301 104.941Z" fill="white"/>
<path d="M124.385 70.7655C129.686 86.741 124.385 92.43 124.385 92.43C121.041 89.1923 116.985 91.4032 116.985 91.4032L122.387 71.5981L120.597 67.3429L124.385 70.7655Z" fill="#D7F2ED"/>
<path d="M111.389 87.7215L116.99 91.4217C113.165 91.9351 112.878 97.7212 112.878 97.7212C105.417 93.4706 103.887 85.1638 103.655 83.5357C104.11 83.5613 104.565 83.5613 105.02 83.5357L111.389 87.7215Z" fill="#D7F2ED"/>
<path d="M98.9006 104.733L91.9119 96.1024C91.7223 95.8711 91.3985 96.2041 91.5835 96.4308L98.5722 105.061C98.7618 105.293 99.0856 104.964 98.9006 104.733Z" fill="#2E303D"/>
<path d="M96.8564 105.297L91.9074 103.174C91.6391 103.059 91.4032 103.456 91.6761 103.572L96.6251 105.7C96.898 105.815 97.1292 105.418 96.8564 105.297Z" fill="#2E303D"/>
<path d="M133.668 118.488L127.378 108.082L121.115 97.7212L117.563 91.8518C117.411 91.5974 117.008 91.8287 117.166 92.0831C119.259 95.5551 121.356 99.0255 123.456 102.494L129.732 112.855L133.284 118.724C133.321 118.761 133.369 118.785 133.421 118.791C133.473 118.798 133.526 118.786 133.57 118.759C133.615 118.731 133.649 118.69 133.666 118.641C133.684 118.592 133.685 118.538 133.668 118.488Z" fill="#2E303D"/>
<path d="M69.0312 104.53C69.0038 105.112 68.89 105.687 68.6935 106.236C67.1025 110.861 60.3034 115.167 58.0926 116.472L57.3942 113.914C57.3942 113.914 53.8096 114.719 51.1871 112.448C51.1138 112.585 51.0072 112.701 50.8773 112.785C50.4837 112.981 50.0387 113.047 49.6053 112.975C47.6244 112.794 45.7368 112.05 44.1661 110.829C43.2008 110.16 42.4939 109.181 42.1634 108.054C42.0273 107.516 42.0624 106.948 42.2638 106.431C42.4653 105.914 42.823 105.472 43.2873 105.168C43.2503 104.996 43.2271 104.821 43.2179 104.645C43.2239 104.141 43.3337 103.644 43.5407 103.185C43.7476 102.726 44.0471 102.314 44.4205 101.976C45.1126 101.346 45.8913 100.818 46.7331 100.408L46.7608 100.293C46.9905 99.5845 47.4473 98.9716 48.0605 98.5491C48.6109 98.1675 49.2 97.845 49.8181 97.5871C46.8533 96.0608 44.0088 94.3494 44.2956 93.6094C44.8737 92.0692 50.9466 92.615 57.0889 94.7657C63.2312 96.9164 65.2154 100.122 65.2154 100.122C67.1302 99.2753 69.2208 99.4418 69.0312 104.53Z" fill="#FF9971"/>
<path d="M66.7785 105.394L62.4863 107.244L60.3125 108.17C59.7158 108.424 58.9943 108.84 58.3237 108.632C57.653 108.424 57.5975 107.601 57.8611 107.022C58.1672 106.45 58.5365 105.913 58.9619 105.422C59.7524 104.442 60.6404 103.545 61.6122 102.744C62.739 101.819 63.9736 101.033 65.2892 100.404C65.5575 100.274 65.3216 99.8719 65.0579 100.001C62.5079 101.23 60.2713 103.024 58.5179 105.246C57.838 106.107 56.5568 107.633 57.5929 108.715C57.8379 108.929 58.1374 109.071 58.4581 109.126C58.7788 109.181 59.1084 109.146 59.4106 109.025C60.1589 108.756 60.8923 108.448 61.6075 108.1L67.0144 105.788C67.2873 105.677 67.0653 105.279 66.7785 105.394Z" fill="#2E303D"/>
<path d="M55.5023 100.778L50.1186 97.564C50.0664 97.5404 50.0074 97.537 49.9529 97.5544C49.8983 97.5719 49.8522 97.609 49.8234 97.6585C49.7947 97.7079 49.7853 97.7664 49.7971 97.8224C49.8089 97.8784 49.8411 97.928 49.8874 97.9617L55.2711 101.176C55.3233 101.2 55.3823 101.203 55.4368 101.186C55.4914 101.168 55.5375 101.131 55.5663 101.082C55.595 101.032 55.6044 100.974 55.5926 100.918C55.5808 100.862 55.5487 100.812 55.5023 100.778Z" fill="#2E303D"/>
<path d="M56.335 109.441C56.256 109.009 56.1159 108.59 55.9187 108.197C55.7337 107.735 55.5533 107.314 55.3683 106.874C54.5173 104.839 53.6678 102.807 52.8198 100.778C52.7042 100.506 52.2555 100.626 52.3573 100.899C53.0449 102.539 53.7325 104.183 54.4201 105.829L55.4608 108.322C55.6689 108.826 56.3211 110.172 55.3822 110.367C54.73 110.515 53.9622 109.862 53.4627 109.511C52.8885 109.106 52.3415 108.664 51.8254 108.188C50.7957 107.245 49.8869 106.177 49.1196 105.011C48.2513 103.693 47.5739 102.259 47.1077 100.751C47.0198 100.464 46.5712 100.589 46.6452 100.871C47.7682 104.53 50.0794 107.71 53.213 109.909C53.7865 110.316 54.4803 110.857 55.2203 110.834C55.3899 110.829 55.5563 110.787 55.7082 110.711C55.86 110.636 55.9936 110.528 56.0996 110.395C56.2056 110.263 56.2816 110.109 56.3222 109.944C56.3629 109.78 56.3672 109.608 56.335 109.441Z" fill="#2E303D"/>
<path d="M52.4497 109.687C52.2693 109.451 51.8715 109.687 52.0473 109.918C52.2151 110.11 52.3076 110.356 52.3076 110.612C52.3076 110.867 52.2151 111.113 52.0473 111.305C51.8678 111.483 51.6354 111.598 51.3851 111.632C51.1349 111.666 50.8803 111.618 50.6597 111.495C50.1937 111.256 49.7587 110.961 49.3647 110.616C48.9438 110.283 48.5321 109.946 48.1251 109.594C46.5151 108.204 45.0337 106.671 43.6988 105.015C43.5138 104.784 43.1854 105.112 43.3704 105.344C44.598 106.864 45.9485 108.281 47.4082 109.58C48.1205 110.214 48.8559 110.82 49.619 111.389C50.2897 111.893 51.1639 112.369 51.9871 111.921C52.1768 111.816 52.3415 111.671 52.47 111.497C52.5985 111.322 52.6878 111.122 52.7317 110.91C52.7756 110.698 52.7732 110.479 52.7245 110.267C52.6758 110.056 52.5821 109.858 52.4497 109.687Z" fill="#2E303D"/>
<path d="M122.392 71.612L116.99 91.4171L111.389 87.7169C117.152 79.5303 116.014 69.8081 116.014 69.8081C116.014 69.8081 115.117 82.9021 105.006 83.5172C104.551 83.5428 104.096 83.5428 103.641 83.5172C103.134 83.492 102.627 83.4411 102.124 83.3646C98.3317 82.7911 95.2791 79.7616 92.8277 75.7608C87.9944 67.8147 85.6587 56.1129 85.025 52.5191C90.7186 51.7745 96.2504 49.3833 101.653 47.2279C103.322 46.5619 105.085 45.9005 106.874 46.0994C108.664 46.2982 110.348 47.3898 111.578 48.7635C112.618 50.003 113.505 51.3634 114.219 52.8152C114.432 51.5108 115.315 47.5979 118.276 48.7265C118.624 48.858 118.939 49.0631 119.201 49.3278C121.657 51.8069 120.755 59.5032 117.97 61.0711L118.895 63.2265L120.63 67.3522L122.392 71.612Z" fill="#FF9971"/>
<path d="M116.028 69.8128C116.028 69.8128 117.152 79.5257 111.402 87.7215L105.034 83.5219C115.13 82.9067 116.028 69.8128 116.028 69.8128Z" fill="#2E303D"/>
<path d="M118.687 42.3344C118.414 40.5954 117.989 38.7869 116.837 37.4641C115.796 36.2847 113.997 35.6557 112.587 36.2384C112.798 35.4476 112.852 34.6226 112.744 33.811C112.635 32.9994 112.367 32.2173 111.956 31.5097C111.544 30.802 110.996 30.1829 110.344 29.6879C109.692 29.1928 108.948 28.8317 108.156 28.6254C104.233 27.6032 100.649 30.184 97.4668 32.0665C95.7857 33.0975 93.9558 33.8635 92.0415 34.3375C89.1923 35.0162 86.2183 34.9685 83.3923 34.1987C82.4561 33.9028 81.4946 33.6938 80.5201 33.5743C78.8874 33.4448 77.2269 34.0646 76.5702 35.6603C75.9596 37.145 76.2695 38.8979 76.8662 40.3179C77.2855 41.3342 77.8734 42.2725 78.6052 43.093C77.6463 42.9764 76.6751 43.1649 75.8293 43.6316C74.9836 44.0983 74.3063 44.8195 73.8937 45.6929C73.4811 46.5663 73.354 47.5475 73.5306 48.4972C73.7072 49.4469 74.1784 50.3168 74.8773 50.9836C76.1493 52.2 77.9901 52.5885 79.743 52.718C81.5035 52.8427 83.2721 52.7838 85.0204 52.5423C90.714 51.7976 96.2458 49.4064 101.648 47.251C103.318 46.585 105.08 45.9236 106.87 46.1225C108.66 46.3214 110.343 47.4129 111.574 48.7866C112.614 50.0262 113.5 51.3865 114.215 52.8383C114.427 51.534 115.311 47.6211 118.271 48.7496C118.619 48.8811 118.934 49.0862 119.196 49.3509C119.227 47.0018 119.057 44.6545 118.687 42.3344ZM108.868 30.9888C106.657 30.1933 104.178 30.7113 102.023 31.6456C99.8673 32.5799 97.897 33.8981 95.7324 34.8C91.7336 36.4398 87.2767 36.5778 83.1842 35.1885C81.6856 34.6705 80.0483 33.949 78.5914 34.5687C78.0487 34.8402 77.5885 35.2518 77.2584 35.7608C76.9282 36.2699 76.7401 36.8579 76.7135 37.4641C76.7102 37.1854 76.7303 36.9069 76.7737 36.6316C76.8741 35.8834 77.2441 35.1976 77.8143 34.7029C78.4819 34.2109 79.2987 33.9642 80.1269 34.0045C81.0707 34.0608 82.0034 34.238 82.9021 34.5317C83.7866 34.7837 84.6876 34.9738 85.5986 35.1006C89.1654 35.5758 92.7928 34.9734 96.0145 33.3708C99.2984 31.7289 102.3 28.9815 106.148 28.8612C106.994 28.8214 107.839 28.9607 108.627 29.2699C109.415 29.5792 110.13 30.0515 110.723 30.6558C111.321 31.2833 111.769 32.0374 112.036 32.8621C112.303 33.6868 112.38 34.561 112.263 35.4198C112.263 35.4799 112.24 35.5354 112.23 35.5955C112.323 33.6391 110.787 31.6826 108.868 30.9888Z" fill="#2E303D"/>
<path d="M108.956 69.97C108.956 69.97 111.527 74.6692 107.605 77.3981C103.683 80.1269 100.917 76.251 100.917 76.251L108.956 69.97Z" fill="white"/>
<path d="M95.5844 61.455L100.917 72.0652C100.917 72.0652 96.5788 74.5073 95.5844 73.092C94.59 71.6767 95.5844 61.455 95.5844 61.455Z" fill="#F9785A"/>
<path d="M93.6233 63.8509C94.0303 65.2384 93.5817 66.589 92.6196 66.8711C91.6576 67.1533 90.5475 66.2652 90.1359 64.8777C89.7242 63.4901 90.1775 62.1395 91.1396 61.8574C92.1016 61.5753 93.2116 62.4633 93.6233 63.8509Z" fill="#2E303D"/>
<path d="M104.876 60.0536C105.283 61.4411 104.835 62.7917 103.873 63.0738C102.911 63.356 101.801 62.4679 101.394 61.085C100.987 59.7021 101.431 58.3469 102.393 58.0601C103.355 57.7734 104.465 58.6706 104.876 60.0536Z" fill="#2E303D"/>
<path d="M91.2829 58.2451C90.4054 58.4617 89.5608 58.7946 88.7714 59.2349C88.5629 59.3643 88.4143 59.5713 88.3584 59.8103C88.3024 60.0492 88.3437 60.3006 88.4731 60.5092C88.6025 60.7177 88.8095 60.8663 89.0484 60.9222C89.2874 60.9782 89.5388 60.9369 89.7473 60.8075C89.9462 60.6965 90.1451 60.604 90.3486 60.5069C90.821 60.3136 91.3082 60.1589 91.8055 60.0443C92.0402 59.9747 92.2377 59.8148 92.3547 59.5998C92.4718 59.3848 92.4988 59.1322 92.4299 58.8973C92.3984 58.7786 92.3435 58.6673 92.2685 58.5701C92.1935 58.4728 92.0999 58.3914 91.9931 58.3307C91.8864 58.27 91.7686 58.2312 91.6466 58.2165C91.5247 58.2018 91.401 58.2115 91.2829 58.2451Z" fill="#2E303D"/>
<path d="M104.465 55.137C104.281 54.9834 104.052 54.8954 103.813 54.8872C102.679 54.7801 101.537 54.9483 100.483 55.3775C100.248 55.4584 100.052 55.6232 99.9321 55.84C99.8182 56.0562 99.7917 56.3079 99.8581 56.5431C99.9278 56.7777 100.088 56.9752 100.303 57.0923C100.518 57.2093 100.77 57.2363 101.005 57.1675C101.437 56.9955 101.884 56.8684 102.342 56.7882C102.84 56.7197 103.344 56.7088 103.845 56.7558C104.09 56.7558 104.326 56.6584 104.499 56.4849C104.673 56.3114 104.77 56.0761 104.77 55.8308C104.771 55.7001 104.744 55.5708 104.692 55.4512C104.639 55.3316 104.562 55.2245 104.465 55.137Z" fill="#2E303D"/>
<path d="M112.453 28.4588C112.337 28.186 111.939 28.4218 112.055 28.6901C112.912 30.6832 113.342 32.8339 113.317 35.0035C113.317 35.0648 113.342 35.1237 113.385 35.167C113.429 35.2104 113.487 35.2348 113.549 35.2348C113.61 35.2348 113.669 35.2104 113.712 35.167C113.756 35.1237 113.78 35.0648 113.78 35.0035C113.803 32.7529 113.35 30.5228 112.453 28.4588Z" fill="#2E303D"/>
<path d="M114.571 32.4458C114.376 33.2598 114.179 34.0723 113.979 34.8832C113.909 35.1746 114.358 35.2995 114.441 35.0081C114.64 34.1941 114.834 33.3801 115.033 32.566C115.049 32.5047 115.04 32.4395 115.008 32.3849C114.976 32.3302 114.923 32.2906 114.862 32.2746C114.801 32.2587 114.736 32.2678 114.681 32.2998C114.626 32.3319 114.587 32.3844 114.571 32.4458Z" fill="#2E303D"/>
<path d="M111.43 169.43V172.386H70.1642L38.7083 155.286V152.627L70.7655 169.43H111.43Z" fill="#8E8E8E"/>
<path d="M111.43 169.43H70.7655L38.7083 152.627H79.373L111.43 169.43Z" fill="#B7B7B7"/>
<path d="M75.0669 168.135H70.0625L66.1125 166.068H71.1216L75.0669 168.135Z" fill="#8E8E8E"/>
<path d="M69.7758 165.374H64.7667L60.8214 163.302H65.8305L69.7758 165.374Z" fill="#8E8E8E"/>
<path d="M65.2986 162.714H60.2895L56.3442 160.647H61.3533L65.2986 162.714Z" fill="#8E8E8E"/>
<path d="M60.0074 159.949H54.9983L51.053 157.881H56.0574L60.0074 159.949Z" fill="#8E8E8E"/>
<path d="M81.1121 167.733H76.103L72.1577 165.665H77.1668L81.1121 167.733Z" fill="#8E8E8E"/>
<path d="M76.6349 165.078H71.6258L67.6805 163.011H72.685L76.6349 165.078Z" fill="#8E8E8E"/>
<path d="M71.3437 162.312H66.3346L62.3846 160.245H67.3937L71.3437 162.312Z" fill="#8E8E8E"/>
<path d="M82.2037 164.583H77.1992L73.2493 162.516H78.2584L82.2037 164.583Z" fill="#8E8E8E"/>
<path d="M77.7265 161.928H72.7174L68.7721 159.861H73.7812L77.7265 161.928Z" fill="#8E8E8E"/>
<path d="M72.4352 159.162H67.4261L63.4808 157.095H68.4853L72.4352 159.162Z" fill="#8E8E8E"/>
<path d="M100.654 168.385H95.6445L91.6946 166.318H96.7037L100.654 168.385Z" fill="#8E8E8E"/>
<path d="M95.3577 165.624H90.3532L86.4033 163.552H91.4124L95.3577 165.624Z" fill="#8E8E8E"/>
<path d="M90.8805 162.964H85.8761L81.9261 160.897H86.9352L90.8805 162.964Z" fill="#8E8E8E"/>
<path d="M85.5893 160.198H80.5802L76.6349 158.131H81.644L85.5893 160.198Z" fill="#8E8E8E"/>
<path d="M106.694 167.983H101.69L97.7397 165.915H102.749L106.694 167.983Z" fill="#8E8E8E"/>
<path d="M102.217 165.328H97.2079L93.2626 163.26H98.2717L102.217 165.328Z" fill="#8E8E8E"/>
<path d="M96.9257 162.562H91.9166L87.9713 160.494H92.9804L96.9257 162.562Z" fill="#8E8E8E"/>
<path d="M137.41 183.63H96.7453L75.9828 172.723H116.648L137.41 183.63Z" fill="#D5E0E0"/>
<path d="M109.205 182.321H97.3742L91.3291 179.148H103.165L109.205 182.321Z" fill="#0D2158"/>
<path d="M112.901 182.122C112.827 182.121 112.754 182.102 112.688 182.066L98.6556 174.698C98.55 174.64 98.4716 174.542 98.437 174.426C98.4025 174.311 98.4146 174.186 98.4708 174.079C98.527 173.972 98.6228 173.891 98.7377 173.854C98.8526 173.817 98.9775 173.826 99.0857 173.88L113.119 181.248C113.211 181.295 113.286 181.373 113.329 181.468C113.372 181.563 113.382 181.67 113.357 181.771C113.331 181.872 113.273 181.962 113.19 182.026C113.107 182.089 113.006 182.123 112.901 182.122Z" fill="#B7B7B7"/>
<path d="M117.623 181.849C117.548 181.848 117.474 181.831 117.406 181.798L103.373 174.426C103.268 174.367 103.189 174.269 103.155 174.153C103.12 174.038 103.132 173.913 103.188 173.806C103.245 173.699 103.34 173.618 103.455 173.581C103.57 173.544 103.695 173.553 103.803 173.607L117.836 180.975C117.891 181.003 117.939 181.041 117.979 181.088C118.019 181.135 118.049 181.189 118.067 181.248C118.086 181.306 118.093 181.368 118.087 181.429C118.081 181.49 118.064 181.55 118.035 181.604C117.995 181.678 117.936 181.741 117.863 181.784C117.791 181.827 117.708 181.85 117.623 181.849Z" fill="#B7B7B7"/>
<path d="M124.043 182.256C123.968 182.255 123.894 182.238 123.826 182.205L109.793 174.833C109.685 174.775 109.603 174.678 109.567 174.561C109.53 174.443 109.542 174.317 109.599 174.208C109.656 174.1 109.754 174.018 109.871 173.982C109.988 173.945 110.115 173.957 110.223 174.014L124.256 181.386C124.346 181.435 124.418 181.512 124.459 181.606C124.501 181.699 124.51 181.804 124.486 181.903C124.461 182.003 124.405 182.091 124.325 182.155C124.245 182.219 124.146 182.254 124.043 182.256Z" fill="#B7B7B7"/>
<path d="M128.761 181.983C128.687 181.983 128.614 181.966 128.548 181.932L114.515 174.56C114.407 174.503 114.325 174.405 114.289 174.288C114.253 174.171 114.264 174.044 114.321 173.935C114.378 173.827 114.476 173.745 114.593 173.709C114.71 173.672 114.837 173.684 114.945 173.741L128.978 181.114C129.069 181.162 129.14 181.24 129.182 181.334C129.223 181.428 129.232 181.533 129.207 181.633C129.182 181.732 129.125 181.821 129.044 181.884C128.963 181.948 128.864 181.983 128.761 181.983Z" fill="#B7B7B7"/>
<path d="M171.16 59.2719L179.078 55.1509C183.185 56.2152 187.538 55.7537 191.331 53.8522C195.123 51.9506 198.096 48.738 199.7 44.8104C201.303 40.8828 201.428 36.5069 200.05 32.4946C198.672 28.4823 195.886 25.106 192.207 22.9922C188.529 20.8783 184.209 20.1704 180.049 20.9998C175.888 21.8292 172.17 24.1395 169.584 27.5022C166.997 30.8649 165.719 35.0517 165.985 39.2856C166.251 43.5195 168.044 47.5132 171.031 50.5257L171.16 59.2719Z" fill="#F5FFD8"/>
<path d="M188.435 50.3499V51.497H187.445H180.762H179.731V48.2177L188.435 50.3499Z" fill="#8E8E8E"/>
<path d="M180.762 51.497H187.445C187.445 51.497 187.284 52.8845 184.083 52.8845C180.882 52.8845 180.762 51.497 180.762 51.497Z" fill="#B7B7B7"/>
<path d="M188.435 47.2279V50.3499L179.731 48.2177V47.2279H180.355H188.005H188.435Z" fill="#B7B7B7"/>
<path d="M194.443 33.4633C194.445 35.2578 193.976 37.0214 193.084 38.578C192.191 40.1347 190.905 41.4299 189.356 42.3344L188.01 47.2279H180.355L178.995 42.3344C177.443 41.4259 176.157 40.1255 175.266 38.5635C174.375 37.0015 173.909 35.2327 173.917 33.4344C173.924 31.636 174.404 29.8711 175.308 28.3166C176.213 26.7621 177.51 25.4724 179.069 24.5769C180.629 23.6813 182.396 23.2112 184.195 23.2138C185.993 23.2163 187.759 23.6913 189.316 24.5913C190.873 25.4913 192.166 26.7846 193.066 28.3416C193.966 29.8987 194.441 31.6649 194.443 33.4633Z" fill="#A6CE39"/>
<path d="M180.064 35.8453C180.027 35.6001 179.652 35.7019 179.689 35.947L181.41 46.9781C181.447 47.2233 181.821 47.1169 181.784 46.8764L180.064 35.8453Z" fill="white"/>
<path d="M188.199 35.4707C187.583 39.3435 186.966 43.2148 186.349 47.0845C186.312 47.325 186.682 47.4314 186.719 47.1863L188.569 35.5724C188.611 35.3319 188.246 35.2255 188.199 35.4707Z" fill="white"/>
<path d="M189.245 38.2689C189.095 38.6701 188.811 39.0069 188.441 39.222C188.07 39.4371 187.637 39.5171 187.214 39.4483C186.868 39.3607 186.545 39.2019 186.263 38.9821C185.982 38.7623 185.75 38.4863 185.582 38.1718C185.92 37.6758 186.166 37.1227 186.308 36.5391C186.449 35.969 186.48 35.3772 186.4 34.7954C186.34 34.3328 186.132 33.7871 185.623 33.7223C185.027 33.6391 184.721 34.2403 184.624 34.7306C184.506 35.3666 184.506 36.0188 184.624 36.6547C184.715 37.1645 184.884 37.6573 185.124 38.1163C185.073 38.181 185.022 38.2411 184.966 38.3013C184.657 38.6991 184.203 38.9597 183.704 39.0274C183.481 39.031 183.263 38.9733 183.071 38.8607C182.879 38.7482 182.722 38.585 182.617 38.3891C182.879 38.0117 183.063 37.5855 183.158 37.1357C183.299 36.4766 183.349 35.8011 183.306 35.1284C183.274 34.6196 182.922 34.0183 182.325 34.2033C181.729 34.3883 181.609 35.1284 181.567 35.6603C181.52 36.2855 181.595 36.914 181.789 37.5104C181.884 37.8183 182.009 38.1158 182.164 38.3984C181.912 38.7036 181.559 38.9074 181.169 38.9719C180.004 39.1662 179.569 37.9775 179.342 37.071C179.327 37.0231 179.294 36.9829 179.25 36.9588C179.206 36.9347 179.154 36.9286 179.106 36.9418C179.058 36.9549 179.016 36.9863 178.99 37.0294C178.964 37.0724 178.956 37.1238 178.968 37.1727C179.222 38.1764 179.708 39.3836 180.933 39.3789C181.205 39.3751 181.473 39.3151 181.721 39.2029C181.968 39.0907 182.19 38.9286 182.372 38.7268C182.462 38.8544 182.566 38.9722 182.682 39.0783C182.897 39.2657 183.162 39.3882 183.444 39.4316C183.726 39.475 184.015 39.4375 184.277 39.3234C184.689 39.1453 185.054 38.8728 185.341 38.5279C185.682 39.0767 186.187 39.5041 186.784 39.749C187.342 39.9422 187.954 39.9079 188.488 39.6534C189.021 39.3989 189.432 38.9447 189.633 38.3891C189.703 38.1348 189.328 38.033 189.245 38.2689ZM181.969 35.3781C181.979 35.1149 182.077 34.8625 182.247 34.6612C182.483 34.4485 182.751 34.5872 182.853 34.8509C182.923 35.1099 182.94 35.3805 182.904 35.6464C182.904 35.9147 182.904 36.1876 182.857 36.4604C182.813 37.0035 182.655 37.5313 182.395 38.0099C181.99 37.1957 181.842 36.2782 181.969 35.3781ZM185.332 37.6907C184.902 36.7446 184.796 35.6829 185.031 34.6705C185.044 34.5497 185.088 34.4342 185.158 34.3353C185.229 34.2364 185.324 34.1575 185.434 34.1062C185.669 34.0368 185.831 34.2357 185.896 34.43C186.045 34.8556 186.09 35.311 186.026 35.7574C185.969 36.4696 185.735 37.1563 185.346 37.7555C185.346 37.7555 185.341 37.7277 185.332 37.7092V37.6907Z" fill="white"/>
<path d="M72.1808 61.862L63.9479 63.1432C61.45 66.2156 57.9226 68.2777 54.0199 68.9471C50.1172 69.6164 46.1042 68.8475 42.7253 66.7831C39.3464 64.7187 36.8309 61.4988 35.6455 57.7207C34.46 53.9426 34.6851 49.8628 36.279 46.2381C37.8729 42.6134 40.7273 39.6898 44.3128 38.0096C47.8983 36.3294 51.9716 36.0067 55.7769 37.1013C59.5823 38.196 62.8615 40.6337 65.0062 43.9622C67.151 47.2907 68.0157 51.2842 67.44 55.2017L72.1808 61.862Z" fill="white"/>
<path d="M64.2532 47.5609L48.9253 62.8935L40.5861 54.5542L44.6285 50.5118L48.9253 54.804L60.2108 43.5185L64.2532 47.5609Z" fill="#A6CE39"/>
<path d="M160.111 98.3086L149.667 110.029L146.998 117.23L146.452 110.478L145.356 102.249L145.467 100.728L146.092 92.1293C144.422 92.2993 142.737 92.2417 141.082 91.9582C134.838 90.8482 130.074 86.0796 129.478 75.77C129.112 69.4844 129.889 64.7482 130.939 61.3348C132.48 56.321 134.64 54.1703 134.64 54.1703C134.64 54.1703 142.451 67.255 152.803 68.7027C152.803 68.7027 154.699 64.2301 157.655 65.5483C160.61 66.8665 160.615 75.7654 155.925 76.9309C155.313 83.1196 156.203 89.3644 158.519 95.1357C158.944 96.2431 159.477 97.3059 160.111 98.3086Z" fill="#FF9971"/>
<path d="M149.898 80.793C152.21 80.793 154.084 78.9189 154.084 76.6072C154.084 74.2954 152.21 72.4214 149.898 72.4214C147.586 72.4214 145.712 74.2954 145.712 76.6072C145.712 78.9189 147.586 80.793 149.898 80.793Z" fill="#F9785A"/>
<path d="M151.304 91.1164L145.754 96.6667L146.082 92.1663C147.853 91.9908 149.603 91.6391 151.304 91.1164Z" fill="#2E303D"/>
<path d="M145.763 96.6297L145.467 100.728C145.467 100.728 139.454 103.419 136.712 109.779C136.168 107.816 136.133 105.747 136.61 103.766C137.16 101.565 137.935 99.4264 138.923 97.3836C139.756 95.6241 140.473 93.8118 141.069 91.9582C142.723 92.2417 144.408 92.2993 146.078 92.1293L145.763 96.6297Z" fill="#2E303D"/>
<path d="M135.842 70.6823L138.224 80.7143C138.224 80.7143 134.061 81.9678 133.529 80.9687C132.998 79.9697 135.842 70.6823 135.842 70.6823Z" fill="#F9785A"/>
<path d="M194.217 100.496C192.977 95.4086 189.966 91.0332 186.539 87.1804C183.764 84.063 180.679 81.2416 177.751 78.2676C176.828 76.7771 175.98 75.2411 175.212 73.6656C172.344 67.7499 170.841 61.2423 167.89 55.3729C164.939 49.5035 159.981 44.0319 153.487 43.0144C143.95 41.525 134.848 49.9799 125.361 48.1992C125.193 50.6214 125.575 53.0504 126.479 55.3037C127.384 57.5571 128.787 59.5763 130.583 61.2099L130.939 61.3209C132.262 57.0195 134.02 54.8456 134.496 54.2952C135.065 57.1351 137.04 59.4708 138.992 61.5336C141.272 63.948 143.839 66.1912 146.961 67.4354C148.306 67.9794 149.734 68.2921 151.184 68.3604C151.711 68.4985 152.245 68.6066 152.784 68.6842C152.784 68.6842 154.68 64.2116 157.636 65.5298C160.591 66.848 160.596 75.7469 155.906 76.9124C155.295 83.1011 156.185 89.3459 158.501 95.1172C158.931 96.2285 159.47 97.2944 160.11 98.2994C160.505 98.9136 160.97 99.4787 161.498 99.9829C161.688 100.159 161.887 100.33 162.099 100.492C166.165 103.595 172.154 101.736 176.942 103.535C181.372 105.2 184.12 109.862 184.841 114.543C185.563 119.224 184.624 123.983 183.69 128.627L183.773 128.655C183.865 128.377 183.953 128.095 184.041 127.817C190.253 125.62 193.935 118.882 194.217 112.254C195.133 108.388 195.133 104.362 194.217 100.496ZM143.418 64.9239C142.128 63.9611 140.922 62.892 139.81 61.7279C138.689 60.6158 137.659 59.4155 136.73 58.1388C136.035 57.1729 135.497 56.1038 135.134 54.9705C136.73 57.3848 141.924 64.5955 148.779 67.5418C146.843 67.0154 145.024 66.1271 143.418 64.9239ZM194.198 109.941C193.736 103.239 190.498 96.9904 186.765 91.3754C184.217 87.5596 181.4 83.9011 178.903 80.0622C180.688 81.829 182.496 83.5635 184.235 85.3673C187.908 89.1785 191.386 93.4337 193.153 98.4936C194.408 102.172 194.766 106.096 194.198 109.941Z" fill="#2E303D"/>
<path d="M134.099 70.7655C134.099 72.2086 133.285 73.3788 132.281 73.3788C131.277 73.3788 130.463 72.2086 130.463 70.7655C130.463 69.3225 131.277 68.1523 132.281 68.1523C133.285 68.1523 134.099 69.3271 134.099 70.7655Z" fill="#2E303D"/>
<path d="M143.511 70.3955C143.511 71.8386 142.697 73.0088 141.693 73.0088C140.689 73.0088 139.88 71.8386 139.88 70.3955C139.88 68.9525 140.689 67.7823 141.693 67.7823C142.697 67.7823 143.511 68.9525 143.511 70.3955Z" fill="#2E303D"/>
<path d="M133.442 64.7528C132.539 64.7109 131.636 64.7903 130.754 64.9887C130.637 65.0208 130.527 65.0757 130.431 65.1503C130.335 65.2249 130.255 65.3177 130.195 65.4233C130.135 65.529 130.096 65.6455 130.081 65.7662C130.066 65.8868 130.075 66.0093 130.107 66.1265C130.178 66.3593 130.335 66.5562 130.547 66.6766C130.758 66.797 131.008 66.8319 131.245 66.774C131.462 66.7231 131.684 66.6908 131.906 66.6538C132.416 66.5952 132.929 66.5781 133.442 66.6029C133.687 66.6029 133.922 66.5054 134.096 66.3319C134.269 66.1585 134.367 65.9232 134.367 65.6778C134.367 65.4325 134.269 65.1972 134.096 65.0237C133.922 64.8503 133.687 64.7528 133.442 64.7528Z" fill="#2E303D"/>
<path d="M144.51 65.5622C144.375 65.3643 144.181 65.215 143.955 65.1367C142.898 64.7186 141.756 64.56 140.625 64.6742C140.38 64.6827 140.147 64.7797 139.968 64.947C139.839 65.0767 139.751 65.2416 139.716 65.4209C139.681 65.6003 139.7 65.7861 139.77 65.9548C139.84 66.1235 139.959 66.2677 140.111 66.369C140.263 66.4704 140.442 66.5244 140.625 66.5242C141.086 66.4757 141.551 66.4757 142.012 66.5242C142.51 66.5991 142.997 66.731 143.464 66.9174C143.642 66.9667 143.83 66.9619 144.005 66.9036C144.18 66.8452 144.333 66.736 144.446 66.5899C144.558 66.4438 144.624 66.2675 144.635 66.0835C144.647 65.8996 144.603 65.7165 144.51 65.5576V65.5622Z" fill="#2E303D"/>
<path d="M145.231 84.1092C145.902 85.7651 145.273 87.5874 143.844 88.1702C142.415 88.7529 140.68 87.888 140.009 86.2322C139.339 84.5764 139.968 82.7587 141.397 82.1713C142.826 81.5839 144.542 82.4534 145.231 84.1092Z" fill="#E56B45"/>
<path d="M145.694 81.8059C145.694 81.8059 147.081 85.7604 143.09 87.0786C139.852 88.1517 138.465 86.0194 138.113 85.2887L145.694 81.8059Z" fill="white"/>
<path d="M183.694 128.641L183.778 128.668C182.492 132.66 181.03 136.665 179.555 140.444C174.994 152.118 170.304 161.641 170.152 161.924C165.647 155.703 157.257 151.572 154.533 150.361C153.973 150.111 153.654 149.981 153.654 149.981L151.938 155.125L152.368 155.522L136.813 157.594V151.175C136.813 151.175 136.429 150.342 135.861 149.019C135.084 147.215 133.96 144.496 133.021 141.758C131.989 138.751 131.171 135.722 131.277 133.858C131.536 129.057 142.054 110.542 142.054 110.542C142.065 112.169 142.269 113.788 142.66 115.366C142.714 115.044 142.818 114.731 142.97 114.441C143.016 114.64 144.505 120.782 147.285 125.435L153.205 115.343C153.45 115.977 153.691 116.685 153.908 117.462C153.908 117.462 160.476 106.824 161.503 99.9737C161.692 100.149 161.891 100.321 162.104 100.482C166.17 103.586 172.159 101.727 176.946 103.526C181.377 105.191 184.125 109.853 184.846 114.534C185.568 119.215 184.629 123.997 183.694 128.641Z" fill="#0D2158"/>
<path d="M179.555 140.449L182.33 164.8H169.842L170.878 163.001C170.651 162.636 170.415 162.28 170.147 161.928C170.295 161.646 174.994 152.123 179.555 140.449Z" fill="#0D2158"/>
<path d="M170.152 161.928C170.411 162.28 170.656 162.636 170.883 163.001L169.847 164.8L164.625 173.907C164.625 173.907 162.775 165.272 152.368 155.532L151.938 155.134L153.654 149.991C153.654 149.991 153.973 150.12 154.532 150.37C157.257 151.577 165.647 155.707 170.152 161.928Z" fill="#0D2158"/>
<path d="M164.625 173.907C164.625 173.907 152.678 174.12 119.298 172.192C119.298 172.192 111.495 177.594 108.327 177.252C105.159 176.909 98.8961 171.035 97.3513 168.593C95.8065 166.151 99.8396 162.506 99.8396 162.506C99.8396 162.506 99.8813 160.656 102.411 159.592C103.54 159.13 106.634 159.181 109.724 159.398C113.572 159.676 117.411 160.194 117.411 160.194L126.703 158.954L136.832 157.604L152.387 155.532C162.807 165.254 164.625 173.907 164.625 173.907Z" fill="#FF9971"/>
<path d="M161.503 99.9922C160.494 106.865 153.908 117.48 153.908 117.48C153.691 116.703 153.446 115.995 153.205 115.362C151.619 111.255 149.667 110.024 149.667 110.024L160.11 98.304C160.506 98.9201 160.973 99.4868 161.503 99.9922Z" fill="white"/>
<path d="M153.205 115.366L147.285 125.459C144.51 120.806 143.016 114.663 142.969 114.464C143.895 112.587 146.452 110.482 146.452 110.482L146.998 117.235L149.667 110.033C149.667 110.033 151.619 111.259 153.205 115.366Z" fill="#D7F2ED"/>
<path d="M142.035 139.732H149.251L149.537 154.533H138.867L138.65 139.732H142.035ZM146.994 148.094V141.156H141.194V148.094H146.994Z" fill="white"/>
<path d="M146.993 141.152H141.193V148.094H146.993V141.152Z" fill="#0D2158"/>
<path d="M145.356 102.249L146.452 110.478C146.452 110.478 143.899 112.582 142.969 114.46C142.818 114.75 142.714 115.062 142.66 115.385C142.267 113.8 142.064 112.175 142.054 110.542C142.04 107.707 142.673 104.284 145.356 102.249Z" fill="white"/>
<path d="M143.894 137.479L145.675 139.732H142.035L143.894 137.479Z" fill="#B7B7B7"/>
<path d="M136.712 109.779C139.464 103.419 145.467 100.728 145.467 100.728L145.356 102.249C142.674 104.284 142.04 107.707 142.054 110.542C142.054 110.542 131.536 129.043 131.277 133.858C131.18 135.708 131.989 138.751 133.021 141.758L132.392 141.915L127.878 139.723L128.021 139.431C128.021 139.431 133.765 119.08 136.078 111.486C136.254 110.904 136.465 110.334 136.712 109.779Z" fill="#0D2158"/>
<path d="M136.813 151.175V157.585L126.684 158.936L95.8572 158.871C90.64 161.114 87.9435 161.234 85.9269 160.231C85.1036 160.286 82.014 160.629 81.1907 160.693C81.1121 161.581 80.8392 162.372 80.1038 162.372C78.4341 162.372 76.5701 158.644 76.5701 158.644C76.5701 158.644 76.0567 162.372 74.3824 161.475C72.7081 160.578 73.1614 155.462 73.1614 155.462C73.1614 155.462 69.3687 159.162 68.8553 157.775C68.3419 156.387 70.8488 149.695 77.0835 149.116C83.3183 148.538 97.3974 151.045 97.3974 151.045L125.343 146.374L135.884 149.019C136.443 150.342 136.813 151.175 136.813 151.175Z" fill="#FF9971"/>
<path d="M135.861 149.019L125.343 146.374C124.695 141.189 126.416 139.001 126.416 139.001L127.901 139.723L133.044 141.758C133.96 144.496 135.084 147.215 135.861 149.019Z" fill="#1F3F95"/>
<path d="M114.64 148.964C114.957 149.189 115.178 149.525 115.259 149.905C115.341 150.285 115.276 150.682 115.08 151.017C111.819 150.597 111.042 149.112 111.042 149.112C111.175 148.856 111.362 148.632 111.59 148.456C111.819 148.281 112.083 148.157 112.365 148.094C113.193 148.151 113.985 148.454 114.64 148.964Z" fill="#ED694F"/>
<path d="M115.079 151.017L113.109 154.417C111.579 154.205 110.17 153.466 109.127 152.326L111.042 149.112C111.042 149.112 111.819 150.597 115.079 151.017Z" fill="#FF9076"/>
<path d="M113.109 154.417L110.038 159.717L104.793 159.606L109.127 152.326C110.17 153.466 111.579 154.205 113.109 154.417Z" fill="#0D2158"/>
<path d="M163.644 117.915C162.377 121.923 161.108 125.919 159.838 129.903C158.567 133.887 157.303 137.866 156.045 141.841C155.333 144.098 154.617 146.354 153.899 148.608C153.806 148.894 154.255 149.015 154.361 148.733C155.635 144.724 156.905 140.726 158.173 136.739L161.961 124.802L164.111 118.035C164.195 117.753 163.732 117.633 163.644 117.915Z" fill="#2E303D"/>
<path d="M179.324 141.106C176.666 146.397 174.225 151.793 172.002 157.294C171.378 158.839 170.772 160.397 170.18 161.956C170.073 162.233 170.522 162.354 170.642 162.081C172.723 156.583 175.024 151.175 177.543 145.856C178.258 144.348 178.992 142.848 179.745 141.355C179.86 141.069 179.458 140.842 179.324 141.106Z" fill="#2E303D"/>
<path d="M141.425 111.079C139.223 115.158 136.971 119.21 134.834 123.322C132.91 127.022 131.208 131.013 131.222 135.264C131.196 137.485 131.743 139.675 132.808 141.624C132.839 141.677 132.89 141.716 132.95 141.731C133.01 141.747 133.074 141.738 133.127 141.707C133.18 141.676 133.219 141.624 133.235 141.565C133.25 141.505 133.242 141.441 133.21 141.388C131.212 137.873 131.393 133.59 132.544 129.825C133.194 127.807 134.021 125.851 135.014 123.978C136.023 122.008 137.096 120.07 138.145 118.123L141.823 111.31C141.966 111.051 141.563 110.815 141.425 111.079Z" fill="#2E303D"/>
<path d="M153.182 115.907C150.684 121.559 148.185 127.211 145.684 132.863C145.068 134.242 144.451 135.62 143.834 136.998C142.899 131.361 142.504 125.648 142.655 119.936C142.701 118.239 142.798 116.546 142.937 114.848C142.965 114.552 142.502 114.552 142.475 114.848C141.97 120.856 142.074 126.9 142.784 132.887C142.979 134.524 143.218 136.155 143.501 137.78C143.499 137.822 143.508 137.864 143.529 137.9C143.537 137.933 143.555 137.962 143.579 137.984C143.604 138.006 143.635 138.021 143.668 138.025C143.691 138.036 143.716 138.043 143.742 138.044C143.768 138.045 143.794 138.04 143.818 138.031C143.842 138.021 143.863 138.007 143.881 137.988C143.899 137.97 143.913 137.948 143.922 137.923C143.936 137.9 143.947 137.875 143.955 137.849L151.41 120.977C152.126 119.361 152.841 117.745 153.557 116.129C153.7 115.87 153.302 115.63 153.182 115.907Z" fill="#2E303D"/>
<path d="M136.485 157.719L126.652 158.644C126.356 158.677 126.356 159.139 126.652 159.107L136.485 158.182C136.781 158.131 136.786 157.668 136.485 157.719Z" fill="#2E303D"/>
<path d="M90.751 158.556C87.9927 159.434 85.1466 160.006 82.2637 160.263C81.9307 160.296 81.6023 160.319 81.2693 160.342C80.9901 160.381 80.7067 160.381 80.4275 160.342C80.2194 160.3 79.965 160.198 79.9974 159.944C80.0298 159.69 80.4183 159.333 80.6218 159.135C81.5726 158.239 82.59 157.416 83.6652 156.674C84.8835 155.834 86.1727 155.102 87.518 154.486C87.7862 154.366 87.5503 153.964 87.2821 154.089C84.6658 155.292 82.2681 156.922 80.187 158.913C79.7985 159.287 79.2897 159.838 79.6644 160.402C79.8242 160.573 80.0241 160.702 80.2461 160.777C80.4681 160.852 80.7053 160.871 80.9363 160.832C82.505 160.755 84.0671 160.576 85.6124 160.296C87.3941 159.987 89.1527 159.558 90.8758 159.01C91.158 158.913 91.0377 158.464 90.751 158.556Z" fill="#2E303D"/>
<path d="M76.8061 158.575C76.1948 156.533 76.1868 154.359 76.7829 152.312C76.7995 152.251 76.791 152.186 76.7593 152.131C76.7277 152.076 76.6754 152.035 76.6141 152.019C76.5528 152.002 76.4874 152.011 76.4323 152.042C76.3772 152.074 76.337 152.126 76.3204 152.188C75.6974 154.312 75.6974 156.571 76.3204 158.695C76.3283 158.727 76.3424 158.757 76.3619 158.784C76.3814 158.81 76.4059 158.832 76.434 158.849C76.4622 158.866 76.4934 158.878 76.5259 158.882C76.5583 158.887 76.5915 158.886 76.6234 158.878C76.6552 158.87 76.6853 158.856 76.7117 158.836C76.7381 158.817 76.7605 158.792 76.7774 158.764C76.7944 158.736 76.8057 158.705 76.8106 158.672C76.8155 158.64 76.8139 158.607 76.8061 158.575Z" fill="#2E303D"/>
<path d="M75.0625 151.563C75.0094 151.534 74.9471 151.526 74.8886 151.542C74.83 151.557 74.7797 151.595 74.748 151.646C73.8862 152.775 73.3016 154.09 73.0413 155.485C72.9858 155.777 73.4298 155.902 73.5038 155.61C73.7584 154.253 74.327 152.975 75.1643 151.878C75.1792 151.851 75.1885 151.821 75.1914 151.79C75.1944 151.759 75.191 151.728 75.1815 151.698C75.1719 151.669 75.1565 151.642 75.136 151.618C75.1155 151.595 75.0905 151.576 75.0625 151.563Z" fill="#2E303D"/>
<path d="M146.263 110.464C144.927 111.786 143.672 113.188 142.507 114.663C142.327 114.895 142.65 115.223 142.835 114.992C144.001 113.517 145.255 112.114 146.591 110.792C146.635 110.748 146.659 110.689 146.659 110.628C146.659 110.566 146.635 110.507 146.591 110.464C146.548 110.42 146.488 110.396 146.427 110.396C146.365 110.396 146.306 110.42 146.263 110.464Z" fill="#2E303D"/>
<path d="M153.977 117.018C153.193 114.375 151.833 111.939 149.995 109.885C149.796 109.663 149.473 109.992 149.671 110.214C151.453 112.214 152.772 114.583 153.533 117.152C153.551 117.211 153.592 117.26 153.646 117.289C153.7 117.318 153.764 117.324 153.823 117.307C153.881 117.289 153.931 117.248 153.96 117.194C153.989 117.14 153.995 117.076 153.977 117.018Z" fill="#2E303D"/>
<path d="M147.368 117.614C147.368 117.318 146.906 117.318 146.906 117.614L147.169 123.766C147.169 124.062 147.632 124.066 147.632 123.766L147.368 117.614Z" fill="#2E303D"/>
<path d="M149.042 118.798C148.974 118.667 148.861 118.564 148.723 118.509C148.586 118.454 148.433 118.45 148.293 118.498C148.211 118.531 148.135 118.58 148.071 118.641H148.048C148.038 118.659 148.027 118.676 148.016 118.692C147.99 118.716 147.968 118.744 147.951 118.775C147.951 118.775 147.951 118.807 147.951 118.826V118.872C147.931 118.927 147.92 118.985 147.918 119.043C147.918 119.043 147.918 119.071 147.918 119.09C147.916 119.127 147.916 119.164 147.918 119.201C147.923 119.216 147.931 119.23 147.942 119.242C147.952 119.269 147.964 119.296 147.979 119.321C147.997 119.362 148.021 119.401 148.048 119.437C148.048 119.437 148.048 119.437 148.048 119.464L148.103 119.501C148.124 119.524 148.146 119.546 148.168 119.566H148.205C148.235 119.581 148.266 119.594 148.298 119.603C148.335 119.617 148.374 119.627 148.413 119.635C148.485 119.648 148.559 119.647 148.631 119.631C148.702 119.615 148.77 119.585 148.83 119.543C148.952 119.458 149.042 119.334 149.084 119.191C149.113 119.059 149.098 118.921 149.042 118.798Z" fill="#2E303D"/>
<path d="M31.0767 159.736L29.703 171.058L53.3609 169.601V174.319L18.9032 178.177L9.5603 171.058L20.2168 145.837L24.0464 136.772L33.5605 139.26L32.3672 149.116L31.0767 159.736Z" fill="#8E8E8E"/>
<path d="M43.7174 74.1558L59.7068 157.474H52.8476L36.775 74.1558H43.7174Z" fill="#8E8E8E"/>
<path d="M53.3609 169.601L29.703 171.058L31.0767 159.736L53.3609 169.601Z" fill="#B7B7B7"/>
<path d="M36.775 74.1558L52.8475 157.474L32.3671 149.116L33.5604 139.26L24.0464 136.772L20.2167 145.837L18.5193 145.116L0 74.1558H36.775Z" fill="#B7B7B7"/>
<path d="M49.4896 138.959C48.6078 133.748 47.6981 128.537 46.7608 123.326C45.8234 118.115 44.8614 112.884 43.8746 107.633C42.8941 102.434 41.892 97.2386 40.8683 92.0461C39.8446 86.8535 38.7946 81.6687 37.7185 76.4916L37.3161 74.549C37.2514 74.2576 36.8073 74.3778 36.8536 74.6692C37.9297 79.8494 38.9858 85.0343 40.0219 90.2238C41.0579 95.4132 42.0662 100.607 43.0467 105.806C44.0365 111.048 45.0047 116.278 45.9514 121.495C46.898 126.712 47.8138 131.923 48.6987 137.128C49.5898 142.345 50.4594 147.564 51.3073 152.784C51.4091 153.441 51.5155 154.093 51.6219 154.745C51.6681 155.037 52.1167 154.912 52.0844 154.62C51.2333 149.4 50.3684 144.18 49.4896 138.959Z" fill="#2E303D"/>
<path d="M30.7021 139.061C29.296 144.078 27.8329 149.078 26.3128 154.061C24.7926 159.044 23.22 163.99 21.5951 168.898C20.67 171.674 19.7311 174.456 18.7783 177.247C18.6812 177.529 19.1298 177.649 19.2408 177.367C20.9398 172.434 22.5802 167.491 24.162 162.539C25.7439 157.587 27.2671 152.624 28.7317 147.65C29.5612 144.832 30.3721 142.011 31.1646 139.186C31.1812 139.125 31.1727 139.059 31.141 139.004C31.1094 138.949 31.0571 138.909 30.9958 138.892C30.9344 138.876 30.869 138.884 30.814 138.916C30.7589 138.948 30.7186 139 30.7021 139.061Z" fill="#2E303D"/>
</svg>
