<svg width="189" height="196" viewBox="0 0 189 196" fill="none" xmlns="http://www.w3.org/2000/svg">
<path d="M98.1765 24.1774C95.1703 23.3409 92.1642 22.5149 89.1372 21.7934C79.5437 19.5088 69.6051 18.9755 59.7503 19.4879C38.9112 20.5753 29.7987 31.4601 37.0187 41.613C44.2386 51.7659 53.325 62.29 43.4596 72.0874C33.5943 81.8847 -3.51972 90.5842 0.270624 107.994C4.06097 125.403 37.3898 127.944 34.7444 139.189C32.099 150.435 15.0451 153.703 23.3786 168.937C31.7122 184.172 62.4009 170.751 72.2558 178.729C82.1107 186.707 87.4171 193.237 103.703 195.778C119.988 198.319 131.735 178.369 149.187 170.751C166.638 163.134 184.419 160.593 187.827 142.818C191.236 125.042 158.66 113.436 160.171 95.2999C160.929 86.2345 167.135 79.1609 171.965 71.9148C180.137 59.6655 186.865 37.5979 168.828 30.3779C160.986 27.2411 151.989 28.088 143.734 28.2867C135.149 28.4697 126.241 29.4316 117.688 28.4906C111.022 27.7377 104.602 25.955 98.1765 24.1774Z" fill="#F5FFD8"/>
<path d="M129.064 24.7263L128.593 24.9459" stroke="#1F3F95" stroke-linecap="round" stroke-linejoin="round"/>
<path d="M127.176 25.6099C114.87 31.3764 46.0056 63.691 28.3504 72.5212C8.94911 82.2193 7.16634 104.705 41.7029 96.9415C63.7601 91.9853 149.981 75.9874 160.463 93.0623C170.721 109.792 157.849 126.328 138.223 132.027" stroke="#1F3F95" stroke-linecap="round" stroke-linejoin="round" stroke-dasharray="2 2.99"/>
<path d="M137.465 132.241L136.943 132.377" stroke="#1F3F95" stroke-linecap="round" stroke-linejoin="round"/>
<path d="M172.525 156.16C172.525 156.16 167.48 161.707 148.706 172.806C129.932 183.905 85.1167 197.127 53.5549 190.728C21.9931 184.328 65.9297 163.416 96.2316 154.027" stroke="#1F3F95" stroke-linecap="round" stroke-linejoin="round" stroke-dasharray="2 3"/>
<path d="M155.439 6.94043L122.895 10.6367L131.113 16.764L155.439 6.94043Z" fill="white" stroke="#1F3F95" stroke-linecap="round" stroke-linejoin="round"/>
<path d="M131.113 16.764L131.056 23.4088L155.439 6.94043L131.113 16.764Z" fill="white" stroke="#1F3F95" stroke-linecap="round" stroke-linejoin="round"/>
<path d="M131.056 23.4088L134.867 18.0239L155.439 6.94043L131.056 23.4088Z" fill="white" stroke="#1F3F95" stroke-linecap="round" stroke-linejoin="round"/>
<path d="M134.867 18.0239L145.59 26.0333L155.439 6.94043L134.867 18.0239Z" fill="white" stroke="#1F3F95" stroke-linecap="round" stroke-linejoin="round"/>
<path d="M172.525 133.161C170.172 133.161 167.915 134.094 166.249 135.755C164.583 137.417 163.644 139.67 163.637 142.023C163.637 146.917 172.525 156.139 172.525 156.139C172.525 156.139 181.386 146.896 181.386 142.023C181.379 139.675 180.444 137.425 178.783 135.765C177.123 134.104 174.873 133.168 172.525 133.161ZM172.525 145.186C171.785 145.186 171.063 144.967 170.448 144.556C169.833 144.145 169.354 143.562 169.071 142.878C168.788 142.195 168.714 141.444 168.859 140.719C169.003 139.994 169.359 139.328 169.882 138.805C170.404 138.282 171.07 137.926 171.796 137.782C172.521 137.637 173.272 137.712 173.955 137.994C174.638 138.277 175.222 138.756 175.633 139.371C176.044 139.986 176.263 140.709 176.263 141.448C176.264 141.939 176.167 142.426 175.98 142.88C175.792 143.334 175.517 143.747 175.17 144.095C174.823 144.442 174.41 144.718 173.956 144.906C173.503 145.094 173.016 145.191 172.525 145.191V145.186Z" fill="#1F3F95"/>
<path d="M62.8191 14.3277C58.736 12.1737 53.325 11.7607 48.3426 13.2298C43.3603 14.6989 38.9321 18.0396 36.705 22.1175C36.574 22.3518 36.5162 22.6199 36.539 22.8873C36.5619 23.1547 36.6643 23.4092 36.833 23.6179C37.0018 23.8266 37.2292 23.98 37.4859 24.0582C37.7426 24.1365 38.0169 24.1361 38.2734 24.0571C38.6076 23.9607 38.8909 23.7374 39.0628 23.435C40.9711 19.9636 44.7248 17.1195 49.1059 15.8334C53.487 14.5473 58.0877 14.8923 61.5696 16.7274C61.8845 16.8873 62.2496 16.9168 62.5861 16.8095C62.9226 16.7023 63.2033 16.4669 63.3675 16.1542C63.5317 15.8416 63.5662 15.4769 63.4636 15.1389C63.361 14.801 63.1295 14.5171 62.8191 14.3486V14.3277Z" fill="#1F3F95"/>
<path d="M60.3985 19.1009C57.0556 17.7303 53.3445 17.5439 49.8811 18.5729C46.4177 19.6018 43.4102 21.7841 41.3579 24.7577C41.2048 24.9883 41.1267 25.2605 41.1342 25.5372C41.1416 25.8139 41.2344 26.0815 41.3997 26.3035C41.5651 26.5255 41.7949 26.691 42.0579 26.7774C42.3208 26.8638 42.6041 26.8668 42.8688 26.7862C43.17 26.7045 43.4329 26.5195 43.6112 26.2634C45.3148 23.8203 47.7973 22.028 50.6523 21.1798C53.5073 20.3317 56.5657 20.478 59.3268 21.5947C59.654 21.7375 60.0246 21.7445 60.3569 21.6141C60.6893 21.4837 60.9563 21.2266 61.0991 20.8994C61.2419 20.5721 61.2489 20.2016 61.1185 19.8692C60.9881 19.5368 60.731 19.2699 60.4037 19.1271L60.3985 19.1009Z" fill="#1F3F95"/>
<path d="M57.9361 23.8376C55.8143 22.9473 53.4469 22.8319 51.2485 23.5115C49.0501 24.1911 47.1609 25.6224 45.9116 27.5547C45.8129 27.7013 45.7441 27.8658 45.709 28.039C45.674 28.2121 45.6735 28.3905 45.7075 28.5638C45.7415 28.7372 45.8093 28.9021 45.9071 29.0493C46.005 29.1964 46.1308 29.3227 46.2775 29.4211C46.5739 29.6191 46.9365 29.6917 47.2862 29.6231C47.6359 29.5545 47.9443 29.3504 48.1439 29.0552C49.0512 27.6321 50.4341 26.5773 52.0464 26.0785C53.6586 25.5797 55.3956 25.6693 56.948 26.3314C57.2787 26.4652 57.649 26.4621 57.9775 26.3229C58.3059 26.1837 58.5656 25.9197 58.6994 25.589C58.8332 25.2583 58.8302 24.888 58.6909 24.5595C58.5517 24.2311 58.2877 23.9714 57.957 23.8376H57.9361Z" fill="#1F3F95"/>
<path d="M52.7029 28.0252C52.0899 28.2042 51.5437 28.5607 51.1333 29.0499C50.7228 29.5391 50.4665 30.1389 50.3968 30.7737C50.327 31.4084 50.4469 32.0496 50.7413 32.6163C51.0357 33.1829 51.4914 33.6496 52.0509 33.9574C52.6104 34.2652 53.2485 34.4004 53.8848 34.3458C54.521 34.2911 55.1267 34.0492 55.6256 33.6505C56.1244 33.2519 56.4939 32.7143 56.6874 32.1058C56.8809 31.4972 56.8898 30.845 56.7128 30.2314C56.5944 29.8233 56.3967 29.4424 56.1311 29.1106C55.8655 28.7789 55.5372 28.5027 55.1648 28.2978C54.7925 28.0929 54.3834 27.9634 53.961 27.9166C53.5386 27.8699 53.1111 27.9067 52.7029 28.0252Z" fill="#1F3F95"/>
<path d="M172.3 43.5579H148.941C148.486 43.5579 148.036 43.6474 147.617 43.8213C147.197 43.9952 146.815 44.2502 146.494 44.5716C146.172 44.8929 145.917 45.2745 145.743 45.6944C145.57 46.1143 145.48 46.5643 145.48 47.0188V59.5087C145.48 60.4266 145.845 61.3069 146.494 61.9559C147.143 62.605 148.023 62.9696 148.941 62.9696H149.668C148.941 64.5799 147.576 67.0318 145.302 68.4905C145.302 68.4905 150.039 68.1611 154.979 62.9696H172.3C173.218 62.9696 174.098 62.605 174.747 61.9559C175.396 61.3069 175.761 60.4266 175.761 59.5087V47.0188C175.761 46.5643 175.671 46.1143 175.497 45.6944C175.324 45.2745 175.069 44.8929 174.747 44.5716C174.426 44.2502 174.044 43.9952 173.624 43.8213C173.205 43.6474 172.754 43.5579 172.3 43.5579Z" fill="#1F3F95"/>
<path d="M156.605 52.8167C156.605 52.4641 156.501 52.1194 156.305 51.8263C156.109 51.5331 155.83 51.3046 155.505 51.1696C155.179 51.0347 154.82 50.9994 154.475 51.0682C154.129 51.137 153.811 51.3068 153.562 51.5561C153.313 51.8054 153.143 52.1231 153.074 52.4689C153.005 52.8147 153.04 53.1732 153.175 53.4989C153.31 53.8247 153.539 54.1031 153.832 54.299C154.125 54.4949 154.47 54.5995 154.822 54.5995C155.295 54.5995 155.749 54.4116 156.083 54.0773C156.417 53.743 156.605 53.2895 156.605 52.8167Z" fill="white"/>
<path d="M160.877 54.5995C161.861 54.5995 162.659 53.8013 162.659 52.8167C162.659 51.8321 161.861 51.0339 160.877 51.0339C159.892 51.0339 159.094 51.8321 159.094 52.8167C159.094 53.8013 159.892 54.5995 160.877 54.5995Z" fill="white"/>
<path d="M168.714 52.8167C168.714 52.4639 168.609 52.119 168.413 51.8257C168.217 51.5324 167.938 51.3039 167.612 51.1691C167.286 51.0344 166.927 50.9994 166.581 51.0686C166.235 51.1378 165.917 51.3081 165.668 51.5579C165.419 51.8078 165.25 52.1259 165.182 52.4721C165.113 52.8183 165.15 53.1769 165.285 53.5026C165.421 53.8282 165.65 54.1063 165.944 54.3016C166.238 54.4968 166.583 54.6005 166.936 54.5995C167.17 54.5995 167.402 54.5533 167.618 54.4637C167.834 54.374 168.03 54.2426 168.195 54.077C168.36 53.9114 168.491 53.7148 168.58 53.4985C168.669 53.2823 168.714 53.0506 168.714 52.8167Z" fill="white"/>
<path d="M11.5631 120.698C16.6406 120.198 20.3517 115.677 19.852 110.6C19.3524 105.522 14.8312 101.811 9.75376 102.311C4.67629 102.81 0.965219 107.331 1.46486 112.409C1.9645 117.486 6.48564 121.197 11.5631 120.698Z" fill="#1F3F95"/>
<path d="M6.50244 105.746L16.4723 111.502L6.50244 117.258V105.746Z" fill="white" stroke="#1F3F95" stroke-linecap="round" stroke-linejoin="round"/>
<path d="M32.6898 181.495C31.0704 181.528 29.4749 181.1 28.0891 180.261C21.4809 176.298 17.586 170.411 15.9339 162.967C15.5285 161.442 15.4819 159.844 15.798 158.298C16.0591 157.022 16.679 155.848 17.5847 154.912C18.4905 153.977 19.6445 153.32 20.911 153.018C21.3779 152.853 21.8907 152.877 22.34 153.085C22.7893 153.293 23.1395 153.669 23.3159 154.131C23.9344 155.844 24.458 157.589 24.8843 159.359C24.9622 159.747 24.8998 160.151 24.7083 160.497C24.5169 160.844 24.2088 161.111 23.8387 161.252C23.065 161.644 22.2703 161.994 21.4652 162.297C21.3412 162.325 21.2255 162.381 21.1274 162.461C21.0292 162.542 20.9515 162.644 20.9005 162.76C20.8496 162.877 20.8268 163.003 20.8341 163.13C20.8413 163.257 20.8784 163.38 20.9424 163.489C22.4414 167.69 24.8971 171.485 28.1153 174.573C28.591 175.038 28.9413 174.96 29.3752 174.479C29.931 173.847 30.5454 173.269 31.2103 172.754C31.5466 172.464 31.9745 172.302 32.4184 172.297C32.8623 172.293 33.2936 172.445 33.6361 172.727C34.8943 173.659 36.0987 174.661 37.2435 175.728C38.5609 177.025 38.4721 178.269 37.1494 179.56C35.9675 180.756 34.37 181.449 32.6898 181.495Z" fill="#1F3F95"/>
<path d="M41.9644 166.198C41.8546 167.029 41.7918 167.871 41.6298 168.697C41.6112 168.876 41.5533 169.049 41.4603 169.203C41.3672 169.357 41.2413 169.489 41.0915 169.588C40.9417 169.688 40.7717 169.754 40.5936 169.78C40.4155 169.807 40.2338 169.794 40.0613 169.742C39.3765 169.58 39.0157 168.937 39.1778 168.09C39.6633 165.491 39.1413 162.804 37.7178 160.576C36.2943 158.347 34.076 156.744 31.5135 156.092C31.2757 156.046 31.0429 155.978 30.8181 155.888C30.5449 155.782 30.3196 155.581 30.1839 155.321C30.0483 155.061 30.0117 154.761 30.081 154.476C30.0978 154.318 30.1478 154.165 30.2279 154.027C30.308 153.89 30.4162 153.771 30.5456 153.678C30.6749 153.585 30.8224 153.521 30.9784 153.489C31.1344 153.457 31.2954 153.459 31.4507 153.493C32.6011 153.744 33.7211 154.117 34.7915 154.607C36.9377 155.692 38.7429 157.348 40.0085 159.393C41.274 161.438 41.9508 163.793 41.9644 166.198Z" fill="#1F3F95"/>
<path d="M37.6407 166.846C37.5989 167.159 37.5518 167.766 37.4316 168.351C37.4106 168.519 37.356 168.681 37.2712 168.827C37.1864 168.973 37.0731 169.101 36.938 169.202C36.8029 169.304 36.6488 169.377 36.4848 169.418C36.3208 169.458 36.1503 169.465 35.9834 169.439C35.6368 169.37 35.3319 169.165 35.1359 168.871C34.9398 168.577 34.8685 168.217 34.9378 167.871C35.0471 167.11 35.0629 166.339 34.9849 165.575C34.4934 162.684 32.7838 160.839 29.9607 160.034C29.0406 159.772 28.57 159.192 28.7373 158.465C28.9046 157.739 29.6 157.341 30.5567 157.545C34.5771 158.439 37.6407 162.324 37.6407 166.846Z" fill="#1F3F95"/>
<path d="M30.7188 167.28C30.8093 166.565 30.6326 165.842 30.2225 165.249C29.8124 164.657 29.1978 164.237 28.4969 164.07C27.6029 163.798 27.1899 163.171 27.399 162.418C27.6081 161.665 28.2982 161.372 29.2131 161.607C30.5283 161.96 31.6662 162.787 32.4077 163.929C33.1491 165.071 33.4414 166.447 33.2283 167.792C33.0662 168.712 32.58 169.136 31.7906 169.052C31.0011 168.969 30.6404 168.43 30.7031 167.484L30.7188 167.28Z" fill="#1F3F95"/>
<path d="M23.0911 160.41L23.3891 161.262" stroke="#1F3F95" stroke-linecap="round" stroke-linejoin="round"/>
<path d="M20.6704 153.577L22.7564 159.48" stroke="#1F3F95" stroke-linecap="round" stroke-linejoin="round"/>
<path d="M32.4546 174.573L37.531 179.006" stroke="#1F3F95" stroke-linecap="round" stroke-linejoin="round"/>
<path d="M31.0743 173.365L31.9056 174.092" stroke="#1F3F95" stroke-linecap="round" stroke-linejoin="round"/>
<path d="M107.399 24.7996C107.399 24.7996 105.606 18.0292 104.56 14.1134C103.514 10.1976 99.2013 2 90.2979 2C81.3945 2 73.5681 9.48135 75.6907 23.7278C77.8133 37.9743 89.9215 82.8624 89.9215 82.8624" stroke="#1F3F95" stroke-width="4" stroke-linecap="round" stroke-linejoin="round"/>
<path d="M69.992 84.2844C69.992 84.2844 71.7748 91.0809 55.0345 101.014C38.2943 110.948 17.9623 117.221 22.2598 127.73C28.0107 141.699 54.8411 123.024 64.2934 125.591C68.2144 126.637 67.8223 129.774 68.5072 130.474" stroke="#1F3F95" stroke-width="4" stroke-linecap="round" stroke-linejoin="round"/>
<path d="M119.863 71.46C119.863 71.46 122.189 84.0073 145.156 79.6576C182.835 72.5213 182.557 90.6992 173.299 94.615C162.618 99.1373 148.005 99.6026 140.885 112.427" stroke="#1F3F95" stroke-width="4" stroke-linecap="round" stroke-linejoin="round"/>
<path d="M108.465 29.0709L106.327 21.234" stroke="#1F3F95" stroke-width="8" stroke-linecap="round" stroke-linejoin="round"/>
<path d="M138.061 112.072C138.061 112.072 140.555 107.795 143.049 109.578C145.543 111.361 140.2 114.921 142.338 115.632C144.476 116.343 148.748 114.586 150.18 119.197C151.613 123.809 147.331 125.963 143.054 124.896C138.778 123.829 135.212 119.553 138.061 112.072Z" fill="white" stroke="#1F3F95" stroke-linecap="round" stroke-linejoin="round"/>
<path d="M146.243 115.919C146.243 115.919 151.539 119.553 148.335 124.394" stroke="#1F3F95" stroke-linecap="round" stroke-linejoin="round"/>
<path d="M139.938 169.596L87.8301 177.725C84.3587 178.248 80.8245 175.362 79.9358 171.232L52.9015 45.7274C51.333 39.8093 56.6657 36.6567 60.1371 36.113L109.662 29.1388C113.134 28.616 116.673 31.5019 117.562 35.632L148.089 160.933C148.998 165.068 146.818 168.566 139.938 169.596Z" fill="white" stroke="#1F3F95" stroke-linecap="round" stroke-linejoin="round"/>
<path d="M143.504 168.174L91.4166 176.303C87.9452 176.826 84.4058 173.935 83.517 169.805L56.4618 44.3002C55.573 40.17 57.6642 36.3849 61.167 35.8412L113.254 27.7116C116.726 27.1888 120.26 30.0799 121.149 34.2101L148.204 159.715C149.066 163.845 146.975 167.63 143.504 168.174Z" fill="#1F3F95" stroke="#040856" stroke-linecap="round" stroke-linejoin="round"/>
<path d="M143.755 153.263L84.96 162.439L60.3358 48.2107L119.136 39.0303L143.755 153.263Z" fill="#BEDB6F" stroke="#1F3F95" stroke-linecap="round" stroke-linejoin="round"/>
<path d="M93.7639 74.4401C94.3599 77.3207 93.9939 79.8145 92.9431 80.0079C91.8923 80.2014 90.5643 78.0213 89.9683 75.1406C89.3723 72.26 89.7383 69.7662 90.7839 69.5727C91.8295 69.3793 93.1679 71.5333 93.7639 74.4401Z" fill="#1F3F95"/>
<path d="M106.651 72.0247C107.247 74.9054 106.881 77.3991 105.836 77.5978C104.79 77.7965 103.452 75.6111 102.856 72.7305C102.26 69.8498 102.626 67.356 103.677 67.1626C104.727 66.9692 106.076 69.144 106.651 72.0247Z" fill="#1F3F95"/>
<path d="M84.913 86.8357C88.902 93.5851 95.7926 97.5636 102.605 96.2984C109.297 95.0594 114.044 89.1046 115.152 81.618" stroke="#1F3F95" stroke-width="4" stroke-linecap="round" stroke-linejoin="round"/>
<path d="M75.0057 90.6156L72.3237 96.0946" stroke="#1F3F95" stroke-miterlimit="10"/>
<path d="M97.4812 44.7341L77.4106 85.7117" stroke="#1F3F95" stroke-miterlimit="10"/>
<path d="M91.1918 45.0792L82.806 61.1555" stroke="#1F3F95" stroke-miterlimit="10"/>
<path d="M130.559 136.042L121.243 154.44" stroke="#1F3F95" stroke-miterlimit="10"/>
<path d="M134.867 127.536L131.971 133.256" stroke="#1F3F95" stroke-miterlimit="10"/>
<path d="M96.718 37.1273L80.511 39.642C80.166 39.6587 79.8273 39.5464 79.5605 39.327C79.2938 39.1077 79.1183 38.7969 79.068 38.4553C79.013 38.2965 78.9916 38.1281 79.0054 37.9607C79.0191 37.7932 79.0677 37.6305 79.1479 37.4829C79.2281 37.3353 79.3382 37.206 79.4712 37.1034C79.6042 37.0008 79.7571 36.927 79.9202 36.8868L96.1429 34.414C96.4881 34.3961 96.8275 34.5079 97.0945 34.7275C97.3615 34.9471 97.5367 35.2586 97.5858 35.6007C97.6339 35.7579 97.6495 35.9233 97.6314 36.0867C97.6134 36.2501 97.5622 36.4081 97.4809 36.5511C97.3997 36.694 97.2901 36.8188 97.1589 36.9179C97.0277 37.017 96.8777 37.0883 96.718 37.1273Z" fill="white" stroke="#1F3F95" stroke-linecap="round" stroke-linejoin="round"/>
<path d="M117.557 162.653C117.264 161.278 116.083 160.306 114.943 160.489C113.803 160.672 113.087 161.932 113.375 163.306C113.662 164.681 114.849 165.654 115.989 165.471C117.128 165.288 117.855 164.028 117.557 162.653Z" fill="white" stroke="#1F3F95" stroke-linecap="round" stroke-linejoin="round"/>
<path d="M110.572 121.059L86.5598 125.194C84.9914 125.466 83.9458 126.762 84.1967 128.08L87.3074 142.985L87.3911 143.372L89.0065 151.162L93.5236 144.794L114.755 141.134C116.323 140.862 117.369 139.566 117.118 138.254L113.939 122.956C113.652 121.639 112.151 120.787 110.572 121.059Z" fill="white" stroke="#1F3F95" stroke-miterlimit="10"/>
<path d="M108.847 130.014C108.864 129.808 108.85 129.6 108.805 129.397C108.805 129.361 108.805 129.319 108.805 129.282C108.397 127.306 106.155 126.041 103.792 126.443C101.936 126.762 100.566 128.012 100.263 129.512C99.7451 128.836 99.0472 128.319 98.2491 128.021C97.451 127.723 96.585 127.657 95.7508 127.829C93.3929 128.237 91.8088 130.166 92.2219 132.137C92.2219 132.137 92.1591 133.825 96.1586 136.277C99.4523 138.295 102.228 139.937 102.281 139.869C102.349 139.906 104.372 137.464 106.688 134.469C107.604 133.395 108.299 132.152 108.732 130.809C108.788 130.628 108.827 130.443 108.847 130.255C108.837 130.161 108.842 130.087 108.847 130.014Z" fill="#606060"/>
<path d="M71.8114 130.987C71.8114 130.987 70.311 126.281 67.4878 127.468C64.6647 128.655 69.1085 133.303 66.8657 133.533C64.6228 133.763 60.8377 131.096 58.4433 135.305C56.0488 139.514 59.7503 142.53 64.1575 142.42C68.5648 142.311 72.9668 138.907 71.8114 130.987Z" fill="white" stroke="#1F3F95" stroke-linecap="round" stroke-linejoin="round"/>
<path d="M61.9513 135.446C61.7944 136.011 61.4285 136.398 61.0886 136.309C60.7488 136.22 60.6286 135.697 60.7802 135.133C60.9318 134.568 61.303 134.176 61.6376 134.265C61.9722 134.354 62.1029 134.882 61.9513 135.446Z" fill="#1F3F95"/>
<path d="M59.8495 136.361C59.6979 136.926 59.3267 137.313 58.9921 137.229C58.6575 137.145 58.5321 136.612 58.6837 136.047C58.8353 135.483 59.2065 135.096 59.5411 135.185C59.8757 135.274 60.0012 135.781 59.8495 136.361Z" fill="#1F3F95"/>
<path d="M61.1672 138.656C61.0156 139.221 60.6444 139.613 60.3046 139.524C59.9647 139.435 59.8445 138.907 59.9961 138.342C60.1477 137.778 60.5189 137.391 60.8535 137.48C61.1881 137.569 61.3188 138.092 61.1672 138.656Z" fill="#1F3F95"/>
<path d="M62.6467 140.81C62.2769 141.153 61.8483 141.425 61.3815 141.615" stroke="#1F3F95" stroke-linecap="round" stroke-linejoin="round"/>
<path d="M63.8909 134.045C64.2311 134.687 64.4367 135.391 64.4951 136.114C64.5535 136.838 64.4636 137.566 64.2307 138.254C64.0248 138.918 63.7065 139.542 63.2897 140.099" stroke="#1F3F95" stroke-linecap="round" stroke-linejoin="round"/>
</svg>
