<svg width="99" height="54" viewBox="0 0 99 54" fill="none" xmlns="http://www.w3.org/2000/svg">
<path fill-rule="evenodd" clip-rule="evenodd" d="M6.00371 34.3068C6.8022 34.3001 7.59344 34.4587 8.32765 34.7727C9.03321 35.0722 9.67428 35.5051 10.2157 36.0477C10.7564 36.5896 11.1891 37.2294 11.4907 37.933C11.8047 38.6682 11.9633 39.4603 11.9566 40.2597V46.2398H6.00371C5.209 46.2438 4.42186 46.0853 3.69068 45.7739C2.24316 45.1661 1.08981 44.0176 0.475862 42.5727C0.00867556 41.4818 -0.11826 40.2753 0.111671 39.111C0.341602 37.9468 0.917686 36.8791 1.76451 36.0477C2.31279 35.5046 2.9602 35.0718 3.67161 34.7727C4.40869 34.4588 5.20259 34.3002 6.00371 34.3068ZM9.59178 43.8723V40.2597C9.59691 39.781 9.5042 39.3063 9.31933 38.8648C9.13902 38.4369 8.87715 38.0483 8.54832 37.7205C8.2201 37.3935 7.83272 37.1319 7.40679 36.9495C6.96516 36.7649 6.49054 36.6722 6.01189 36.6771C5.30112 36.6703 4.60441 36.8752 4.01054 37.2658C3.41666 37.6564 2.9525 38.2149 2.67719 38.8702C2.49106 39.3114 2.3983 39.7863 2.40475 40.2651C2.39723 40.9779 2.60345 41.6765 2.9968 42.2709C3.39014 42.8653 3.95258 43.3282 4.61153 43.5998C5.05809 43.784 5.53705 43.8766 6.02006 43.8723H9.59178ZM19.8084 34.3068V36.6716H18.6123C18.1337 36.6664 17.659 36.7591 17.2174 36.9441C16.794 37.1289 16.4094 37.3924 16.0841 37.7205C15.7552 38.0483 15.4934 38.4369 15.3131 38.8648C15.1269 39.306 15.0342 39.7809 15.0406 40.2597V46.2398H12.6322V40.2597C12.6221 39.4611 12.777 38.669 13.0872 37.933C13.3907 37.2271 13.8283 36.5868 14.3759 36.0477C14.9251 35.5058 15.5722 35.0731 16.283 34.7727C17.0141 34.4613 17.8013 34.3028 18.596 34.3068H19.8084ZM22.2603 36.0613C22.8227 35.4908 23.4971 35.0428 24.241 34.7455C25.6814 34.1607 27.2931 34.1607 28.7336 34.7455C29.4766 35.0429 30.1501 35.4909 30.7115 36.0613L31.5288 36.8787L29.8942 38.5542L29.0441 37.7369C28.704 37.3928 28.297 37.122 27.8481 36.9413C26.9796 36.5854 26.0059 36.5854 25.1373 36.9413C24.6882 37.1216 24.2811 37.3924 23.9413 37.7369C23.5939 38.0642 23.3215 38.4629 23.1431 38.9056C22.7869 39.7789 22.7869 40.7568 23.1431 41.6301C23.3246 42.0791 23.5962 42.4862 23.9413 42.8261C24.2713 43.1679 24.6678 43.4386 25.1064 43.6213C25.5449 43.804 26.0163 43.895 26.4914 43.8886C26.9659 43.8875 27.4358 43.795 27.8754 43.6162C28.3181 43.4377 28.7168 43.1653 29.0441 42.8179L29.8942 42.0006L31.5288 43.6734L30.7115 44.4907C30.1486 45.0594 29.4756 45.5072 28.7336 45.8066C27.2931 46.3914 25.6814 46.3914 24.241 45.8066C23.4981 45.5073 22.8242 45.0595 22.2603 44.4907C21.6951 43.932 21.2516 43.2623 20.9581 42.5237C20.3913 41.0807 20.3913 39.4768 20.9581 38.0338C21.2508 37.2948 21.6943 36.6249 22.2603 36.0668V36.0613ZM38.4461 34.3068C39.2447 34.2998 40.036 34.4584 40.7701 34.7727C41.4806 35.0734 42.1277 35.5061 42.6772 36.0477C43.2247 36.5868 43.6623 37.2271 43.9658 37.933C44.2798 38.6682 44.4384 39.4603 44.4317 40.2597V46.2398H42.0669V40.2597C42.072 39.781 41.9793 39.3063 41.7944 38.8648C41.6141 38.4369 41.3523 38.0483 41.0234 37.7205C40.6862 37.3855 40.2861 37.1204 39.8462 36.9404C39.4063 36.7604 38.9351 36.6691 38.4598 36.6716C37.9811 36.6664 37.5064 36.7591 37.0648 36.9441C36.2065 37.3093 35.5229 37.9928 35.1578 38.8512C34.9728 39.2927 34.8801 39.7674 34.8853 40.2461V46.2398H32.4851V29.5227H34.8499V35.5301C35.3494 35.1378 35.9112 34.832 36.5118 34.6256C37.1313 34.4116 37.7825 34.3038 38.438 34.3068H38.4461Z" fill="#1F3F95"/>
<path fill-rule="evenodd" clip-rule="evenodd" d="M66.633 34.3341V40.2869C66.6369 41.0805 66.4793 41.8665 66.1699 42.5973C65.866 43.3093 65.4285 43.9567 64.8812 44.5043C64.3326 45.0505 63.6855 45.4877 62.9741 45.793C62.2394 46.1048 61.4484 46.2625 60.6502 46.2561C59.7069 46.2648 58.7759 46.0412 57.9394 45.605C57.1209 45.1851 56.4111 44.5808 55.8661 43.8396C55.3229 44.5772 54.6185 45.181 53.8065 45.605C52.966 46.0437 52.03 46.2674 51.082 46.2561C50.2876 46.2598 49.5008 46.1022 48.769 45.793C48.0571 45.4886 47.4099 45.0513 46.8619 44.5043C46.3137 43.9574 45.8762 43.3099 45.5733 42.5973C45.2617 41.8671 45.1031 41.0808 45.1074 40.2869V34.3341H47.4994V40.2869C47.4975 41.2463 47.8745 42.1677 48.5483 42.8506C48.8773 43.178 49.2656 43.4397 49.6926 43.6216C50.1341 43.8066 50.6088 43.8993 51.0875 43.8941C51.5705 43.8982 52.0494 43.8056 52.496 43.6216C52.9283 43.4436 53.3211 43.1817 53.6517 42.8511C53.9823 42.5205 54.2441 42.1278 54.4222 41.6955C54.606 41.2488 54.6987 40.7699 54.6946 40.2869V34.3341H57.0594V40.2869C57.0553 40.7699 57.1479 41.2489 57.3319 41.6955C57.691 42.5623 58.3757 43.2539 59.239 43.6216C59.6815 43.8066 60.157 43.8993 60.6366 43.8941C61.1196 43.8982 61.5985 43.8056 62.0451 43.6216C62.4768 43.4425 62.8692 43.1806 63.2003 42.8506C63.5353 42.5134 63.8004 42.1133 63.9804 41.6734C64.1604 41.2334 64.2517 40.7623 64.2492 40.2869V34.3341H66.633ZM73.4441 34.3068C74.2435 34.2998 75.0357 34.4584 75.7708 34.7727C77.1918 35.3809 78.3244 36.5125 78.9338 37.933C79.2469 38.6684 79.4046 39.4605 79.397 40.2597V46.2398H73.4359C72.6421 46.2441 71.8558 46.0855 71.1256 45.7739C69.6832 45.1623 68.5345 44.0146 67.9217 42.5727C67.4534 41.482 67.3258 40.2752 67.5558 39.1107C67.7858 37.9462 68.3625 36.8785 69.2103 36.0477C69.7586 35.5046 70.406 35.0718 71.1174 34.7727C71.8476 34.4611 72.6339 34.3025 73.4278 34.3068H73.4441ZM77.0322 43.8723V40.2597C77.0374 39.781 76.9447 39.3063 76.7597 38.8648C76.3938 38.0069 75.7105 37.3236 74.8526 36.9577C74.41 36.7732 73.9345 36.6805 73.455 36.6853C72.9797 36.6827 72.5085 36.774 72.0685 36.954C71.6286 37.134 71.2285 37.3991 70.8913 37.7342C70.5642 38.0634 70.3026 38.4516 70.1203 38.8784C69.9354 39.32 69.8427 39.7946 69.8479 40.2733C69.8453 40.7487 69.9366 41.2198 70.1166 41.6598C70.2966 42.0997 70.5617 42.4998 70.8968 42.837C71.2278 43.1669 71.6202 43.4289 72.0519 43.608C72.4985 43.7919 72.9775 43.8846 73.4604 43.8805L77.0322 43.8723ZM87.2651 34.3068V36.6716H86.0691C85.5904 36.6664 85.1157 36.7591 84.6742 36.9441C83.8158 37.3093 83.1323 37.9928 82.7671 38.8512C82.5821 39.2927 82.4894 39.7674 82.4946 40.2461V46.2398H80.0808V40.2597C80.0741 39.4603 80.2327 38.6682 80.5467 37.933C80.8492 37.2266 81.2869 36.5861 81.8353 36.0477C82.3841 35.5052 83.0314 35.0725 83.7424 34.7727C84.4736 34.4613 85.2607 34.3028 86.0554 34.3068H87.2651ZM97.31 42.0387L98.9856 43.7143L98.1682 44.5316C97.6148 45.0881 96.9568 45.5297 96.2321 45.8311C95.5074 46.1325 94.7302 46.2876 93.9454 46.2876C93.1605 46.2876 92.3834 46.1325 91.6587 45.8311C90.934 45.5297 90.276 45.0881 89.7225 44.5316C89.1537 43.9716 88.7099 43.2975 88.4202 42.5537C88.1405 41.8372 87.9964 41.0751 87.9952 40.306C87.996 39.5422 88.1401 38.7853 88.4202 38.0747C88.713 37.3357 89.1565 36.6658 89.7225 36.1077C90.2864 35.5389 90.9603 35.0911 91.7032 34.7918C93.1402 34.2116 94.7466 34.2136 96.1821 34.7972C96.925 35.0966 97.5989 35.5443 98.1628 36.1131L98.9801 36.9305L92.3679 43.5535C93.039 43.89 93.7996 44.0046 94.54 43.8807C95.2804 43.7568 95.9623 43.4009 96.4873 42.8642L97.3046 42.0469L97.31 42.0387ZM91.3844 37.7614C90.846 38.2851 90.488 38.9664 90.3622 39.7068C90.2363 40.4473 90.3491 41.2086 90.6842 41.8807L91.6541 40.9108L93.0354 39.5295C93.524 39.041 93.9935 38.576 94.4439 38.1346C94.8944 37.6933 95.2449 37.3473 95.4956 37.0966C94.8347 36.7628 94.0866 36.6419 93.3542 36.7506C92.6007 36.858 91.9047 37.2137 91.3762 37.7614H91.3844Z" fill="#A6CE39"/>
<path fill-rule="evenodd" clip-rule="evenodd" d="M14.2097 49.2693H13.3052V52.871H12.9129V49.2693H12.0138V48.8988H14.2097V49.2693ZM16.8415 51.5333V51.3208C16.8403 51.1356 16.8027 50.9525 16.7307 50.7818C16.6587 50.6112 16.5538 50.4564 16.4219 50.3264C16.1571 50.0385 15.7908 49.8646 15.4003 49.8415C15.1897 49.827 14.9785 49.859 14.7817 49.9353C14.5849 50.0116 14.4073 50.1302 14.2614 50.2828C14.112 50.426 13.9931 50.5979 13.9119 50.7882C13.8307 50.9786 13.7888 51.1834 13.7888 51.3903C13.7888 51.5972 13.8307 51.802 13.9119 51.9924C13.9931 52.1827 14.112 52.3546 14.2614 52.4978C14.3996 52.6409 14.5657 52.7541 14.7494 52.8305C14.9331 52.9069 15.1305 52.9448 15.3294 52.9419C15.6468 52.9386 15.9553 52.8367 16.212 52.6502C16.4688 52.4637 16.6612 52.2019 16.7625 51.9011H16.3565C16.2764 52.0979 16.1378 52.2652 15.9595 52.3807C15.7811 52.4962 15.5717 52.5542 15.3594 52.5468C15.0743 52.5594 14.7953 52.4618 14.5802 52.2744C14.3628 52.0891 14.2268 51.826 14.2015 51.5415L16.8415 51.5333ZM16.4546 51.171C16.4077 50.9101 16.2708 50.6739 16.0677 50.5035C15.9138 50.3746 15.7288 50.2882 15.5312 50.2528C15.3335 50.2174 15.13 50.2343 14.9409 50.3017C14.7518 50.3692 14.5836 50.4849 14.4529 50.6373C14.3223 50.7898 14.2337 50.9738 14.1961 51.171H16.4546ZM20.356 52.0019L20.3151 52.0918C20.1852 52.3582 19.9798 52.5806 19.7245 52.7312C19.4693 52.8819 19.1754 52.9542 18.8793 52.9391C18.4661 52.9394 18.0691 52.7781 17.7732 52.4896C17.6262 52.3487 17.5092 52.1795 17.4293 51.9923C17.3494 51.805 17.3082 51.6035 17.3082 51.3998C17.3082 51.1962 17.3494 50.9947 17.4293 50.8074C17.5092 50.6201 17.6262 50.4509 17.7732 50.3101C17.9198 50.1623 18.0942 50.045 18.2864 49.965C18.4786 49.885 18.6848 49.844 18.893 49.8442C19.1993 49.8381 19.5007 49.9224 19.7593 50.0867C19.9975 50.2266 20.1876 50.4356 20.3042 50.686L20.3614 50.8141H19.8983C19.8094 50.6591 19.6862 50.5266 19.5381 50.4265C19.3901 50.3265 19.2212 50.2616 19.0442 50.2369C18.8673 50.2122 18.687 50.2283 18.5173 50.2839C18.3475 50.3396 18.1927 50.4333 18.0647 50.558C17.9485 50.6619 17.855 50.7888 17.7903 50.9307C17.7256 51.0725 17.691 51.2263 17.6887 51.3822C17.6864 51.5381 17.7164 51.6928 17.7769 51.8365C17.8374 51.9802 17.9271 52.1098 18.0402 52.2172C18.1485 52.3278 18.2784 52.4149 18.4218 52.473C18.5653 52.5311 18.7192 52.559 18.8739 52.555C19.0784 52.5636 19.2816 52.5176 19.4625 52.4219C19.6435 52.3261 19.7957 52.184 19.9037 52.0101L20.356 52.0019ZM23.2657 52.871H22.8733V51.1437C22.8744 51.0236 22.8507 50.9046 22.8039 50.794C22.757 50.6834 22.6879 50.5836 22.6009 50.5008C22.5186 50.4123 22.4185 50.3424 22.3072 50.2954C22.1959 50.2484 22.076 50.2256 21.9552 50.2283C21.7189 50.2255 21.491 50.3155 21.3204 50.479C21.2362 50.5585 21.1697 50.6549 21.1256 50.762C21.0814 50.8691 21.0606 50.9844 21.0643 51.1001V52.8465H20.6666V48.8879H21.0616V50.3455C21.1602 50.2068 21.2893 50.0926 21.4391 50.0118C21.5888 49.931 21.7552 49.8858 21.9252 49.8796C22.0996 49.8688 22.2742 49.8956 22.4373 49.9581C22.6004 50.0206 22.7481 50.1174 22.8706 50.242C22.9991 50.3653 23.1006 50.514 23.1686 50.6786C23.2366 50.8432 23.2696 51.0202 23.2657 51.1982V52.871ZM26.3524 52.871H25.9601V51.1437C25.9611 51.0236 25.9375 50.9046 25.8906 50.794C25.8438 50.6834 25.7747 50.5836 25.6877 50.5008C25.6041 50.4163 25.5046 50.3493 25.3949 50.3036C25.2852 50.2578 25.1676 50.2343 25.0488 50.2343C24.93 50.2343 24.8123 50.2578 24.7027 50.3036C24.593 50.3493 24.4935 50.4163 24.4099 50.5008C24.3225 50.5833 24.2532 50.683 24.2063 50.7937C24.1594 50.9044 24.136 51.0236 24.1375 51.1437V52.8628H23.7424V51.1846C23.7373 51.0087 23.7677 50.8336 23.8318 50.6698C23.896 50.5059 23.9925 50.3567 24.1157 50.2311C24.3643 49.9868 24.6989 49.8499 25.0474 49.8499C25.396 49.8499 25.7306 49.9868 25.9792 50.2311C26.1023 50.3567 26.1989 50.5059 26.263 50.6698C26.3272 50.8336 26.3576 51.0087 26.3524 51.1846V52.8628V52.871ZM29.8942 51.3971C29.8956 51.6005 29.8554 51.8021 29.7763 51.9894C29.6971 52.1768 29.5806 52.3461 29.4337 52.4869C29.294 52.6296 29.1268 52.7426 28.9422 52.8191C28.7576 52.8956 28.5595 52.9339 28.3598 52.9319C28.16 52.9299 27.9627 52.8875 27.7797 52.8072C27.5968 52.727 27.4319 52.6106 27.2951 52.4651C27.0139 52.17 26.8597 51.7762 26.8659 51.3686C26.872 50.961 27.0378 50.5721 27.3278 50.2855C27.4666 50.1374 27.6359 50.0212 27.8241 49.945C28.0123 49.8687 28.2148 49.8344 28.4175 49.8442C28.6143 49.8479 28.8083 49.8916 28.9877 49.9727C29.1671 50.0537 29.3281 50.1703 29.461 50.3155C29.5992 50.4571 29.7081 50.6245 29.7815 50.8082C29.8549 50.992 29.8914 51.1884 29.8887 51.3862L29.8942 51.3971ZM29.5019 51.3671C29.4969 51.0684 29.378 50.7828 29.1695 50.5689C29.0715 50.4624 28.9522 50.3778 28.8194 50.3206C28.6865 50.2633 28.5431 50.2346 28.3985 50.2365C28.2493 50.2325 28.101 50.2597 27.9631 50.3165C27.8251 50.3733 27.7006 50.4583 27.5975 50.5662C27.4886 50.6723 27.4025 50.7995 27.3445 50.9401C27.2864 51.0806 27.2575 51.2315 27.2597 51.3835C27.2506 51.6853 27.3602 51.9787 27.5648 52.2008C27.6611 52.3124 27.7797 52.4025 27.913 52.4654C28.0462 52.5282 28.1912 52.5625 28.3385 52.5659C28.4914 52.5748 28.6443 52.549 28.7859 52.4905C28.9274 52.432 29.0539 52.3423 29.1559 52.2281C29.2662 52.1165 29.3526 51.9835 29.4098 51.8374C29.4669 51.6912 29.4936 51.5349 29.4882 51.378L29.5019 51.3671ZM30.796 52.871H30.4036V48.8879H30.796V52.871ZM34.3786 51.3971C34.3795 51.6007 34.3388 51.8023 34.2592 51.9897C34.1796 52.177 34.0626 52.3462 33.9154 52.4869C33.7756 52.6296 33.6084 52.7426 33.4239 52.8191C33.2393 52.8956 33.0412 52.9339 32.8414 52.9319C32.6417 52.9299 32.4444 52.8875 32.2614 52.8072C32.0784 52.727 31.9136 52.6106 31.7767 52.4651C31.6382 52.3238 31.529 52.1564 31.4556 51.9726C31.3821 51.7888 31.3459 51.5923 31.349 51.3944C31.3467 51.1884 31.3863 50.9841 31.4654 50.794C31.5446 50.6038 31.6616 50.4317 31.8094 50.2883C31.9486 50.1405 32.118 50.0246 32.3061 49.9484C32.4942 49.8723 32.6965 49.8376 32.8992 49.8469C33.0989 49.8498 33.2959 49.8939 33.4777 49.9764C33.6596 50.0589 33.8225 50.1781 33.9563 50.3264C34.0949 50.4678 34.2042 50.6352 34.2781 50.8189C34.352 51.0026 34.3889 51.1991 34.3867 51.3971H34.3786ZM33.9835 51.3671C33.98 51.0681 33.8609 50.7821 33.6512 50.5689C33.5535 50.4628 33.4347 50.3784 33.3023 50.3211C33.17 50.2639 33.0271 50.235 32.8829 50.2365C32.731 50.2303 32.5796 50.2565 32.4387 50.3133C32.2978 50.3702 32.1706 50.4564 32.0655 50.5662C31.9572 50.6727 31.8714 50.8 31.8134 50.9404C31.7554 51.0808 31.7262 51.2315 31.7277 51.3835C31.7182 51.6859 31.8289 51.9798 32.0356 52.2008C32.1312 52.3124 32.2493 52.4026 32.3822 52.4655C32.515 52.5284 32.6596 52.5626 32.8066 52.5659C32.9617 52.5769 33.1173 52.5522 33.2613 52.4936C33.4054 52.435 33.5341 52.3442 33.6375 52.2281C33.7479 52.1165 33.8343 51.9835 33.8915 51.8374C33.9486 51.6912 33.9753 51.5349 33.9699 51.378L33.9835 51.3671ZM37.9121 51.3671V52.7294C37.9139 52.9084 37.8733 53.0854 37.7938 53.2459C37.7142 53.4064 37.598 53.5458 37.4544 53.6529C37.1772 53.8729 36.8349 53.9949 36.481 53.9998C36.1271 54.0048 35.7816 53.8924 35.4983 53.6802C35.2621 53.492 35.0922 53.2334 35.0134 52.9419H35.3948C35.4632 53.1553 35.6014 53.3395 35.7871 53.4649C35.9941 53.6227 36.2507 53.7013 36.5106 53.6863C36.7704 53.6713 37.0163 53.5638 37.2038 53.3832C37.3038 53.2938 37.3836 53.1842 37.4381 53.0616C37.4926 52.939 37.5205 52.8063 37.5198 52.6721V52.3997C37.3858 52.5589 37.2191 52.6875 37.0311 52.7768C36.8431 52.8661 36.6382 52.914 36.4301 52.9173C36.2274 52.9261 36.0252 52.8912 35.8372 52.815C35.6492 52.7389 35.4798 52.6233 35.3403 52.476C35.0516 52.1887 34.8867 51.8 34.8806 51.3929C34.8745 50.9857 35.0277 50.5922 35.3076 50.2964C35.4445 50.15 35.6097 50.0329 35.7932 49.9522C35.9766 49.8715 36.1746 49.8288 36.375 49.8268C36.5754 49.8247 36.7742 49.8634 36.9593 49.9404C37.1443 50.0173 37.3119 50.1311 37.4517 50.2746C37.6004 50.4138 37.7181 50.5829 37.7969 50.7707C37.8758 50.9584 37.9142 51.1608 37.9094 51.3644L37.9121 51.3671ZM37.5198 51.3971C37.5272 51.2403 37.5017 51.0836 37.445 50.9372C37.3882 50.7908 37.3014 50.6579 37.1902 50.5471C37.0863 50.4312 36.9576 50.3402 36.8138 50.2808C36.67 50.2214 36.5146 50.1951 36.3592 50.2038C36.2124 50.2104 36.0684 50.2466 35.9358 50.3103C35.8033 50.3739 35.6851 50.4638 35.5882 50.5743C35.3826 50.7962 35.2712 51.0892 35.2776 51.3917C35.2788 51.541 35.3095 51.6887 35.368 51.8261C35.4264 51.9636 35.5114 52.0882 35.6182 52.1926C35.7215 52.2996 35.8457 52.3842 35.9829 52.4414C36.1202 52.4986 36.2677 52.527 36.4164 52.525C36.5615 52.5271 36.7054 52.4986 36.8387 52.4413C36.9721 52.384 37.0918 52.2993 37.1902 52.1926C37.399 51.9802 37.5172 51.695 37.5198 51.3971ZM38.8276 49.569H38.4352V48.8825H38.8276V49.569ZM38.8276 52.8656H38.4352V49.9259H38.8276V52.871V52.8656ZM42.4156 51.5279H39.7866C39.8112 51.8119 39.9461 52.0751 40.1625 52.2608C40.3786 52.4484 40.6585 52.5459 40.9444 52.5332C41.1566 52.5398 41.3657 52.4815 41.5439 52.3661C41.722 52.2507 41.8608 52.0838 41.9416 51.8875H42.3584C42.2629 52.1912 42.0718 52.4559 41.8135 52.6422C41.5601 52.8265 41.2551 52.9266 40.9417 52.9282C40.7424 52.9312 40.5445 52.8934 40.3604 52.817C40.1763 52.7406 40.0097 52.6273 39.871 52.4842C39.7219 52.3408 39.6034 52.1688 39.5223 51.9785C39.4413 51.7882 39.3996 51.5835 39.3996 51.3767C39.3996 51.1698 39.4413 50.9652 39.5223 50.7749C39.6034 50.5846 39.7219 50.4126 39.871 50.2692C40.0168 50.1166 40.1944 49.9979 40.3912 49.9217C40.5881 49.8454 40.7992 49.8134 41.0098 49.8278C41.4004 49.851 41.7666 50.0248 42.0315 50.3128C42.2972 50.5747 42.448 50.9314 42.451 51.3045V51.517L42.4156 51.5279ZM42.0287 51.1655C41.9809 50.9043 41.843 50.6682 41.6392 50.498C41.4308 50.3311 41.1719 50.2402 40.9049 50.2402C40.638 50.2402 40.379 50.3311 40.1707 50.498C39.9665 50.6693 39.8302 50.908 39.7866 51.171L42.0287 51.1655ZM44.587 51.9829C44.5978 52.111 44.5788 52.2399 44.5316 52.3594C44.4843 52.479 44.41 52.586 44.3145 52.6721C44.2221 52.7661 44.1105 52.8391 43.9873 52.8861C43.8642 52.9331 43.7323 52.9531 43.6007 52.9446C43.4821 52.9382 43.366 52.9084 43.2589 52.857C43.1518 52.8055 43.056 52.7335 42.9769 52.6449C42.8128 52.4692 42.723 52.2369 42.7262 51.9965H43.1349V52.0946C43.14 52.1553 43.1574 52.2143 43.186 52.2682C43.2145 52.322 43.2537 52.3695 43.3011 52.4079C43.3459 52.4565 43.4002 52.4953 43.4606 52.522C43.5211 52.5487 43.5864 52.5627 43.6525 52.5632C43.7246 52.5654 43.7963 52.5533 43.8637 52.5276C43.931 52.5018 43.9926 52.463 44.0448 52.4133C44.1329 52.3166 44.1807 52.1899 44.1783 52.0591C44.179 51.936 44.1362 51.8166 44.0574 51.7219C43.9787 51.6272 43.8691 51.5633 43.7479 51.5415L43.4046 51.4325C43.24 51.3924 43.0939 51.2974 42.9904 51.1632C42.887 51.029 42.8322 50.8636 42.8352 50.6942C42.828 50.5855 42.8451 50.4766 42.8851 50.3753C42.9252 50.274 42.9872 50.1829 43.0668 50.1085C43.2242 49.9496 43.4371 49.8579 43.6607 49.8524C43.8657 49.8423 44.0667 49.9116 44.2219 50.0458C44.302 50.1073 44.3678 50.1854 44.4148 50.2748C44.4618 50.3641 44.4889 50.4626 44.4944 50.5634V50.6506H44.0802V50.5989C44.0812 50.5487 44.0697 50.4991 44.0469 50.4544C44.0241 50.4098 43.9906 50.3714 43.9495 50.3428C43.8611 50.2801 43.7554 50.2468 43.6471 50.2474C43.5391 50.2492 43.4358 50.2921 43.3583 50.3673C43.2826 50.4383 43.2376 50.536 43.2329 50.6397C43.2202 50.8504 43.3456 51.0003 43.6089 51.0892L43.9495 51.2037C44.1254 51.2497 44.2818 51.3511 44.3956 51.4929C44.5094 51.6347 44.5746 51.8093 44.5815 51.991L44.587 51.9829ZM48.0606 52.8601H47.6874V48.8825H48.0797V52.8601H48.0606ZM51.2128 52.8601H50.8205V51.1437C50.8215 51.0236 50.7978 50.9046 50.751 50.794C50.7041 50.6834 50.635 50.5836 50.548 50.5008C50.4644 50.4163 50.3649 50.3493 50.2553 50.3036C50.1456 50.2578 50.028 50.2343 49.9091 50.2343C49.7903 50.2343 49.6727 50.2578 49.563 50.3036C49.4534 50.3493 49.3539 50.4163 49.2703 50.5008C49.1827 50.5832 49.1133 50.6829 49.0664 50.7936C49.0195 50.9043 48.9961 51.0235 48.9978 51.1437V52.8628H48.6028V51.1846C48.5976 51.0087 48.6281 50.8336 48.6922 50.6698C48.7563 50.5059 48.8529 50.3567 48.976 50.2311C49.2251 49.9866 49.5602 49.8497 49.9091 49.8497C50.2581 49.8497 50.5932 49.9866 50.8423 50.2311C50.9651 50.3568 51.0612 50.5062 51.1248 50.67C51.1885 50.8339 51.2184 51.0089 51.2128 51.1846V52.8628V52.8601ZM52.812 52.9228C52.0964 52.9228 51.7331 52.6176 51.7222 52.0074V48.8934H52.1146V49.9205H52.7984V50.2883H52.1146V51.9611C52.1146 52.3997 52.3434 52.6176 52.7984 52.6176V52.9446L52.812 52.9228ZM55.8852 51.5224H53.2397C53.2651 51.8069 53.4011 52.0701 53.6184 52.2553C53.8336 52.4428 54.1126 52.5403 54.3976 52.5277C54.6099 52.5351 54.8194 52.4771 54.9977 52.3616C55.176 52.2462 55.3146 52.0788 55.3948 51.8821H55.8143C55.7132 52.1824 55.5213 52.4439 55.265 52.6304C55.0088 52.8168 54.7009 52.919 54.384 52.9228C53.9804 52.9167 53.5947 52.7553 53.307 52.4722C53.0194 52.1891 52.8518 51.806 52.8393 51.4026C52.8315 51.1905 52.8691 50.9793 52.9494 50.7829C53.0298 50.5866 53.151 50.4096 53.3051 50.2637C53.4512 50.1114 53.6288 49.993 53.8256 49.9167C54.0223 49.8405 54.2334 49.8083 54.4439 49.8224C54.8353 49.8454 55.2025 50.0192 55.4683 50.3073C55.7323 50.5702 55.882 50.9265 55.8852 51.299V51.5115V51.5224ZM55.4983 51.1601C55.4514 50.8992 55.3145 50.663 55.1114 50.4926C54.9025 50.3259 54.6431 50.2352 54.3758 50.2352C54.1086 50.2352 53.8492 50.3259 53.6402 50.4926C53.4312 50.6635 53.2893 50.9028 53.2397 51.1683L55.4983 51.1601ZM57.5062 50.2501C57.345 50.2503 57.1881 50.3029 57.0594 50.4C56.9701 50.4684 56.892 50.5502 56.8278 50.6424C56.7565 50.7831 56.7227 50.9398 56.7297 51.0974V52.8601H56.3238V49.9259H56.6916V50.3455C56.7723 50.1871 56.901 50.0584 57.0594 49.9777C57.1985 49.9011 57.3557 49.8635 57.5144 49.8687V50.261L57.5062 50.2501ZM60.2606 52.8601H59.8683V51.1437C59.8693 51.0236 59.8456 50.9046 59.7988 50.794C59.7519 50.6834 59.6828 50.5836 59.5958 50.5008C59.512 50.4163 59.4123 50.3492 59.3024 50.3034C59.1925 50.2576 59.0746 50.2341 58.9556 50.2341C58.8365 50.2341 58.7187 50.2576 58.6088 50.3034C58.4989 50.3492 58.3992 50.4163 58.3153 50.5008C58.2283 50.5836 58.1593 50.6834 58.1124 50.794C58.0655 50.9046 58.0419 51.0236 58.0429 51.1437V52.8628H57.6588V51.1846C57.6536 51.0087 57.684 50.8336 57.7482 50.6698C57.8123 50.5059 57.9088 50.3567 58.032 50.2311C58.2806 49.9868 58.6152 49.8499 58.9638 49.8499C59.3123 49.8499 59.6469 49.9868 59.8955 50.2311C60.0187 50.3567 60.1152 50.5059 60.1793 50.6698C60.2435 50.8336 60.2739 51.0087 60.2688 51.1846V52.8628L60.2606 52.8601ZM63.8023 51.3835V52.8601H63.41V52.3997C63.2763 52.5603 63.1099 52.6905 62.9218 52.7816C62.7338 52.8727 62.5285 52.9226 62.3196 52.928C62.1107 52.9335 61.9031 52.8942 61.7105 52.813C61.518 52.7317 61.3451 52.6103 61.2032 52.4569C60.922 52.1618 60.7679 51.7681 60.774 51.3605C60.7801 50.9529 60.946 50.5639 61.2359 50.2774C61.3753 50.1303 61.5449 50.0152 61.733 49.94C61.9212 49.8647 62.1233 49.8311 62.3257 49.8415C62.524 49.8455 62.7196 49.8892 62.9007 49.9702C63.0818 50.0512 63.2448 50.1677 63.38 50.3128C63.519 50.4525 63.6273 50.6196 63.6981 50.8035C63.769 50.9873 63.8007 51.1839 63.7914 51.3808L63.8023 51.3835ZM63.41 51.3535C63.4088 51.054 63.2893 50.7671 63.0776 50.5553C62.9795 50.4492 62.8602 50.365 62.7273 50.3082C62.5944 50.2514 62.4511 50.2232 62.3066 50.2256C62.1577 50.2229 62.0097 50.2507 61.872 50.3074C61.7342 50.3641 61.6095 50.4485 61.5056 50.5553C61.3965 50.6612 61.3103 50.7884 61.2522 50.929C61.1941 51.0695 61.1654 51.2205 61.1678 51.3726C61.1625 51.5224 61.187 51.6718 61.2399 51.8121C61.2927 51.9524 61.3729 52.0808 61.4757 52.1899C61.5718 52.3013 61.6899 52.3918 61.8226 52.4555C61.9552 52.5193 62.0996 52.555 62.2467 52.5604C62.4016 52.5693 62.5565 52.5435 62.7002 52.4851C62.8439 52.4267 62.9728 52.337 63.0776 52.2226C63.1885 52.1108 63.2752 51.9774 63.3323 51.8307C63.3895 51.6841 63.416 51.5272 63.41 51.3699V51.3535ZM65.4016 52.9228C64.686 52.9228 64.3272 52.6176 64.3254 52.0074V48.8934H64.7177V49.9205H65.4016V50.2883H64.7177V51.9611C64.7177 52.3997 64.9466 52.6176 65.4016 52.6176V52.9446V52.9228ZM66.2489 49.5636H65.8565V48.877H66.2489V49.5636ZM66.2489 52.8601H65.8565V49.9259H66.2489V52.871V52.8601ZM69.8151 51.3862C69.8165 51.5896 69.7764 51.7912 69.6972 51.9786C69.6181 52.1659 69.5015 52.3352 69.3547 52.476C69.2149 52.6187 69.0477 52.7317 68.8632 52.8082C68.6786 52.8847 68.4805 52.923 68.2807 52.921C68.081 52.919 67.8837 52.8766 67.7007 52.7963C67.5177 52.7161 67.3529 52.5997 67.216 52.4542C66.9348 52.1591 66.7807 51.7653 66.7868 51.3577C66.7929 50.9501 66.9588 50.5612 67.2487 50.2746C67.3875 50.1265 67.5569 50.0103 67.745 49.9341C67.9332 49.8578 68.1357 49.8235 68.3385 49.8333C68.5353 49.837 68.7293 49.8807 68.9086 49.9618C69.088 50.0428 69.249 50.1594 69.3819 50.3046C69.5202 50.4462 69.6291 50.6136 69.7025 50.7973C69.7759 50.9811 69.8123 51.1775 69.8097 51.3753L69.8151 51.3862ZM69.4228 51.3562C69.4179 51.0575 69.299 50.772 69.0904 50.558C68.9925 50.4515 68.8732 50.3669 68.7403 50.3097C68.6075 50.2524 68.4641 50.2237 68.3194 50.2256C68.1703 50.2216 68.022 50.2488 67.884 50.3056C67.7461 50.3624 67.6215 50.4474 67.5184 50.5553C67.4096 50.6614 67.3235 50.7886 67.2654 50.9292C67.2073 51.0697 67.1785 51.2206 67.1806 51.3726C67.1716 51.6744 67.2811 51.9678 67.4857 52.1899C67.582 52.3015 67.7007 52.3916 67.8339 52.4545C67.9672 52.5173 68.1122 52.5516 68.2595 52.555C68.4124 52.5639 68.5653 52.5381 68.7068 52.4796C68.8484 52.4211 68.9748 52.3314 69.0768 52.2172C69.1872 52.1056 69.2736 51.9726 69.3307 51.8265C69.3879 51.6803 69.4146 51.524 69.4092 51.3671L69.4228 51.3562ZM72.9237 52.8601H72.5287V51.1437C72.5303 51.0235 72.507 50.9043 72.4601 50.7936C72.4132 50.6829 72.3437 50.5832 72.2562 50.5008C72.1742 50.415 72.0756 50.3467 71.9666 50.2999C71.8575 50.2531 71.7401 50.2287 71.6214 50.2283C71.5014 50.2281 71.3826 50.2521 71.2721 50.2989C71.1616 50.3457 71.0618 50.4144 70.9785 50.5008C70.8914 50.5836 70.8224 50.6834 70.7755 50.794C70.7286 50.9046 70.705 51.0236 70.706 51.1437V52.8628H70.3137V51.1846C70.308 51.0089 70.338 50.8339 70.4016 50.67C70.4653 50.5062 70.5614 50.3568 70.6842 50.2311C70.9333 49.9866 71.2683 49.8497 71.6173 49.8497C71.9663 49.8497 72.3014 49.9866 72.5505 50.2311C72.6736 50.3567 72.7701 50.5059 72.8343 50.6698C72.8984 50.8336 72.9288 51.0087 72.9237 51.1846V52.8628V52.8601ZM76.4654 51.3835V52.8601H76.0731V52.3997C75.9392 52.5603 75.7725 52.6906 75.5842 52.7817C75.396 52.8728 75.1904 52.9228 74.9813 52.9282C74.7722 52.9336 74.5644 52.8944 74.3716 52.8131C74.1789 52.7318 74.0057 52.6104 73.8636 52.4569C73.5844 52.1608 73.4315 51.7675 73.4377 51.3605C73.4438 50.9535 73.6083 50.565 73.8963 50.2774C74.036 50.1308 74.2057 50.016 74.3937 49.9407C74.5818 49.8655 74.7838 49.8317 74.9861 49.8415C75.1845 49.8448 75.3802 49.8883 75.5614 49.9693C75.7426 50.0503 75.9056 50.1672 76.0404 50.3128C76.1797 50.4524 76.2885 50.6194 76.3598 50.8032C76.4311 50.9871 76.4633 51.1838 76.4545 51.3808L76.4654 51.3835ZM76.0731 51.3535C76.0707 51.0543 75.9514 50.7678 75.7407 50.5553C75.6424 50.4494 75.523 50.3654 75.3902 50.3086C75.2574 50.2519 75.1142 50.2236 74.9697 50.2256C74.8203 50.2225 74.6719 50.2502 74.5336 50.3069C74.3954 50.3636 74.2702 50.4481 74.166 50.5553C73.956 50.7707 73.8362 51.0582 73.8311 51.359C73.826 51.6598 73.9361 51.9512 74.1388 52.1736C74.2345 52.2848 74.3521 52.3751 74.4843 52.4389C74.6165 52.5026 74.7604 52.5384 74.9071 52.5441C75.062 52.5533 75.217 52.5277 75.3608 52.4693C75.5046 52.4108 75.6335 52.321 75.738 52.2063C75.8492 52.0946 75.9363 51.9613 75.994 51.8146C76.0516 51.668 76.0785 51.511 76.0731 51.3535ZM77.3808 52.8601H77.0022V48.8879H77.3836V52.871L77.3808 52.8601ZM82.6935 52.8601H81.5519C81.2811 52.8711 81.016 52.7808 80.8082 52.6067C80.7091 52.5145 80.6318 52.4014 80.5818 52.2756C80.5319 52.1498 80.5106 52.0144 80.5194 51.8793V48.8825H80.9253V51.9611C80.9297 52.0383 80.9493 52.1139 80.983 52.1836C81.0166 52.2532 81.0637 52.3156 81.1215 52.367C81.2473 52.4633 81.4051 52.5081 81.5628 52.4923H82.7071V52.8737L82.6935 52.8601ZM84.0121 52.9228C83.2965 52.9228 82.9387 52.6176 82.9387 52.0074V48.8934H83.331V49.9205H84.0121V50.2883H83.331V51.9611C83.331 52.3997 83.5571 52.6176 84.0121 52.6176V52.9446V52.9228ZM86.9517 51.4162V48.9097H86.5594V50.3945C86.4257 50.2346 86.2592 50.1051 86.0712 50.0149C85.8832 49.9247 85.6781 49.8758 85.4697 49.8714C85.267 49.863 85.065 49.8981 84.877 49.9742C84.6891 50.0503 84.5196 50.1658 84.3799 50.3128C84.2333 50.4565 84.1172 50.6282 84.0386 50.8178C83.9599 51.0074 83.9203 51.2109 83.9222 51.4162C83.9192 51.6138 83.9552 51.8101 84.0281 51.9938C84.101 52.1776 84.2095 52.3451 84.3472 52.4869C84.4796 52.6314 84.6403 52.7471 84.8194 52.8268C84.9984 52.9064 85.192 52.9484 85.3879 52.95C85.593 52.9587 85.7976 52.9238 85.9882 52.8477C86.1788 52.7716 86.3512 52.6561 86.494 52.5087C86.643 52.3698 86.7606 52.2007 86.839 52.0128C86.9175 51.8249 86.955 51.6224 86.949 51.4189L86.9517 51.4162ZM86.5594 51.3862C86.5665 51.543 86.5408 51.6996 86.4841 51.8459C86.4273 51.9923 86.3407 52.1252 86.2298 52.2362C86.126 52.3519 85.9972 52.4424 85.8532 52.5009C85.7093 52.5595 85.5539 52.5845 85.3988 52.5741C85.252 52.5699 85.1077 52.5354 84.975 52.4725C84.8422 52.4097 84.724 52.3199 84.6278 52.209C84.4227 51.9868 84.3114 51.694 84.3172 51.3917C84.3149 51.2396 84.3437 51.0887 84.4018 50.9481C84.4599 50.8076 84.5461 50.6804 84.6551 50.5743C84.7581 50.4665 84.8827 50.3814 85.0206 50.3247C85.1586 50.2679 85.3069 50.2406 85.456 50.2447C85.6012 50.2419 85.7453 50.2701 85.8787 50.3274C86.0122 50.3848 86.1318 50.4698 86.2298 50.5771C86.4412 50.7922 86.5596 51.0818 86.5594 51.3835V51.3862Z" fill="#1F3F95"/>
<path fill-rule="evenodd" clip-rule="evenodd" d="M63.3692 0.668374C65.5221 0.651217 67.6554 1.0788 69.6354 1.92433C73.475 3.56033 76.534 6.61647 78.1737 10.4545C79.0184 12.4347 79.445 14.5679 79.4269 16.7207V32.852H63.3692C61.2266 32.8628 59.1044 32.4354 57.133 31.596C53.2449 29.9492 50.1503 26.8537 48.5048 22.965C47.6757 20.9838 47.2488 18.8575 47.2488 16.7098C47.2488 14.5621 47.6757 12.4358 48.5048 10.4545C49.3183 8.55148 50.4955 6.82553 51.9702 5.37345C53.4587 3.91102 55.2104 2.7435 57.133 1.93251C59.1044 1.09308 61.2266 0.665672 63.3692 0.676547V0.668374ZM73.0463 26.4768V16.7261C73.0554 15.4338 72.7994 14.1533 72.2944 12.9637C71.3119 10.6326 69.4601 8.77594 67.1316 7.78729C65.9421 7.28195 64.6616 7.02603 63.3692 7.03535C61.4537 7.02165 59.5771 7.57627 57.9768 8.62908C56.3765 9.68189 55.1243 11.1856 54.3786 12.9501C53.8714 14.1391 53.6145 15.4198 53.6239 16.7125C53.6164 17.9951 53.8634 19.2665 54.3507 20.4529C54.838 21.6393 55.556 22.7173 56.4629 23.6242C57.3699 24.5312 58.4478 25.2491 59.6343 25.7364C60.8207 26.2238 62.0921 26.4708 63.3747 26.4632L73.0463 26.4768Z" fill="#1F3F95"/>
<path fill-rule="evenodd" clip-rule="evenodd" d="M63.3555 6.78201C64.6917 6.76782 66.0163 7.03033 67.246 7.55303C69.624 8.56977 71.5189 10.4636 72.5368 12.8411C73.0602 14.0708 73.3245 15.3952 73.3133 16.7316V26.7357H63.3555C62.0263 26.7433 60.7095 26.4781 59.4869 25.9565C57.072 24.9368 55.1504 23.0151 54.1306 20.6003C53.6163 19.3715 53.3514 18.0528 53.3514 16.7207C53.3514 15.3886 53.6163 14.0699 54.1306 12.8411C54.6371 11.6594 55.3691 10.5878 56.2857 9.68625C57.2087 8.77971 58.2948 8.05591 59.4869 7.55303C60.7095 7.03144 62.0263 6.76624 63.3555 6.77384V6.78201ZM69.3493 22.7853V16.7398C69.3549 15.9387 69.1964 15.1451 68.8834 14.4077C68.2705 12.9668 67.1231 11.8194 65.6822 11.2065C64.9444 10.8913 64.1496 10.7318 63.3474 10.7379C62.1587 10.7292 60.9941 11.0732 60.0009 11.7265C59.0077 12.3797 58.2306 13.3128 57.7677 14.4077C57.4548 15.1451 57.2962 15.9387 57.3019 16.7398C57.2976 17.5486 57.456 18.35 57.7677 19.0964C58.0652 19.82 58.5032 20.4774 59.0565 21.0307C59.6097 21.5839 60.2671 22.0219 60.9907 22.3194C61.7371 22.6311 62.5385 22.7896 63.3474 22.7853H69.3493Z" fill="#A6CE39"/>
<path fill-rule="evenodd" clip-rule="evenodd" d="M62.3121 14.2741C61.8224 14.457 61.398 14.781 61.0925 15.2052C60.787 15.6293 60.6141 16.1345 60.5957 16.6569C60.5774 17.1793 60.7143 17.6954 60.9893 18.1399C61.2643 18.5845 61.6649 18.9375 62.1405 19.1543C62.6161 19.3712 63.1453 19.4421 63.6613 19.3581C64.1772 19.2742 64.6566 19.0391 65.0389 18.6827C65.4212 18.3262 65.6893 17.8644 65.8091 17.3556C65.9289 16.8468 65.8952 16.3139 65.7122 15.8243C65.4662 15.1684 64.9701 14.6368 64.3326 14.3462C63.6952 14.0556 62.9686 14.0297 62.3121 14.2741Z" fill="url(#paint0_radial_669_616)"/>
<path fill-rule="evenodd" clip-rule="evenodd" d="M81.3803 0.112597C81.2198 0.17261 81.0806 0.278907 80.9805 0.418037C80.8803 0.557166 80.8237 0.722875 80.8178 0.894191C80.8119 1.06551 80.8569 1.23473 80.9472 1.38045C81.0375 1.52616 81.1689 1.64182 81.325 1.71278C81.481 1.78374 81.6546 1.80682 81.8238 1.77909C81.9929 1.75137 82.1501 1.67408 82.2753 1.55702C82.4005 1.43995 82.4882 1.28837 82.5272 1.12146C82.5663 0.954544 82.5549 0.7798 82.4946 0.61934C82.4139 0.404512 82.2512 0.230498 82.0423 0.135492C81.8334 0.0404858 81.5953 0.0322516 81.3803 0.112597Z" fill="url(#paint1_radial_669_616)"/>
<path fill-rule="evenodd" clip-rule="evenodd" d="M78.0648 0.0444939C77.936 0.0924585 77.8244 0.177524 77.744 0.288934C77.6635 0.400343 77.618 0.533093 77.613 0.6704C77.608 0.807706 77.6439 0.943403 77.716 1.06033C77.7882 1.17726 77.8934 1.27017 78.0183 1.32731C78.1433 1.38445 78.2824 1.40326 78.418 1.38136C78.5537 1.35946 78.6798 1.29783 78.7804 1.20426C78.881 1.1107 78.9516 0.989396 78.9833 0.855702C79.015 0.722008 79.0063 0.581922 78.9584 0.453157C78.9268 0.367421 78.8786 0.288776 78.8166 0.221758C78.7545 0.154741 78.6798 0.100677 78.5967 0.0626855C78.5136 0.0246939 78.4238 0.0035265 78.3325 0.000404331C78.2412 -0.00271784 78.1502 0.0122664 78.0648 0.0444939Z" fill="url(#paint2_radial_669_616)"/>
<path fill-rule="evenodd" clip-rule="evenodd" d="M83.045 2.79618C82.837 2.87377 82.6567 3.0113 82.5268 3.19137C82.397 3.37145 82.3234 3.58598 82.3155 3.80785C82.3076 4.02971 82.3657 4.24894 82.4824 4.43781C82.599 4.62668 82.7691 4.7767 82.9711 4.86891C83.173 4.96113 83.3978 4.99138 83.6169 4.95585C83.8361 4.92032 84.0397 4.82061 84.2022 4.66931C84.3647 4.51802 84.4786 4.32195 84.5297 4.10589C84.5807 3.88983 84.5665 3.66349 84.4889 3.45549C84.4377 3.31717 84.3597 3.19033 84.2593 3.08227C84.1589 2.9742 84.0381 2.88703 83.904 2.82577C83.7698 2.7645 83.6248 2.73035 83.4774 2.72527C83.33 2.7202 83.1831 2.74429 83.045 2.79618Z" fill="url(#paint3_radial_669_616)"/>
<path fill-rule="evenodd" clip-rule="evenodd" d="M80.7591 6.19077C80.4774 6.29588 80.2332 6.48215 80.0574 6.72601C79.8816 6.96988 79.7821 7.2604 79.7714 7.56084C79.7606 7.86128 79.8392 8.15816 79.9972 8.41393C80.1552 8.66971 80.3855 8.8729 80.6589 8.99782C80.9324 9.12274 81.2367 9.16378 81.5335 9.11574C81.8303 9.06771 82.1061 8.93277 82.3262 8.72797C82.5463 8.52317 82.7007 8.25772 82.77 7.96516C82.8392 7.67261 82.8202 7.3661 82.7152 7.08438C82.6455 6.89723 82.5396 6.72564 82.4035 6.57943C82.2675 6.43322 82.104 6.31526 81.9223 6.23227C81.7406 6.14928 81.5444 6.10291 81.3448 6.09578C81.1452 6.08866 80.9462 6.12094 80.7591 6.19077Z" fill="url(#paint4_radial_669_616)"/>
<path fill-rule="evenodd" clip-rule="evenodd" d="M76.2066 9.73253C75.8944 9.85035 75.624 10.058 75.4297 10.3293C75.2353 10.6007 75.1257 10.9235 75.1147 11.257C75.1036 11.5906 75.1917 11.9199 75.3676 12.2035C75.5436 12.4871 75.7996 12.7122 76.1034 12.8504C76.4071 12.9886 76.745 13.0337 77.0744 12.9801C77.4038 12.9265 77.7099 12.7764 77.9542 12.549C78.1984 12.3215 78.3697 12.0268 78.4466 11.702C78.5235 11.3773 78.5025 11.037 78.3861 10.7242C78.3086 10.5157 78.1906 10.3245 78.039 10.1617C77.8873 9.99885 77.705 9.8676 77.5025 9.77545C77.2999 9.6833 77.0812 9.63207 76.8588 9.6247C76.6364 9.61734 76.4148 9.65399 76.2066 9.73253Z" fill="url(#paint5_radial_669_616)"/>
<path fill-rule="evenodd" clip-rule="evenodd" d="M70.7169 12.773C70.3869 12.8955 70.1006 13.113 69.8943 13.3982C69.688 13.6835 69.571 14.0234 69.558 14.3752C69.545 14.7269 69.6366 15.0746 69.8213 15.3743C70.0059 15.674 70.2754 15.9121 70.5954 16.0586C70.9155 16.2051 71.2718 16.2533 71.6193 16.1972C71.9668 16.1411 72.2898 15.9832 72.5476 15.7435C72.8053 15.5037 72.9861 15.1929 73.0671 14.8504C73.1481 14.5078 73.1257 14.149 73.0027 13.8192C72.838 13.3776 72.5048 13.0194 72.0762 12.8232C71.6476 12.6271 71.1588 12.609 70.7169 12.773Z" fill="url(#paint6_radial_669_616)"/>
<path fill-rule="evenodd" clip-rule="evenodd" d="M53.8691 17.6089C53.5196 17.739 53.2166 17.9698 52.9984 18.2722C52.7802 18.5745 52.6565 18.9348 52.643 19.3074C52.6295 19.68 52.7268 20.0483 52.9226 20.3656C53.1184 20.6829 53.4039 20.9351 53.743 21.0902C54.0821 21.2452 54.4595 21.2963 54.8276 21.2368C55.1957 21.1774 55.538 21.0101 55.811 20.7561C56.084 20.5022 56.2756 20.173 56.3616 19.8102C56.4475 19.4473 56.4239 19.0671 56.2938 18.7177C56.1181 18.25 55.7645 17.8709 55.3102 17.6631C54.8558 17.4554 54.3377 17.4359 53.8691 17.6089Z" fill="url(#paint7_radial_669_616)"/>
<path fill-rule="evenodd" clip-rule="evenodd" d="M48.1505 18.1047C47.8595 18.2136 47.6072 18.4064 47.4257 18.6587C47.2441 18.911 47.1415 19.2114 47.1306 19.522C47.1197 19.8326 47.2012 20.1395 47.3647 20.4038C47.5282 20.6681 47.7663 20.8781 48.0491 21.0071C48.3319 21.1361 48.6465 21.1784 48.9533 21.1286C49.2601 21.0789 49.5453 20.9393 49.7727 20.7275C50.0002 20.5157 50.1598 20.2413 50.2314 19.9388C50.3029 19.6364 50.2832 19.3195 50.1748 19.0283C50.103 18.8344 49.9935 18.6566 49.8528 18.5051C49.712 18.3537 49.5427 18.2315 49.3546 18.1457C49.1665 18.0599 48.9633 18.0121 48.7567 18.005C48.55 17.998 48.344 18.0319 48.1505 18.1047Z" fill="url(#paint8_radial_669_616)"/>
<path fill-rule="evenodd" clip-rule="evenodd" d="M42.4809 16.6171C42.1895 16.7257 41.9369 16.9182 41.7549 17.1703C41.5729 17.4225 41.4699 17.7229 41.4587 18.0337C41.4475 18.3444 41.5287 18.6515 41.692 18.9161C41.8554 19.1807 42.0936 19.3909 42.3764 19.5201C42.6592 19.6493 42.974 19.6917 43.281 19.642C43.5879 19.5923 43.8732 19.4527 44.1008 19.2408C44.3284 19.0289 44.488 18.7543 44.5595 18.4517C44.631 18.1491 44.6111 17.8321 44.5024 17.5407C44.3562 17.1507 44.0613 16.8345 43.6824 16.6615C43.3035 16.4884 42.8715 16.4724 42.4809 16.6171Z" fill="url(#paint9_radial_669_616)"/>
<path fill-rule="evenodd" clip-rule="evenodd" d="M39.5141 13.92C39.2964 14.001 39.1076 14.1448 38.9716 14.3331C38.8356 14.5215 38.7585 14.746 38.7502 14.9781C38.7418 15.2103 38.8024 15.4397 38.9245 15.6374C39.0466 15.8351 39.2245 15.9921 39.4358 16.0886C39.6472 16.1851 39.8824 16.2168 40.1117 16.1796C40.341 16.1424 40.5541 16.038 40.7241 15.8796C40.8941 15.7212 41.0132 15.516 41.0665 15.2898C41.1198 15.0637 41.1048 14.8269 41.0235 14.6093C40.9139 14.3183 40.6937 14.0825 40.4109 13.9534C40.1282 13.8243 39.8058 13.8122 39.5141 13.92Z" fill="url(#paint10_radial_669_616)"/>
<path fill-rule="evenodd" clip-rule="evenodd" d="M42.2385 10.8032C42.0566 10.8688 41.8984 10.9871 41.7841 11.143C41.6697 11.2989 41.6044 11.4853 41.5965 11.6785C41.5886 11.8716 41.6384 12.0628 41.7397 12.2275C41.8409 12.3922 41.9889 12.523 42.1648 12.6032C42.3407 12.6834 42.5365 12.7094 42.7273 12.6778C42.918 12.6462 43.095 12.5585 43.2356 12.4258C43.3763 12.2932 43.4742 12.1216 43.5169 11.9331C43.5596 11.7445 43.5452 11.5475 43.4754 11.3672C43.3843 11.1298 43.2036 10.9378 42.9723 10.8323C42.7409 10.7268 42.4774 10.7164 42.2385 10.8032Z" fill="url(#paint11_radial_669_616)"/>
<path fill-rule="evenodd" clip-rule="evenodd" d="M45.6577 8.91518C45.5298 8.96275 45.4189 9.04721 45.3391 9.15784C45.2592 9.26848 45.214 9.40033 45.2092 9.53668C45.2043 9.67303 45.24 9.80776 45.3118 9.92379C45.3836 10.0398 45.4882 10.132 45.6124 10.1885C45.7365 10.245 45.8747 10.2635 46.0093 10.2414C46.144 10.2194 46.2691 10.1579 46.3687 10.0647C46.4684 9.97155 46.5382 9.85089 46.5692 9.71803C46.6003 9.58517 46.5912 9.44609 46.5431 9.31839C46.4789 9.14773 46.3496 9.00947 46.1837 8.9339C46.0177 8.85833 45.8286 8.85159 45.6577 8.91518Z" fill="url(#paint12_radial_669_616)"/>
<defs>
<radialGradient id="paint0_radial_669_616" cx="0" cy="0" r="1" gradientUnits="userSpaceOnUse" gradientTransform="translate(62.5764 16.4891) scale(2.64269)">
<stop stop-color="#299CD7"/>
<stop offset="0.13" stop-color="#2788C9"/>
<stop offset="0.36" stop-color="#2368B2"/>
<stop offset="0.59" stop-color="#2151A2"/>
<stop offset="0.81" stop-color="#204498"/>
<stop offset="1" stop-color="#1F3F95"/>
</radialGradient>
<radialGradient id="paint1_radial_669_616" cx="0" cy="0" r="1" gradientUnits="userSpaceOnUse" gradientTransform="translate(81.4648 0.837294) scale(0.866368 0.866366)">
<stop stop-color="#299CD7"/>
<stop offset="0.13" stop-color="#2788C9"/>
<stop offset="0.36" stop-color="#2368B2"/>
<stop offset="0.59" stop-color="#2151A2"/>
<stop offset="0.81" stop-color="#204498"/>
<stop offset="1" stop-color="#1F3F95"/>
</radialGradient>
<radialGradient id="paint2_radial_669_616" cx="0" cy="0" r="1" gradientUnits="userSpaceOnUse" gradientTransform="translate(78.1329 0.627521) scale(0.694729 0.694727)">
<stop stop-color="#299CD7"/>
<stop offset="0.13" stop-color="#2788C9"/>
<stop offset="0.36" stop-color="#2368B2"/>
<stop offset="0.59" stop-color="#2151A2"/>
<stop offset="0.81" stop-color="#204498"/>
<stop offset="1" stop-color="#1F3F95"/>
</radialGradient>
<radialGradient id="paint3_radial_669_616" cx="0" cy="0" r="1" gradientUnits="userSpaceOnUse" gradientTransform="translate(83.1567 3.7361) scale(1.12246)">
<stop stop-color="#299CD7"/>
<stop offset="0.13" stop-color="#2788C9"/>
<stop offset="0.36" stop-color="#2368B2"/>
<stop offset="0.59" stop-color="#2151A2"/>
<stop offset="0.81" stop-color="#204498"/>
<stop offset="1" stop-color="#1F3F95"/>
</radialGradient>
<radialGradient id="paint4_radial_669_616" cx="0" cy="0" r="1" gradientUnits="userSpaceOnUse" gradientTransform="translate(80.9116 7.46852) scale(1.52023)">
<stop stop-color="#299CD7"/>
<stop offset="0.13" stop-color="#2788C9"/>
<stop offset="0.36" stop-color="#2368B2"/>
<stop offset="0.59" stop-color="#2151A2"/>
<stop offset="0.81" stop-color="#204498"/>
<stop offset="1" stop-color="#1F3F95"/>
</radialGradient>
<radialGradient id="paint5_radial_669_616" cx="0" cy="0" r="1" gradientUnits="userSpaceOnUse" gradientTransform="translate(76.3755 11.152) scale(1.68914)">
<stop stop-color="#299CD7"/>
<stop offset="0.13" stop-color="#2788C9"/>
<stop offset="0.36" stop-color="#2368B2"/>
<stop offset="0.59" stop-color="#2151A2"/>
<stop offset="0.81" stop-color="#204498"/>
<stop offset="1" stop-color="#1F3F95"/>
</radialGradient>
<radialGradient id="paint6_radial_669_616" cx="0" cy="0" r="1" gradientUnits="userSpaceOnUse" gradientTransform="translate(70.894 14.2633) scale(1.77905)">
<stop stop-color="#299CD7"/>
<stop offset="0.13" stop-color="#2788C9"/>
<stop offset="0.36" stop-color="#2368B2"/>
<stop offset="0.59" stop-color="#2151A2"/>
<stop offset="0.81" stop-color="#204498"/>
<stop offset="1" stop-color="#1F3F95"/>
</radialGradient>
<radialGradient id="paint7_radial_669_616" cx="0" cy="0" r="1" gradientUnits="userSpaceOnUse" gradientTransform="translate(54.057 19.1918) scale(1.8853)">
<stop stop-color="#299CD7"/>
<stop offset="0.13" stop-color="#2788C9"/>
<stop offset="0.36" stop-color="#2368B2"/>
<stop offset="0.59" stop-color="#2151A2"/>
<stop offset="0.81" stop-color="#204498"/>
<stop offset="1" stop-color="#1F3F95"/>
</radialGradient>
<radialGradient id="paint8_radial_669_616" cx="0" cy="0" r="1" gradientUnits="userSpaceOnUse" gradientTransform="translate(48.3085 19.4233) scale(1.57199)">
<stop stop-color="#299CD7"/>
<stop offset="0.13" stop-color="#2788C9"/>
<stop offset="0.36" stop-color="#2368B2"/>
<stop offset="0.59" stop-color="#2151A2"/>
<stop offset="0.81" stop-color="#204498"/>
<stop offset="1" stop-color="#1F3F95"/>
</radialGradient>
<radialGradient id="paint9_radial_669_616" cx="0" cy="0" r="1" gradientUnits="userSpaceOnUse" gradientTransform="translate(42.6362 17.9358) scale(1.57199)">
<stop stop-color="#299CD7"/>
<stop offset="0.13" stop-color="#2788C9"/>
<stop offset="0.36" stop-color="#2368B2"/>
<stop offset="0.59" stop-color="#2151A2"/>
<stop offset="0.81" stop-color="#204498"/>
<stop offset="1" stop-color="#1F3F95"/>
</radialGradient>
<radialGradient id="paint10_radial_669_616" cx="0" cy="0" r="1" gradientUnits="userSpaceOnUse" gradientTransform="translate(39.6204 14.9035) scale(1.17423)">
<stop stop-color="#299CD7"/>
<stop offset="0.13" stop-color="#2788C9"/>
<stop offset="0.36" stop-color="#2368B2"/>
<stop offset="0.59" stop-color="#2151A2"/>
<stop offset="0.81" stop-color="#204498"/>
<stop offset="1" stop-color="#1F3F95"/>
</radialGradient>
<radialGradient id="paint11_radial_669_616" cx="0" cy="0" r="1" gradientUnits="userSpaceOnUse" gradientTransform="translate(42.3202 11.6179) scale(0.972618)">
<stop stop-color="#299CD7"/>
<stop offset="0.13" stop-color="#2788C9"/>
<stop offset="0.36" stop-color="#2368B2"/>
<stop offset="0.59" stop-color="#2151A2"/>
<stop offset="0.81" stop-color="#204498"/>
<stop offset="1" stop-color="#1F3F95"/>
</radialGradient>
<radialGradient id="paint12_radial_669_616" cx="0" cy="0" r="1" gradientUnits="userSpaceOnUse" gradientTransform="translate(45.7258 9.50093) scale(0.68928 0.689279)">
<stop stop-color="#299CD7"/>
<stop offset="0.13" stop-color="#2788C9"/>
<stop offset="0.36" stop-color="#2368B2"/>
<stop offset="0.59" stop-color="#2151A2"/>
<stop offset="0.81" stop-color="#204498"/>
<stop offset="1" stop-color="#1F3F95"/>
</radialGradient>
</defs>
</svg>
