<svg width="14" height="14" viewBox="0 0 14 14" fill="none" xmlns="http://www.w3.org/2000/svg">
<path d="M9.00098 5C9.00098 6.10156 8.10254 7 7.00098 7C5.89941 7 5.00098 6.10156 5.00098 5C5.00098 3.89844 5.89941 3 7.00098 3C8.10254 3 9.00098 3.89844 9.00098 5ZM11.001 5C11.001 2.78906 9.21191 0.999999 7.00098 0.999999C4.79004 0.999999 3.00098 2.78906 3.00098 5C3.00098 5.47656 3.05566 5.96875 3.25879 6.39844L6.11035 12.4453C6.2666 12.7891 6.62598 13 7.00098 13C7.37598 13 7.73535 12.7891 7.89941 12.4453L10.7432 6.39844C10.9463 5.96875 11.001 5.47656 11.001 5Z" fill="white"/>
</svg>
