<svg width="14" height="14" viewBox="0 0 14 14" fill="none" xmlns="http://www.w3.org/2000/svg">
<path d="M11 9.6875C11 9.63281 11 9.57812 10.9766 9.52344C10.9219 9.35937 10.5391 9.1875 10.3828 9.10937C9.9375 8.85937 9.48438 8.61719 9.04688 8.35937C8.84375 8.23437 8.59375 8 8.35156 8C7.875 8 7.17969 9.41406 6.75781 9.41406C6.54688 9.41406 6.27344 9.21875 6.08594 9.10937C4.66406 8.32031 3.67969 7.33594 2.89063 5.91406C2.78125 5.72656 2.58594 5.45312 2.58594 5.24219C2.58594 4.82031 4 4.125 4 3.64844C4 3.40625 3.76563 3.15625 3.64063 2.95312C3.38281 2.51562 3.14063 2.0625 2.89063 1.61719C2.8125 1.46094 2.64063 1.07812 2.47656 1.02344C2.42188 0.999999 2.36719 0.999999 2.3125 0.999999C2.03125 0.999999 1.48438 1.125 1.22656 1.24219C0.84375 1.40625 0.59375 1.84375 0.398438 2.19531C0.148438 2.65625 0 3.125 0 3.64844C0 4.375 0.296875 5.03125 0.539063 5.69531C0.710938 6.17187 0.921875 6.63281 1.1875 7.0625C2.00781 8.39062 3.60938 9.99219 4.9375 10.8125C5.36719 11.0781 5.82813 11.2891 6.30469 11.4609C6.96875 11.7031 7.625 12 8.35156 12C8.875 12 9.34375 11.8516 9.80469 11.6016C10.1563 11.4062 10.5938 11.1562 10.7578 10.7734C10.875 10.5156 11 9.96875 11 9.6875Z" fill="white"/>
</svg>
