<svg width="1210" height="270" viewBox="0 0 1210 270" fill="none" xmlns="http://www.w3.org/2000/svg">
<mask id="mask0_127_548" style="mask-type:alpha" maskUnits="userSpaceOnUse" x="0" y="0" width="1210" height="270">
<path d="M0 21C0 9.40203 9.40202 0 21 0H1189C1200.6 0 1210 9.40202 1210 21V270H0V21Z" fill="#D9D9D9"/>
</mask>
<g mask="url(#mask0_127_548)">
<path d="M-11 21C-11 9.40202 -1.59798 0 10 0H1189C1200.6 0 1210 9.40202 1210 21V645H-11V21Z" fill="url(#paint0_linear_127_548)"/>
<mask id="mask1_127_548" style="mask-type:alpha" maskUnits="userSpaceOnUse" x="-11" y="0" width="1221" height="645">
<path d="M-11 21C-11 9.40202 -1.59798 0 10 0H1189C1200.6 0 1210 9.40202 1210 21V645H-11V21Z" fill="#FAFAFA"/>
</mask>
<g mask="url(#mask1_127_548)">
<path d="M878.777 323.305C878.777 476.739 759.897 601.044 613.346 601.044C466.795 601.044 347.916 476.739 347.916 323.305C347.916 169.871 466.795 45.5659 613.346 45.5659C759.897 45.5659 878.777 169.871 878.777 323.305Z" stroke="white" stroke-opacity="0.06" stroke-width="2"/>
<path d="M993.617 323.304C993.617 543.093 823.322 721.189 613.346 721.189C403.371 721.189 233.075 543.093 233.075 323.304C233.075 103.516 403.371 -74.5806 613.346 -74.5806C823.322 -74.5806 993.617 103.516 993.617 323.304Z" stroke="white" stroke-opacity="0.06" stroke-width="2"/>
<path d="M1099.27 323.305C1099.27 604.14 881.673 831.724 613.346 831.724C345.02 831.724 127.422 604.14 127.422 323.305C127.422 42.4694 345.02 -185.115 613.346 -185.115C881.673 -185.115 1099.27 42.4694 1099.27 323.305Z" stroke="white" stroke-opacity="0.06" stroke-width="2"/>
</g>
</g>
<defs>
<linearGradient id="paint0_linear_127_548" x1="599.5" y1="0" x2="599.5" y2="645" gradientUnits="userSpaceOnUse">
<stop stop-color="#063480"/>
<stop offset="1" stop-color="#076567"/>
</linearGradient>
</defs>
</svg>
